%TF.GenerationSoftware,Novarm,DipTrace,3.3.1.3*%
%TF.CreationDate,2020-02-21T13:34:05+01:00*%
%FSLAX35Y35*%
%MOMM*%
%TF.FileFunction,Soldermask,Bot*%
%TF.Part,Single*%
%ADD15R,1.9X1.9*%
%ADD16C,1.9*%
%ADD27R,1.7X1.7*%
%ADD28C,1.7*%
%ADD33C,1.651*%
%ADD41R,2.0X1.8*%
%ADD43C,1.7*%
%ADD45R,2.3X1.75*%
%ADD47R,1.8X2.0*%
%ADD49R,1.8X1.8*%
%ADD51C,1.8*%
%ADD52C,2.1*%
%ADD53C,2.5*%
%ADD54C,2.1*%
%ADD55R,2.5X2.5*%
%ADD56R,2.1X2.1*%
G75*
G01*
%LPD*%
D56*
X2600000Y8500000D3*
D54*
X2854000D3*
X3108000D3*
D27*
X2228540Y4734933D3*
D28*
X2482540D3*
X2736540D3*
X2990540D3*
X3244540D3*
X3498540D3*
D55*
X6530213Y6592113D3*
D53*
Y6242113D3*
Y5892113D3*
Y5542113D3*
D27*
X5736547Y6782593D3*
D28*
X5482547D3*
X5228547D3*
X4974547D3*
X4720547D3*
X4466547D3*
X4212547D3*
X3958547D3*
X3704547D3*
X3450547D3*
X3196547D3*
X2942547D3*
X2688547D3*
X2434547D3*
X2180547D3*
Y5258593D3*
X2434547D3*
X2688547D3*
X2942547D3*
X3196547D3*
X3450547D3*
X3704547D3*
X3958547D3*
X4212547D3*
X4466547D3*
X4720547D3*
X4974547D3*
X5228547D3*
X5482547D3*
X5736547D3*
D33*
X5990547Y6782593D3*
Y5258593D3*
X1926547D3*
Y6782593D3*
D55*
X4200000Y8500000D3*
D53*
X3850000D3*
D52*
X5561940Y4861923D3*
X5561613Y4607923D3*
X5561290Y4353923D3*
X5560963Y4099923D3*
D51*
X5200000Y8400000D3*
D49*
X5708000D3*
D47*
X2726333Y7592133D3*
X3006333D3*
D45*
X1905987Y7163553D3*
X1465987D3*
D15*
X6752440Y8512787D3*
D16*
X6498440D3*
X6244440D3*
D15*
X1323760Y1274547D3*
D16*
X1577760D3*
X1831760D3*
D15*
X6752493D3*
D16*
X6498493D3*
X6244493D3*
D15*
X1323760Y8496913D3*
D16*
X1577760D3*
X1831760D3*
D27*
X3387293Y1417407D3*
D28*
X3641293D3*
D52*
X3688887Y3465067D3*
X3434887Y3461097D3*
X3180887Y3457130D3*
X2926887Y3453160D3*
X2672887Y3449193D3*
X2418887Y3445223D3*
X2164887Y3441253D3*
X1910887Y3437287D3*
D43*
X5900000Y1100000D3*
Y1300000D3*
X5700000Y1100000D3*
Y1300000D3*
X5500000Y1100000D3*
Y1300000D3*
X5300000Y1100000D3*
Y1300000D3*
X5100000Y1100000D3*
Y1300000D3*
X4900000Y1100000D3*
Y1300000D3*
X4700000Y1100000D3*
Y1300000D3*
X4500000Y1100000D3*
Y1300000D3*
X3100000Y1100000D3*
Y1300000D3*
X2900000Y1100000D3*
Y1300000D3*
X2700000Y1100000D3*
Y1300000D3*
X2500000Y1100000D3*
Y1300000D3*
X2300000Y1100000D3*
Y1300000D3*
X2100000Y1100000D3*
Y1300000D3*
X3100000Y1500000D3*
X2900000D3*
X2700000D3*
X2500000D3*
X2300000D3*
X2200000Y4500000D3*
Y4300000D3*
Y4100000D3*
Y3900000D3*
X2400000Y4500000D3*
Y4300000D3*
Y4100000D3*
Y3900000D3*
X2600000Y4500000D3*
Y4300000D3*
Y4100000D3*
Y3900000D3*
X2800000Y4500000D3*
Y4300000D3*
Y4100000D3*
X2000000Y4300000D3*
X3000000Y4500000D3*
Y4300000D3*
Y4100000D3*
Y3900000D3*
X2000000Y4100000D3*
X3200000Y4300000D3*
Y4100000D3*
Y3900000D3*
X2000000D3*
X1800000Y4300000D3*
Y4100000D3*
Y3900000D3*
X1600000Y4300000D3*
Y4100000D3*
Y3900000D3*
Y3700000D3*
Y3500000D3*
Y3300000D3*
Y3100000D3*
Y2900000D3*
Y2700000D3*
Y2500000D3*
Y2300000D3*
Y2100000D3*
X1400000Y4300000D3*
Y4100000D3*
Y3900000D3*
Y3700000D3*
Y3500000D3*
Y3300000D3*
Y3100000D3*
Y2900000D3*
Y2700000D3*
Y2500000D3*
Y2300000D3*
Y2100000D3*
X2000000Y4500000D3*
X1800000D3*
X1600000D3*
X1400000D3*
Y4700000D3*
X1600000D3*
X1800000D3*
X2000000D3*
X1800000Y4900000D3*
X1600000D3*
X1400000D3*
Y5100000D3*
X1600000D3*
X1400000Y5300000D3*
X7100000Y3200000D3*
Y3000000D3*
Y2800000D3*
Y2600000D3*
Y2400000D3*
Y2200000D3*
Y2000000D3*
Y1800000D3*
Y1600000D3*
X6900000Y3200000D3*
Y3000000D3*
Y2800000D3*
Y2600000D3*
Y2400000D3*
Y2200000D3*
Y2000000D3*
Y1800000D3*
Y1600000D3*
X7100000Y5600000D3*
Y4800000D3*
Y4600000D3*
Y4400000D3*
Y4200000D3*
Y4000000D3*
Y3800000D3*
Y3600000D3*
Y3400000D3*
Y5400000D3*
Y5200000D3*
Y5000000D3*
X6900000Y4400000D3*
Y4200000D3*
Y4000000D3*
Y3800000D3*
Y3600000D3*
Y3400000D3*
X7100000Y6400000D3*
Y6200000D3*
Y6000000D3*
Y5800000D3*
Y7200000D3*
Y7000000D3*
Y6800000D3*
Y6600000D3*
Y7900000D3*
Y8700000D3*
Y8500000D3*
Y8300000D3*
Y8100000D3*
D47*
X2349807Y7592133D3*
X2069807D3*
X1535833D3*
X1815833D3*
D41*
X4514300Y4433340D3*
Y4713340D3*
X3911113Y4433340D3*
Y4713340D3*
D55*
X3500000Y7400000D3*
D53*
X3850000D3*
X4200000D3*
X4550000D3*
X4900000D3*
X5250000D3*
D52*
X5577813Y3592053D3*
X5323813D3*
X5069813D3*
X4815813D3*
X5577813Y1702903D3*
X5323813D3*
X5069813Y1702927D3*
X4815813D3*
X6927047Y7512767D3*
X6228547D3*
M02*
