%TF.GenerationSoftware,Novarm,DipTrace,3.3.1.3*%
%TF.CreationDate,2020-02-21T13:34:13+01:00*%
%FSLAX35Y35*%
%MOMM*%
%TF.FileFunction,Plated,1,2,PTH,Drill*%
%TF.Part,Single*%
%TA.AperFunction,ViaDrill*%
%ADD32C,0.48567*%
%TA.AperFunction,ComponentDrill*%
%ADD34C,1.1*%
%ADD35C,0.9*%
%ADD36C,1.4*%
%ADD37C,1.0*%
G75*
G01*
D34*
X2600000Y8500000D3*
X2854000D3*
X3108000D3*
D35*
X2228540Y4734933D3*
X2482540D3*
X2736540D3*
X2990540D3*
X3244540D3*
X3498540D3*
D36*
X6530213Y6592113D3*
Y6242113D3*
Y5892113D3*
Y5542113D3*
D35*
X5736547Y6782593D3*
X5482547D3*
X5228547D3*
X4974547D3*
X4720547D3*
X4466547D3*
X4212547D3*
X3958547D3*
X3704547D3*
X3450547D3*
X3196547D3*
X2942547D3*
X2688547D3*
X2434547D3*
X2180547D3*
Y5258593D3*
X2434547D3*
X2688547D3*
X2942547D3*
X3196547D3*
X3450547D3*
X3704547D3*
X3958547D3*
X4212547D3*
X4466547D3*
X4720547D3*
X4974547D3*
X5228547D3*
X5482547D3*
X5736547D3*
D36*
X4200000Y8500000D3*
X3850000D3*
D37*
X5561940Y4861923D3*
X5561613Y4607923D3*
X5561290Y4353923D3*
X5560963Y4099923D3*
D35*
X5200000Y8400000D3*
X5708000D3*
D34*
X6752440Y8512787D3*
X6498440D3*
X6244440D3*
X1323760Y1274547D3*
X1577760D3*
X1831760D3*
X6752493D3*
X6498493D3*
X6244493D3*
X1323760Y8496913D3*
X1577760D3*
X1831760D3*
D35*
X3387293Y1417407D3*
X3641293D3*
D37*
X3688887Y3465067D3*
X3434887Y3461097D3*
X3180887Y3457130D3*
X2926887Y3453160D3*
X2672887Y3449193D3*
X2418887Y3445223D3*
X2164887Y3441253D3*
X1910887Y3437287D3*
D35*
X5900000Y1100000D3*
Y1300000D3*
X5700000Y1100000D3*
Y1300000D3*
X5500000Y1100000D3*
Y1300000D3*
X5300000Y1100000D3*
Y1300000D3*
X5100000Y1100000D3*
Y1300000D3*
X4900000Y1100000D3*
Y1300000D3*
X4700000Y1100000D3*
Y1300000D3*
X4500000Y1100000D3*
Y1300000D3*
X3100000Y1100000D3*
Y1300000D3*
X2900000Y1100000D3*
Y1300000D3*
X2700000Y1100000D3*
Y1300000D3*
X2500000Y1100000D3*
Y1300000D3*
X2300000Y1100000D3*
Y1300000D3*
X2100000Y1100000D3*
Y1300000D3*
X3100000Y1500000D3*
X2900000D3*
X2700000D3*
X2500000D3*
X2300000D3*
X2200000Y4500000D3*
Y4300000D3*
Y4100000D3*
Y3900000D3*
X2400000Y4500000D3*
Y4300000D3*
Y4100000D3*
Y3900000D3*
X2600000Y4500000D3*
Y4300000D3*
Y4100000D3*
Y3900000D3*
X2800000Y4500000D3*
Y4300000D3*
Y4100000D3*
X2000000Y4300000D3*
X3000000Y4500000D3*
Y4300000D3*
Y4100000D3*
Y3900000D3*
X2000000Y4100000D3*
X3200000Y4300000D3*
Y4100000D3*
Y3900000D3*
X2000000D3*
X1800000Y4300000D3*
Y4100000D3*
Y3900000D3*
X1600000Y4300000D3*
Y4100000D3*
Y3900000D3*
Y3700000D3*
Y3500000D3*
Y3300000D3*
Y3100000D3*
Y2900000D3*
Y2700000D3*
Y2500000D3*
Y2300000D3*
Y2100000D3*
X1400000Y4300000D3*
Y4100000D3*
Y3900000D3*
Y3700000D3*
Y3500000D3*
Y3300000D3*
Y3100000D3*
Y2900000D3*
Y2700000D3*
Y2500000D3*
Y2300000D3*
Y2100000D3*
X2000000Y4500000D3*
X1800000D3*
X1600000D3*
X1400000D3*
Y4700000D3*
X1600000D3*
X1800000D3*
X2000000D3*
X1800000Y4900000D3*
X1600000D3*
X1400000D3*
Y5100000D3*
X1600000D3*
X1400000Y5300000D3*
X7100000Y3200000D3*
Y3000000D3*
Y2800000D3*
Y2600000D3*
Y2400000D3*
Y2200000D3*
Y2000000D3*
Y1800000D3*
Y1600000D3*
X6900000Y3200000D3*
Y3000000D3*
Y2800000D3*
Y2600000D3*
Y2400000D3*
Y2200000D3*
Y2000000D3*
Y1800000D3*
Y1600000D3*
X7100000Y5600000D3*
Y4800000D3*
Y4600000D3*
Y4400000D3*
Y4200000D3*
Y4000000D3*
Y3800000D3*
Y3600000D3*
Y3400000D3*
Y5400000D3*
Y5200000D3*
Y5000000D3*
X6900000Y4400000D3*
Y4200000D3*
Y4000000D3*
Y3800000D3*
Y3600000D3*
Y3400000D3*
X7100000Y6400000D3*
Y6200000D3*
Y6000000D3*
Y5800000D3*
Y7200000D3*
Y7000000D3*
Y6800000D3*
Y6600000D3*
Y7900000D3*
Y8700000D3*
Y8500000D3*
Y8300000D3*
Y8100000D3*
D36*
X3500000Y7400000D3*
X3850000D3*
X4200000D3*
X4550000D3*
X4900000D3*
X5250000D3*
D37*
X5577813Y3592053D3*
X5323813D3*
X5069813D3*
X4815813D3*
X5577813Y1702903D3*
X5323813D3*
X5069813Y1702927D3*
X4815813D3*
X6927047Y7512767D3*
X6228547D3*
D32*
X2271410Y7925809D3*
X1997560Y8257411D3*
X2942549Y6112940D3*
Y5625519D3*
X6384239Y5027730D3*
X3180880Y2710010D3*
X1831759D3*
X2069810Y7925809D3*
X6205880Y6923721D3*
X1523761Y6935250D3*
X3402940Y7958400D3*
X4430009D3*
X5365801Y8199009D3*
X4212549Y4353929D3*
X6241679Y5229330D3*
X3704549Y5957131D3*
X6043259Y5639730D3*
X3498540Y4290000D3*
M02*
