%TF.GenerationSoftware,Novarm,DipTrace,3.3.1.3*%
%TF.CreationDate,2020-02-21T13:33:59+01:00*%
%FSLAX35Y35*%
%MOMM*%
%TF.FileFunction,Copper,L1,Top*%
%TF.Part,Single*%
%TA.AperFunction,Conductor*%
%ADD13C,0.3*%
%TA.AperFunction,CopperBalancing*%
%ADD14C,0.635*%
%TA.AperFunction,ComponentPad*%
%ADD15R,1.9X1.9*%
%ADD16C,1.9*%
%ADD17R,1.5X1.5*%
%ADD18C,1.5*%
%ADD19R,2.3X2.3*%
%ADD20C,2.3*%
%ADD21C,1.9*%
%ADD22C,1.6*%
%ADD23R,1.6X1.6*%
%ADD27R,1.7X1.7*%
%ADD28C,1.7*%
%ADD29C,1.5*%
%TA.AperFunction,ViaPad*%
%ADD31C,1.016*%
G75*
G01*
%LPD*%
X1997560Y8257411D2*
D13*
Y8142410D1*
X2048360Y8091610D1*
X2220610D1*
X2271410Y8040810D1*
Y7925809D1*
X2942549Y5625519D2*
Y6112940D1*
X5200000Y8400000D2*
X5395000Y8595000D1*
X5861891D1*
X5944104Y8512787D1*
X6244440D1*
X4900000Y7400000D2*
Y7047147D1*
X4974547Y6972600D1*
Y6782593D1*
X3180887Y3457130D2*
Y3580071D1*
X3275886Y3675071D1*
X3983261D1*
X4110251Y3802061D1*
X5482811D1*
X5577813Y3707058D1*
Y3592053D1*
X6205880Y6923721D2*
X6630220D1*
X6760220Y6793721D1*
Y5403711D1*
X6384239Y5027730D1*
X2854000Y8500000D2*
Y8221610D1*
X2438664D1*
X2163361Y8496913D1*
X1831760D1*
X1831759Y2710010D2*
X3180880D1*
X6244440Y8512787D2*
Y8195373D1*
X6927047Y7512767D1*
X1831760Y8496913D2*
Y7925809D1*
X2069810D1*
X6927047Y7512767D2*
X7112767D1*
X7200000Y7600000D1*
X1523761Y6935250D2*
Y7630011D1*
X1653761Y7760010D1*
X3460010D1*
X4200000Y8500000D1*
X4430009Y7958400D2*
X4670618Y8199009D1*
X5365801D1*
X4974547Y5258593D2*
Y4991926D1*
X5104550Y4861923D1*
X5561940D1*
X4815813Y3592053D2*
X4434680D1*
X4307693Y3465067D1*
X3688887D1*
X3402940Y7958400D2*
Y8205060D1*
X3108000Y8500000D1*
X5365801Y8199009D2*
X5708000D1*
Y8400000D1*
X5561940Y4861923D2*
X6760212D1*
X6890220Y4991931D1*
Y6972600D1*
X6760220Y7102600D1*
X5547400D1*
X5250000Y7400000D1*
X2926887Y3453160D2*
Y3338148D1*
X3021886Y3243149D1*
X4939810D1*
X5069813Y3373152D1*
Y3592053D1*
X5561290Y4353923D2*
X4212549Y4353929D1*
X2434547Y6782593D2*
Y7269999D1*
X2564548Y7400000D1*
X3500000D1*
X2688547Y6782593D2*
Y6972598D1*
X2818549Y7102600D1*
X3850000D1*
Y7400000D1*
X3704549Y5957131D2*
X4187751Y5473929D1*
X6241679D1*
Y5229330D1*
X3450547Y6782593D2*
Y6567259D1*
X1453761D1*
X1323760Y6697261D1*
Y8496913D1*
X2180547Y6782593D2*
Y7500008D1*
X2310549Y7630011D1*
X5829927D1*
X5947171Y7512767D1*
X6228547D1*
X6530213Y6592113D2*
X6218303D1*
X6193450Y6567259D1*
X5736547D1*
Y6782593D1*
X6530213Y6242113D2*
X5612547D1*
X5482547Y6372114D1*
Y6782593D1*
X6530213Y5892113D2*
X4850548D1*
X4720547Y6022115D1*
Y6782593D1*
X6043259Y5639730D2*
X4596547D1*
X4466547Y5769730D1*
Y6782593D1*
X2482540Y4734933D2*
Y4924941D1*
X2612540Y5054941D1*
X3121548D1*
X3196547Y5129939D1*
Y5258593D1*
X2990540Y4734933D2*
Y4849940D1*
X3065541Y4924941D1*
X3574539D1*
X3704547Y5054948D1*
Y5258593D1*
X4466547D2*
Y4779729D1*
X4336547Y4649730D1*
X3688540D1*
X3528809Y4489999D1*
X3244540D1*
Y4734933D1*
X3498540Y4290000D2*
X3703671D1*
X3933401Y4519730D1*
X4590547D1*
X4720547Y4649730D1*
Y5258593D1*
X2942547Y6782593D2*
Y6897599D1*
X3017548Y6972600D1*
X4069999D1*
X4200000Y7102601D1*
Y7400000D1*
D31*
X2271410Y7925809D3*
X1997560Y8257411D3*
X2942549Y6112940D3*
Y5625519D3*
X6384239Y5027730D3*
X3180880Y2710010D3*
X1831759D3*
X2069810Y7925809D3*
X6205880Y6923721D3*
X1523761Y6935250D3*
X3402940Y7958400D3*
X4430009D3*
X5365801Y8199009D3*
X4212549Y4353929D3*
X6241679Y5229330D3*
X3704549Y5957131D3*
X6043259Y5639730D3*
X3498540Y4290000D3*
X1038146Y8805083D2*
D14*
X6972893D1*
X7227130D2*
X7261917D1*
X1038146Y8741917D2*
X6939170D1*
X1038146Y8678750D2*
X2413597D1*
X2786414D2*
X2825758D1*
X2882299D2*
X3079690D1*
X3136225D2*
X3753714D1*
X3946245D2*
X3993518D1*
X4406440D2*
X5333818D1*
X5923015D2*
X6200888D1*
X6288054D2*
X6454821D1*
X6541987D2*
X6576045D1*
X1038146Y8615583D2*
X1147308D1*
X1959995D2*
X2413597D1*
X3252442D2*
X3680341D1*
X4406440D2*
X5267646D1*
X5989187D2*
X6102542D1*
X6928901D2*
X6957581D1*
X7242351D2*
X7261917D1*
X1038146Y8552417D2*
X1147308D1*
X2255763D2*
X2413597D1*
X3286622D2*
X3650537D1*
X4406440D2*
X5130198D1*
X1038146Y8489250D2*
X1147308D1*
X2318927D2*
X2413597D1*
X3294096D2*
X3643883D1*
X4406440D2*
X5054729D1*
X5437117D2*
X5536526D1*
X1038146Y8426083D2*
X1147308D1*
X2382091D2*
X2413597D1*
X3329825D2*
X3657737D1*
X4406440D2*
X5030667D1*
X5373953D2*
X5536526D1*
X6928901D2*
X6951576D1*
X1038146Y8362917D2*
X1147308D1*
X1688836D2*
X1720615D1*
X2089513D2*
X2149456D1*
X3392989D2*
X3697933D1*
X4406440D2*
X5032763D1*
X5367208D2*
X5536526D1*
X5879448D2*
X6137998D1*
X6350854D2*
X6411617D1*
X1038146Y8299750D2*
X1217308D1*
X1430164D2*
X1725354D1*
X2133080D2*
X2212620D1*
X2960411D2*
X3160354D1*
X3456153D2*
X3851878D1*
X4147677D2*
X5062477D1*
X5463367D2*
X5536526D1*
X5879448D2*
X6137998D1*
X6350854D2*
X6933518D1*
X1038146Y8236583D2*
X1217308D1*
X1430164D2*
X1725354D1*
X2138185D2*
X2275784D1*
X2960411D2*
X3223518D1*
X3504278D2*
X3788714D1*
X4084513D2*
X4560263D1*
X5879448D2*
X6137998D1*
X6351127D2*
X6946643D1*
X1038146Y8173417D2*
X1217308D1*
X1430164D2*
X1725354D1*
X2284656D2*
X2338948D1*
X2948107D2*
X3286683D1*
X3509383D2*
X3725550D1*
X4021349D2*
X4497099D1*
X5811088D2*
X6140459D1*
X6414291D2*
X6951383D1*
X1038146Y8110250D2*
X1217308D1*
X1430164D2*
X1725354D1*
X2349825D2*
X3296526D1*
X3509383D2*
X3662386D1*
X3958185D2*
X4433935D1*
X5760593D2*
X6181657D1*
X6477455D2*
X6933883D1*
X1038146Y8047083D2*
X1217308D1*
X1430164D2*
X1725354D1*
X2377625D2*
X3293610D1*
X3512208D2*
X3599222D1*
X3895021D2*
X4320732D1*
X4666570D2*
X6244821D1*
X6540620D2*
X6942542D1*
X1038146Y7983917D2*
X1217308D1*
X1430164D2*
X1725354D1*
X2400593D2*
X3263076D1*
X3831857D2*
X4290198D1*
X4603406D2*
X6307985D1*
X6603784D2*
X6957308D1*
X7242716D2*
X7261917D1*
X1038146Y7920750D2*
X1217308D1*
X1430164D2*
X1725446D1*
X2413536D2*
X3265992D1*
X3768692D2*
X4293115D1*
X4566948D2*
X6371149D1*
X6666948D2*
X6934886D1*
X1038146Y7857583D2*
X1217308D1*
X1430164D2*
X1625094D1*
X3705437D2*
X4332581D1*
X4527482D2*
X6434313D1*
X6730112D2*
X6939261D1*
X1038146Y7794417D2*
X1217308D1*
X1430164D2*
X1540237D1*
X3642273D2*
X6497477D1*
X6793276D2*
X6973349D1*
X7226674D2*
X7261917D1*
X1038146Y7731250D2*
X1217308D1*
X1430164D2*
X1477073D1*
X3579109D2*
X6560641D1*
X6856440D2*
X7261917D1*
X1038146Y7668083D2*
X1217308D1*
X5939786D2*
X6131071D1*
X6326062D2*
X6623805D1*
X7024513D2*
X7261917D1*
X1038146Y7604917D2*
X1217308D1*
X1646544D2*
X2137516D1*
X6389591D2*
X6686969D1*
X7088133D2*
X7261917D1*
X1038146Y7541750D2*
X1217308D1*
X1630229D2*
X2083193D1*
X6412651D2*
X6742933D1*
X7111101D2*
X7261917D1*
X1038146Y7478583D2*
X1217308D1*
X1630229D2*
X2074078D1*
X2306987D2*
X2496175D1*
X5440398D2*
X5833479D1*
X6411739D2*
X6743844D1*
X7110190D2*
X7261917D1*
X1038146Y7415417D2*
X1217308D1*
X1630229D2*
X2074078D1*
X2287026D2*
X2432099D1*
X5455802D2*
X5917607D1*
X6386401D2*
X6769183D1*
X7084942D2*
X7261917D1*
X1038146Y7352250D2*
X1217308D1*
X1630229D2*
X2074078D1*
X2287026D2*
X2368935D1*
X5450698D2*
X6140550D1*
X6316583D2*
X6839091D1*
X7015034D2*
X7044138D1*
X7155854D2*
X7261917D1*
X1038146Y7289083D2*
X1217308D1*
X1630229D2*
X2074078D1*
X2287026D2*
X2329925D1*
X2601570D2*
X3293518D1*
X5508849D2*
X6960680D1*
X7239343D2*
X7261917D1*
X1038146Y7225917D2*
X1217308D1*
X1630229D2*
X2074078D1*
X2287026D2*
X2328102D1*
X2540958D2*
X3293518D1*
X3956453D2*
X4093597D1*
X4306453D2*
X4444964D1*
X4654995D2*
X4793597D1*
X5006453D2*
X5144964D1*
X5572013D2*
X6935706D1*
X1038146Y7162750D2*
X1217308D1*
X1630229D2*
X2074078D1*
X2287026D2*
X2328102D1*
X2540958D2*
X2730784D1*
X3956453D2*
X4093597D1*
X4306453D2*
X4793597D1*
X5006453D2*
X5339378D1*
X6847963D2*
X6937985D1*
X1038146Y7099583D2*
X1217308D1*
X1630229D2*
X2074078D1*
X2287026D2*
X2328102D1*
X2540958D2*
X2667620D1*
X3956362D2*
X4049117D1*
X4306362D2*
X4793597D1*
X5006453D2*
X5402542D1*
X6911127D2*
X6968336D1*
X7231687D2*
X7261917D1*
X1038146Y7036417D2*
X1217308D1*
X1630229D2*
X2074078D1*
X2287026D2*
X2328102D1*
X2540958D2*
X2605094D1*
X4281479D2*
X4794143D1*
X5058041D2*
X5465706D1*
X1038146Y6973250D2*
X1217308D1*
X1660580D2*
X2074078D1*
X2287026D2*
X2328102D1*
X2540958D2*
X2582125D1*
X2837091D2*
X2870328D1*
X4218588D2*
X4825953D1*
X5081010D2*
X6073011D1*
X1038146Y6910083D2*
X1217308D1*
X1663679D2*
X1811305D1*
X2041752D2*
X2074042D1*
X2287026D2*
X2328102D1*
X2540958D2*
X2582125D1*
X2794982D2*
X2836878D1*
X4315750D2*
X4363388D1*
X4569682D2*
X4617412D1*
X4823705D2*
X4868063D1*
X5081010D2*
X5125367D1*
X5331752D2*
X5379391D1*
X7238797D2*
X7261917D1*
X1038146Y6846917D2*
X1217308D1*
X1633419D2*
X1765367D1*
X1038146Y6783750D2*
X1217308D1*
X1430164D2*
X1752516D1*
X6164552D2*
X6323753D1*
X1038146Y6720583D2*
X1217308D1*
X1448302D2*
X1764456D1*
X6152612D2*
X6323753D1*
X1038146Y6657417D2*
X1225602D1*
X3556961D2*
X3598401D1*
X3810711D2*
X3852425D1*
X4064734D2*
X4106357D1*
X4318666D2*
X4360107D1*
X4572963D2*
X4614130D1*
X4826987D2*
X4868427D1*
X5080737D2*
X5122360D1*
X5334669D2*
X5376110D1*
X1038146Y6594250D2*
X1278831D1*
X3556961D2*
X4360107D1*
X4572963D2*
X4614130D1*
X4826987D2*
X5376110D1*
X5588966D2*
X5630133D1*
X1038146Y6531083D2*
X1341995D1*
X3550216D2*
X4360107D1*
X4572963D2*
X4614130D1*
X4826987D2*
X5376110D1*
X5588966D2*
X5636878D1*
X1038146Y6467917D2*
X1435237D1*
X3469096D2*
X4360107D1*
X4572963D2*
X4614130D1*
X4826987D2*
X5376110D1*
X5588966D2*
X5717998D1*
X6212039D2*
X6323753D1*
X1038146Y6404750D2*
X4360107D1*
X4572963D2*
X4614130D1*
X4826987D2*
X5376110D1*
X5597807D2*
X6323753D1*
X1038146Y6341583D2*
X4360107D1*
X4572963D2*
X4614130D1*
X4826987D2*
X5380849D1*
X1038146Y6278417D2*
X4360107D1*
X4572963D2*
X4614130D1*
X4826987D2*
X5428336D1*
X1038146Y6215250D2*
X2846722D1*
X3038341D2*
X4360107D1*
X4572963D2*
X4614130D1*
X4826987D2*
X5491500D1*
X1038146Y6152083D2*
X2806071D1*
X3078992D2*
X4360107D1*
X4572963D2*
X4614130D1*
X4826987D2*
X5562503D1*
X1038146Y6088917D2*
X2802425D1*
X3082638D2*
X3665029D1*
X3744083D2*
X4360107D1*
X4572963D2*
X4614130D1*
X4826987D2*
X6395120D1*
X7239435D2*
X7261917D1*
X1038146Y6025750D2*
X2831956D1*
X3053107D2*
X3580901D1*
X3828211D2*
X4360107D1*
X4572963D2*
X4614130D1*
X4864812D2*
X6374977D1*
X1038146Y5962583D2*
X2836149D1*
X3049005D2*
X3562399D1*
X3846987D2*
X4360107D1*
X4572963D2*
X4633727D1*
X1038146Y5899417D2*
X2836149D1*
X3049005D2*
X3575159D1*
X3910151D2*
X4360107D1*
X4572963D2*
X4695341D1*
X7231870D2*
X7261917D1*
X1038146Y5836250D2*
X2836149D1*
X3049005D2*
X3636136D1*
X3973315D2*
X4360107D1*
X4572963D2*
X4758505D1*
X1038146Y5773083D2*
X2836149D1*
X3049005D2*
X3740680D1*
X4036479D2*
X4360107D1*
X4611062D2*
X6010758D1*
X6075776D2*
X6363037D1*
X1038146Y5709917D2*
X2829677D1*
X3055385D2*
X3803844D1*
X4099643D2*
X4379977D1*
X6166010D2*
X6414899D1*
X7238705D2*
X7261917D1*
X1038146Y5646750D2*
X2801969D1*
X3083093D2*
X3867008D1*
X4162807D2*
X4441591D1*
X6185333D2*
X6353284D1*
X1038146Y5583583D2*
X2806982D1*
X3078172D2*
X3930172D1*
X4225971D2*
X4504755D1*
X6173393D2*
X6328128D1*
X1038146Y5520417D2*
X2850094D1*
X3035060D2*
X3993336D1*
X1038146Y5457250D2*
X1363597D1*
X1436362D2*
X4056500D1*
X1038146Y5394083D2*
X1264157D1*
X1535893D2*
X1821513D1*
X2031635D2*
X2088935D1*
X2272169D2*
X2342959D1*
X2526192D2*
X2596891D1*
X2780125D2*
X2850914D1*
X3034148D2*
X3104938D1*
X3288172D2*
X3358961D1*
X3542195D2*
X3612893D1*
X3796127D2*
X3866917D1*
X4050151D2*
X4120940D1*
X6348120D2*
X6389287D1*
X1038146Y5330917D2*
X1236539D1*
X1563419D2*
X1768922D1*
X6348120D2*
X6539495D1*
X1038146Y5267750D2*
X1236813D1*
X1563146D2*
X1752789D1*
X6378380D2*
X6476331D1*
X1038146Y5204583D2*
X1265068D1*
X1727573D2*
X1761539D1*
X6381661D2*
X6413132D1*
X6708966D2*
X6783766D1*
X1038146Y5141417D2*
X1239000D1*
X1761023D2*
X1800276D1*
X2295958D2*
X2319078D1*
X3311961D2*
X3335047D1*
X3565984D2*
X3589113D1*
X3820008D2*
X3843151D1*
X4073940D2*
X4097034D1*
X4327963D2*
X4351084D1*
X4581987D2*
X4605107D1*
X4836010D2*
X4859130D1*
X5089942D2*
X5113154D1*
X5343966D2*
X5367086D1*
X5597989D2*
X5621133D1*
X6645802D2*
X6783766D1*
X1038146Y5078250D2*
X1235081D1*
X1764942D2*
X2487972D1*
X3288627D2*
X3579990D1*
X3810984D2*
X4360107D1*
X4572963D2*
X4614130D1*
X4826987D2*
X4868063D1*
X5081010D2*
X6251748D1*
X6582638D2*
X6783766D1*
X1038146Y5015083D2*
X1257959D1*
X1917612D2*
X2424808D1*
X3802690D2*
X4360107D1*
X4572963D2*
X4614130D1*
X4826987D2*
X4868063D1*
X5099330D2*
X5460875D1*
X5663067D2*
X6242633D1*
X6525854D2*
X6765446D1*
X1038146Y4951917D2*
X1242190D1*
X1957807D2*
X2379782D1*
X2657442D2*
X2944612D1*
X3749370D2*
X4360107D1*
X4572963D2*
X4614130D1*
X4826987D2*
X4876448D1*
X1038146Y4888750D2*
X1233987D1*
X1966010D2*
X2062138D1*
X2594278D2*
X2685849D1*
X2787234D2*
X2891930D1*
X3686205D2*
X4360107D1*
X4572963D2*
X4614130D1*
X4826987D2*
X4929860D1*
X6934916D2*
X6960407D1*
X7239617D2*
X7261917D1*
X1038146Y4825583D2*
X1251943D1*
X3636804D2*
X4360107D1*
X4572963D2*
X4614130D1*
X4826987D2*
X4993024D1*
X6871752D2*
X6935615D1*
X1038146Y4762417D2*
X1246201D1*
X3662599D2*
X4301318D1*
X4571505D2*
X4614130D1*
X4826987D2*
X5087451D1*
X6777325D2*
X6938076D1*
X1038146Y4699250D2*
X1233532D1*
X4533953D2*
X4614130D1*
X4826987D2*
X5400081D1*
X5723224D2*
X6968063D1*
X7231961D2*
X7261917D1*
X1038146Y4636083D2*
X1246839D1*
X4470789D2*
X4558987D1*
X4826075D2*
X5377386D1*
X5745828D2*
X6937711D1*
X1038146Y4572917D2*
X1251123D1*
X4791622D2*
X5378571D1*
X5744643D2*
X6935888D1*
X1038146Y4509750D2*
X1233896D1*
X3696414D2*
X3775498D1*
X4728458D2*
X5404274D1*
X5718940D2*
X6777112D1*
X7238614D2*
X7261917D1*
X1038146Y4446583D2*
X1242737D1*
X3633250D2*
X3712334D1*
X5722039D2*
X6740472D1*
X1038146Y4383417D2*
X1257047D1*
X3342950D2*
X3393505D1*
X3944968D2*
X4073545D1*
X5745281D2*
X6734456D1*
X1038146Y4320250D2*
X1234808D1*
X3881804D2*
X4074547D1*
X5744552D2*
X6754873D1*
X1038146Y4257083D2*
X1239456D1*
X3818640D2*
X4110914D1*
X5719487D2*
X6744117D1*
X1038146Y4193917D2*
X1263974D1*
X3336023D2*
X3396058D1*
X3738067D2*
X5400992D1*
X5720945D2*
X6733636D1*
X1038146Y4130750D2*
X1236539D1*
X3363458D2*
X5377203D1*
X5744734D2*
X6749313D1*
X1038146Y4067583D2*
X1236904D1*
X3363093D2*
X5377477D1*
X5744461D2*
X6748492D1*
X1038146Y4004417D2*
X1265250D1*
X3334747D2*
X5401904D1*
X5720034D2*
X6733636D1*
X1038146Y3941250D2*
X1239000D1*
X3360997D2*
X5469443D1*
X5652495D2*
X6744755D1*
X1038146Y3878083D2*
X1235081D1*
X2764903D2*
X2835055D1*
X3364916D2*
X4038818D1*
X5554239D2*
X6753870D1*
X1038146Y3814917D2*
X1258050D1*
X2741935D2*
X2858024D1*
X3341948D2*
X3975198D1*
X5617859D2*
X6734274D1*
X1038146Y3751750D2*
X1242190D1*
X1866752D2*
X1933258D1*
X2066726D2*
X2133232D1*
X2266791D2*
X2333206D1*
X2466765D2*
X2533271D1*
X2666739D2*
X2933219D1*
X3066778D2*
X3133193D1*
X5673732D2*
X6741018D1*
X1038146Y3688583D2*
X1233987D1*
X1766036D2*
X3141487D1*
X4144669D2*
X4401852D1*
X5736166D2*
X6760341D1*
X7239708D2*
X7261917D1*
X1038146Y3625417D2*
X1252034D1*
X1747989D2*
X2629430D1*
X2716323D2*
X2867959D1*
X2985750D2*
X3085341D1*
X4081505D2*
X4320185D1*
X5761140D2*
X6735550D1*
X1038146Y3562250D2*
X1246201D1*
X1753823D2*
X1774847D1*
X5761778D2*
X6738102D1*
X1038146Y3499083D2*
X1233532D1*
X5738445D2*
X6767907D1*
X7232052D2*
X7261917D1*
X1038146Y3435917D2*
X1246930D1*
X4426401D2*
X4719677D1*
X4911935D2*
X4963401D1*
X5176258D2*
X5227724D1*
X5419890D2*
X5481748D1*
X5673914D2*
X6737646D1*
X1038146Y3372750D2*
X1251032D1*
X4352755D2*
X4921474D1*
X5176258D2*
X6735914D1*
X1038146Y3309583D2*
X1233805D1*
X5153471D2*
X6761526D1*
X7238432D2*
X7261917D1*
X1038146Y3246417D2*
X1242828D1*
X1757195D2*
X2870693D1*
X5090945D2*
X6740472D1*
X1038146Y3183250D2*
X1256865D1*
X1743067D2*
X2933857D1*
X5027781D2*
X6734456D1*
X1038146Y3120083D2*
X1234808D1*
X1765216D2*
X6754964D1*
X1038146Y3056917D2*
X1239456D1*
X1760567D2*
X6744026D1*
X1038146Y2993750D2*
X1263883D1*
X1736140D2*
X6733727D1*
X1038146Y2930583D2*
X1236539D1*
X1763484D2*
X6749404D1*
X1038146Y2867417D2*
X1236904D1*
X1763120D2*
X6748492D1*
X1038146Y2804250D2*
X1265341D1*
X3285164D2*
X6733636D1*
X1038146Y2741083D2*
X1238909D1*
X3319526D2*
X6744755D1*
X1038146Y2677917D2*
X1235081D1*
X3319252D2*
X6753779D1*
X1038146Y2614750D2*
X1258141D1*
X3284161D2*
X6734274D1*
X1038146Y2551583D2*
X1242099D1*
X1757924D2*
X6741018D1*
X1038146Y2488417D2*
X1233987D1*
X1766036D2*
X6760159D1*
X7239799D2*
X7261917D1*
X1038146Y2425250D2*
X1252125D1*
X1747898D2*
X6735550D1*
X1038146Y2362083D2*
X1246110D1*
X1753914D2*
X6738102D1*
X1038146Y2298917D2*
X1233532D1*
X1766401D2*
X6767815D1*
X7232234D2*
X7261917D1*
X1038146Y2235750D2*
X1247021D1*
X1753002D2*
X6737646D1*
X1038146Y2172583D2*
X1250940D1*
X1749083D2*
X6735914D1*
X1038146Y2109417D2*
X1233805D1*
X1766127D2*
X6761617D1*
X7238341D2*
X7261917D1*
X1038146Y2046250D2*
X1242828D1*
X1757104D2*
X6740380D1*
X1038146Y1983083D2*
X1284300D1*
X1715724D2*
X6734456D1*
X1038146Y1919917D2*
X6755055D1*
X1038146Y1856750D2*
X4715849D1*
X4915854D2*
X4969782D1*
X5169786D2*
X5223805D1*
X5423810D2*
X5477828D1*
X5677742D2*
X6743935D1*
X1038146Y1793583D2*
X4653870D1*
X5739721D2*
X6733727D1*
X1038146Y1730417D2*
X4631448D1*
X5762143D2*
X6749495D1*
X1038146Y1667250D2*
X4632907D1*
X5760685D2*
X6748401D1*
X1038146Y1604083D2*
X2171969D1*
X3228015D2*
X4658883D1*
X5734708D2*
X6733636D1*
X1038146Y1540917D2*
X2138883D1*
X3749461D2*
X4730797D1*
X4900815D2*
X4984821D1*
X5154838D2*
X5238753D1*
X5408862D2*
X5492776D1*
X5662885D2*
X6744847D1*
X1038146Y1477750D2*
X2135146D1*
X3795945D2*
X6790328D1*
X7209721D2*
X7261917D1*
X1038146Y1414583D2*
X1147308D1*
X1680633D2*
X1728909D1*
X1934656D2*
X1981839D1*
X3807703D2*
X4381891D1*
X6018172D2*
X6141643D1*
X6347390D2*
X6395576D1*
X6928901D2*
X7261917D1*
X1038146Y1351417D2*
X1147308D1*
X3793484D2*
X4342060D1*
X6058002D2*
X6086443D1*
X6928901D2*
X7261917D1*
X1038146Y1288250D2*
X1147308D1*
X3742260D2*
X4333948D1*
X6928901D2*
X7261917D1*
X1038146Y1225083D2*
X1147308D1*
X3247794D2*
X4352177D1*
X6047794D2*
X6075380D1*
X6928901D2*
X7261917D1*
X1038146Y1161917D2*
X1147308D1*
X3253992D2*
X4345979D1*
X6053992D2*
X6110654D1*
X6928901D2*
X7261917D1*
X1038146Y1098750D2*
X1933532D1*
X3266479D2*
X4333584D1*
X6066479D2*
X7261917D1*
X1038146Y1035583D2*
X1947112D1*
X3252898D2*
X4347073D1*
X6052898D2*
X7261917D1*
X2980978Y8372320D2*
X2959854Y8354304D1*
X2954113Y8350468D1*
X2953782Y8213757D1*
X2951325Y8198244D1*
X2946471Y8183307D1*
X2939341Y8169313D1*
X2930109Y8156606D1*
X2919003Y8145500D1*
X2906297Y8136269D1*
X2892303Y8129138D1*
X2877366Y8124285D1*
X2861853Y8121828D1*
X2760667Y8121519D1*
X2430811Y8121828D1*
X2415299Y8124285D1*
X2400361Y8129138D1*
X2386367Y8136269D1*
X2373661Y8145500D1*
X2301893Y8216832D1*
X2121885Y8396840D1*
X1969311Y8396823D1*
X1965837Y8389546D1*
X1986898Y8392882D1*
X2008222D1*
X2029283Y8389546D1*
X2049563Y8382957D1*
X2068562Y8373276D1*
X2085814Y8360743D1*
X2100892Y8345665D1*
X2113425Y8328413D1*
X2123106Y8309414D1*
X2129695Y8289134D1*
X2133031Y8268073D1*
Y8246749D1*
X2129695Y8225688D1*
X2123106Y8205408D1*
X2116378Y8191682D1*
X2228463Y8191392D1*
X2243976Y8188935D1*
X2258913Y8184081D1*
X2272907Y8176951D1*
X2285614Y8167719D1*
X2342185Y8111585D1*
X2352385Y8099642D1*
X2360591Y8086250D1*
X2366602Y8071740D1*
X2370268Y8056468D1*
X2371501Y8040810D1*
Y8017750D1*
X2381348Y8005683D1*
X2392489Y7987502D1*
X2400649Y7967801D1*
X2405627Y7947067D1*
X2407300Y7925809D1*
X2405627Y7904551D1*
X2400649Y7883817D1*
X2392489Y7864116D1*
X2390229Y7860080D1*
X3309060Y7860101D1*
X3299608Y7870146D1*
X3287074Y7887397D1*
X3277394Y7906397D1*
X3270804Y7926677D1*
X3267468Y7947738D1*
Y7969062D1*
X3270804Y7990123D1*
X3277394Y8010403D1*
X3287074Y8029402D1*
X3299608Y8046653D1*
X3302862Y8050173D1*
X3302849Y8163569D1*
X3143134Y8323317D1*
X3122130Y8320465D1*
X3093870D1*
X3065959Y8324886D1*
X3039083Y8333619D1*
X3013903Y8346448D1*
X2991041Y8363058D1*
X2981022Y8372320D1*
X2582615Y4859737D2*
X2595741Y4848134D1*
X2609472Y4832310D1*
X2623339Y4848134D1*
X2642441Y4864449D1*
X2663861Y4877575D1*
X2687069Y4887188D1*
X2711496Y4893052D1*
X2736540Y4895023D1*
X2761584Y4893052D1*
X2786011Y4887188D1*
X2809219Y4877575D1*
X2830639Y4864449D1*
X2849741Y4848134D1*
X2863472Y4832310D1*
X2877339Y4848134D1*
X2891004Y4860163D1*
X2893215Y4873306D1*
X2898069Y4888243D1*
X2905199Y4902237D1*
X2914431Y4914943D1*
X2953860Y4954808D1*
X2654061Y4954851D1*
X2582579Y4883432D1*
X2582630Y4859954D1*
X3621945Y4836783D2*
X3635039Y4818580D1*
X3646444Y4796197D1*
X3654207Y4772306D1*
X3658136Y4747494D1*
X3658231Y4745090D1*
X3672882Y4748588D1*
X3688570Y4749819D1*
X4295115Y4749820D1*
X4366508Y4821239D1*
X4366456Y5133649D1*
X4353346Y5145393D1*
X4339615Y5161217D1*
X4325747Y5145393D1*
X4306645Y5129078D1*
X4285226Y5115952D1*
X4262017Y5106339D1*
X4237590Y5100474D1*
X4212547Y5098503D1*
X4187503Y5100474D1*
X4163076Y5106339D1*
X4139867Y5115952D1*
X4118448Y5129078D1*
X4099346Y5145393D1*
X4085615Y5161217D1*
X4071747Y5145393D1*
X4052645Y5129078D1*
X4031226Y5115952D1*
X4008017Y5106339D1*
X3983590Y5100474D1*
X3958547Y5098503D1*
X3933503Y5100474D1*
X3909076Y5106339D1*
X3885867Y5115952D1*
X3864448Y5129078D1*
X3845346Y5145393D1*
X3831615Y5161217D1*
X3817747Y5145393D1*
X3804622Y5133790D1*
X3804328Y5047095D1*
X3801871Y5031583D1*
X3797018Y5016646D1*
X3789888Y5002651D1*
X3780656Y4989945D1*
X3709324Y4918177D1*
X3639543Y4848832D1*
X3626810Y4839585D1*
X6353457Y6792203D2*
X6620241D1*
X6588711Y6823681D1*
X6297812Y6823630D1*
X6285755Y6813783D1*
X6267573Y6802642D1*
X6247873Y6794481D1*
X6227138Y6789504D1*
X6205880Y6787831D1*
X6184623Y6789504D1*
X6163888Y6794481D1*
X6157592Y6796804D1*
X6158187Y6782593D1*
X6156123Y6756369D1*
X6149982Y6730790D1*
X6139915Y6706486D1*
X6126170Y6684057D1*
X6112123Y6667339D1*
X6152263Y6667350D1*
X6166007Y6677454D1*
X6180001Y6684585D1*
X6194938Y6689438D1*
X6210450Y6691895D1*
X6330139Y6692203D1*
X6330123Y6792203D1*
X6353457D1*
X6397712Y6392023D2*
X6330123D1*
Y6492010D1*
X6259419Y6492023D1*
X6245747Y6481919D1*
X6231752Y6474788D1*
X6216815Y6469935D1*
X6201303Y6467478D1*
X6100116Y6467169D1*
X5728694Y6467478D1*
X5713181Y6469935D1*
X5698244Y6474788D1*
X5684250Y6481919D1*
X5671543Y6491150D1*
X5660437Y6502256D1*
X5651206Y6514962D1*
X5644075Y6528957D1*
X5639222Y6543894D1*
X5636765Y6559406D1*
X5636456Y6622585D1*
X5582577Y6622503D1*
X5582637Y6413544D1*
X5654056Y6342153D1*
X6356935Y6342204D1*
X6368337Y6359723D1*
X6378064Y6372061D1*
X6397877Y6392055D1*
X6433324Y6067220D2*
X6412603Y6080237D1*
X6400265Y6089964D1*
X6388728Y6100628D1*
X6378064Y6112165D1*
X6368337Y6124503D1*
X6357120Y6142011D1*
X5604694Y6142332D1*
X5589182Y6144789D1*
X5574244Y6149642D1*
X5560250Y6156772D1*
X5547544Y6166004D1*
X5475776Y6237335D1*
X5406437Y6307111D1*
X5397206Y6319817D1*
X5390075Y6333811D1*
X5385222Y6348748D1*
X5382765Y6364261D1*
X5382456Y6465447D1*
Y6657674D1*
X5369346Y6669393D1*
X5355615Y6685217D1*
X5341747Y6669393D1*
X5322645Y6653078D1*
X5301226Y6639952D1*
X5278017Y6630339D1*
X5253590Y6624474D1*
X5228547Y6622503D1*
X5203503Y6624474D1*
X5179076Y6630339D1*
X5155867Y6639952D1*
X5134448Y6653078D1*
X5115346Y6669393D1*
X5101615Y6685217D1*
X5087747Y6669393D1*
X5068645Y6653078D1*
X5047226Y6639952D1*
X5024017Y6630339D1*
X4999590Y6624474D1*
X4974547Y6622503D1*
X4949503Y6624474D1*
X4925076Y6630339D1*
X4901867Y6639952D1*
X4880448Y6653078D1*
X4861346Y6669393D1*
X4847615Y6685217D1*
X4833747Y6669393D1*
X4820622Y6657790D1*
X4820637Y6063544D1*
X4892056Y5992154D1*
X6356915Y5992204D1*
X6368337Y6009723D1*
X6378064Y6022061D1*
X6388728Y6033598D1*
X6400265Y6044263D1*
X6412603Y6053990D1*
X6433324Y6067006D1*
Y5717220D2*
X6412603Y5730237D1*
X6400265Y5739964D1*
X6388728Y5750628D1*
X6378064Y5762165D1*
X6368337Y5774503D1*
X6357120Y5792011D1*
X4842695Y5792332D1*
X4827182Y5794789D1*
X4812245Y5799642D1*
X4798251Y5806772D1*
X4785545Y5816004D1*
X4713777Y5887335D1*
X4644437Y5957111D1*
X4635206Y5969818D1*
X4628075Y5983812D1*
X4623222Y5998749D1*
X4620765Y6014262D1*
X4620456Y6115448D1*
Y6657675D1*
X4607346Y6669393D1*
X4593615Y6685217D1*
X4579747Y6669393D1*
X4566622Y6657790D1*
X4566637Y5811252D1*
X4638056Y5739770D1*
X5951429Y5739821D1*
X5963385Y5749668D1*
X5981567Y5760809D1*
X6001267Y5768969D1*
X6022002Y5773947D1*
X6043259Y5775620D1*
X6064517Y5773947D1*
X6085252Y5768969D1*
X6104952Y5760809D1*
X6123134Y5749668D1*
X6139348Y5735819D1*
X6153197Y5719604D1*
X6164338Y5701423D1*
X6172498Y5681723D1*
X6177476Y5660988D1*
X6179149Y5639730D1*
X6177476Y5618472D1*
X6172498Y5597738D1*
X6164338Y5578037D1*
X6162078Y5574001D1*
X6249532Y5573711D1*
X6265045Y5571254D1*
X6279982Y5566401D1*
X6293976Y5559270D1*
X6306683Y5550038D1*
X6317788Y5538933D1*
X6327020Y5526226D1*
X6330873Y5519341D1*
X6330123Y5542113D1*
X6330740Y5557812D1*
X6332587Y5573414D1*
X6335652Y5588823D1*
X6339916Y5603945D1*
X6345354Y5618684D1*
X6351932Y5632952D1*
X6359609Y5646660D1*
X6368337Y5659723D1*
X6378064Y5672061D1*
X6388728Y5683598D1*
X6400265Y5694263D1*
X6412603Y5703990D1*
X6433324Y5717006D1*
X6559137Y5344205D2*
X6530213Y5342023D1*
X6514514Y5342640D1*
X6498912Y5344487D1*
X6483503Y5347552D1*
X6468382Y5351816D1*
X6453642Y5357254D1*
X6439374Y5363832D1*
X6425667Y5371509D1*
X6412603Y5380237D1*
X6400265Y5389964D1*
X6388728Y5400628D1*
X6378064Y5412165D1*
X6368337Y5424503D1*
X6359609Y5437567D1*
X6351932Y5451274D1*
X6341764Y5475273D1*
X6341770Y5321260D1*
X6351616Y5309204D1*
X6362758Y5291022D1*
X6370918Y5271322D1*
X6375896Y5250588D1*
X6377569Y5229330D1*
X6375896Y5208072D1*
X6370918Y5187337D1*
X6362758Y5167637D1*
X6359194Y5161273D1*
X6378367Y5163389D1*
X6559083Y5344123D1*
X5599790Y6942683D2*
X5896637D1*
Y6921446D1*
X5914440Y6931962D1*
X5938743Y6942028D1*
X5964322Y6948169D1*
X5990547Y6950233D1*
X6016771Y6948169D1*
X6042350Y6942028D1*
X6066654Y6931962D1*
X6070108Y6930027D1*
X6071663Y6944978D1*
X6076641Y6965713D1*
X6084802Y6985413D1*
X6095225Y7002520D1*
X5539547Y7002819D1*
X5524034Y7005275D1*
X5509097Y7010129D1*
X5495103Y7017259D1*
X5482397Y7026491D1*
X5410629Y7097822D1*
X5301773Y7206678D1*
X5281301Y7202373D1*
X5265699Y7200527D1*
X5250000Y7199910D1*
X5234301Y7200527D1*
X5218699Y7202373D1*
X5203290Y7205439D1*
X5188169Y7209703D1*
X5173429Y7215141D1*
X5159161Y7221719D1*
X5145453Y7229395D1*
X5132390Y7238124D1*
X5120052Y7247850D1*
X5108515Y7258515D1*
X5097850Y7270052D1*
X5088124Y7282390D1*
X5075107Y7303110D1*
X5061876Y7282390D1*
X5052150Y7270052D1*
X5041485Y7258515D1*
X5029948Y7247850D1*
X5017610Y7238124D1*
X5000102Y7226906D1*
X5000090Y7088555D1*
X5050656Y7037604D1*
X5059887Y7024897D1*
X5067018Y7010903D1*
X5071871Y6995966D1*
X5074328Y6980453D1*
X5074637Y6907613D1*
X5087747Y6895794D1*
X5101478Y6879970D1*
X5115346Y6895794D1*
X5134448Y6912109D1*
X5155867Y6925235D1*
X5179076Y6934848D1*
X5203503Y6940712D1*
X5228547Y6942683D1*
X5253590Y6940712D1*
X5278017Y6934848D1*
X5301226Y6925235D1*
X5322645Y6912109D1*
X5341747Y6895794D1*
X5355478Y6879970D1*
X5369346Y6895794D1*
X5388448Y6912109D1*
X5409867Y6925235D1*
X5433076Y6934848D1*
X5457503Y6940712D1*
X5482547Y6942683D1*
X5507590Y6940712D1*
X5532017Y6934848D1*
X5555226Y6925235D1*
X5576441Y6912245D1*
X5576457Y6942683D1*
X5599790D1*
X4847615Y6879970D2*
X4861346Y6895794D1*
X4874471Y6907397D1*
X4874457Y6931070D1*
X4823891Y6982144D1*
X4814659Y6994850D1*
X4807529Y7008844D1*
X4802675Y7023782D1*
X4800219Y7039294D1*
X4799910Y7140480D1*
Y7226796D1*
X4782390Y7238124D1*
X4770052Y7247850D1*
X4758515Y7258515D1*
X4747850Y7270052D1*
X4738124Y7282390D1*
X4725107Y7303110D1*
X4711876Y7282390D1*
X4702150Y7270052D1*
X4691485Y7258515D1*
X4679948Y7247850D1*
X4667610Y7238124D1*
X4654547Y7229395D1*
X4640839Y7221719D1*
X4626571Y7215141D1*
X4611831Y7209703D1*
X4596710Y7205439D1*
X4581301Y7202373D1*
X4565699Y7200527D1*
X4550000Y7199910D1*
X4534301Y7200527D1*
X4518699Y7202373D1*
X4503290Y7205439D1*
X4488169Y7209703D1*
X4473429Y7215141D1*
X4459161Y7221719D1*
X4445453Y7229395D1*
X4432390Y7238124D1*
X4420052Y7247850D1*
X4408515Y7258515D1*
X4397850Y7270052D1*
X4388124Y7282390D1*
X4375107Y7303110D1*
X4361876Y7282390D1*
X4352150Y7270052D1*
X4341485Y7258515D1*
X4329948Y7247850D1*
X4317610Y7238124D1*
X4300102Y7226906D1*
X4299782Y7094748D1*
X4297325Y7079235D1*
X4292471Y7064298D1*
X4285341Y7050304D1*
X4276109Y7037598D1*
X4204778Y6965830D1*
X4177773Y6938825D1*
X4199986Y6942190D1*
X4225107D1*
X4249919Y6938260D1*
X4273810Y6930497D1*
X4296193Y6919092D1*
X4316517Y6904327D1*
X4334280Y6886563D1*
X4339478Y6879970D1*
X4353346Y6895794D1*
X4372448Y6912109D1*
X4393867Y6925235D1*
X4417076Y6934848D1*
X4441503Y6940712D1*
X4466547Y6942683D1*
X4491590Y6940712D1*
X4516017Y6934848D1*
X4539226Y6925235D1*
X4560645Y6912109D1*
X4579747Y6895794D1*
X4593478Y6879970D1*
X4607346Y6895794D1*
X4626448Y6912109D1*
X4647867Y6925235D1*
X4671076Y6934848D1*
X4695503Y6940712D1*
X4720547Y6942683D1*
X4745590Y6940712D1*
X4770017Y6934848D1*
X4793226Y6925235D1*
X4814645Y6912109D1*
X4833747Y6895794D1*
X4847478Y6879970D1*
X2815615D2*
X2829346Y6895794D1*
X2843011Y6907823D1*
X2845222Y6920965D1*
X2850076Y6935902D1*
X2857206Y6949896D1*
X2866438Y6962602D1*
X2905866Y7002467D1*
X2860065Y7002510D1*
X2788588Y6931090D1*
X2788637Y6907611D1*
X2801747Y6895794D1*
X2815478Y6879970D1*
X2561615D2*
X2575346Y6895794D1*
X2588471Y6907397D1*
X2588765Y6980451D1*
X2591222Y6995963D1*
X2596075Y7010901D1*
X2603206Y7024895D1*
X2612437Y7037601D1*
X2683769Y7109369D1*
X2753546Y7178709D1*
X2766252Y7187941D1*
X2780246Y7195071D1*
X2795183Y7199925D1*
X2810696Y7202382D1*
X2911882Y7202690D1*
X3299890D1*
X3299910Y7299896D1*
X2605951Y7299910D1*
X2534587Y7228490D1*
X2534637Y6907512D1*
X2547747Y6895794D1*
X2561478Y6879970D1*
X2307615D2*
X2321346Y6895794D1*
X2334471Y6907397D1*
X2334765Y7277852D1*
X2337222Y7293364D1*
X2342075Y7308301D1*
X2349206Y7322296D1*
X2358437Y7335002D1*
X2429769Y7406770D1*
X2499545Y7476109D1*
X2512251Y7485341D1*
X2526245Y7492471D1*
X2541182Y7497325D1*
X2556695Y7499782D1*
X2657881Y7500090D1*
X3299821D1*
X3299910Y7529949D1*
X2352076Y7529921D1*
X2280588Y7458501D1*
X2280637Y6907469D1*
X2293747Y6895794D1*
X2307478Y6879970D1*
X2058418Y6886062D2*
X2076577Y6904327D1*
X2080471Y6907397D1*
X2080765Y7507861D1*
X2083222Y7523374D1*
X2088075Y7538311D1*
X2095206Y7552305D1*
X2104438Y7565012D1*
X2175769Y7636779D1*
X2198906Y7659917D1*
X1695154Y7659920D1*
X1623800Y7588501D1*
X1623851Y7027081D1*
X1633699Y7015124D1*
X1644840Y6996942D1*
X1653000Y6977242D1*
X1657978Y6956507D1*
X1659651Y6935250D1*
X1657978Y6913992D1*
X1653000Y6893257D1*
X1644840Y6873557D1*
X1633699Y6855375D1*
X1619850Y6839161D1*
X1603635Y6825312D1*
X1585454Y6814171D1*
X1565754Y6806011D1*
X1545019Y6801033D1*
X1523761Y6799360D1*
X1502503Y6801033D1*
X1481769Y6806011D1*
X1462068Y6814171D1*
X1443887Y6825312D1*
X1427672Y6839161D1*
X1423853Y6843293D1*
X1423850Y6738801D1*
X1495269Y6667300D1*
X1804764Y6667349D1*
X1790923Y6684057D1*
X1777178Y6706486D1*
X1767112Y6730790D1*
X1760971Y6756369D1*
X1758907Y6782593D1*
X1760971Y6808818D1*
X1767112Y6834397D1*
X1777178Y6858700D1*
X1790923Y6881130D1*
X1808007Y6901133D1*
X1828010Y6918217D1*
X1850440Y6931962D1*
X1874743Y6942028D1*
X1900322Y6948169D1*
X1926547Y6950233D1*
X1952771Y6948169D1*
X1978350Y6942028D1*
X2002654Y6931962D1*
X2025083Y6918217D1*
X2045086Y6901133D1*
X2058319Y6886016D1*
X3323478Y5161217D2*
X3309747Y5145393D1*
X3296622Y5133790D1*
X3295404Y5114282D1*
X3291738Y5099010D1*
X3285728Y5084499D1*
X3277521Y5071108D1*
X3267298Y5059144D1*
X3233227Y5025071D1*
X3533028Y5025031D1*
X3604500Y5096451D1*
X3604456Y5133607D1*
X3591346Y5145393D1*
X3577615Y5161217D1*
X3563747Y5145393D1*
X3544645Y5129078D1*
X3523226Y5115952D1*
X3500017Y5106339D1*
X3475590Y5100474D1*
X3450547Y5098503D1*
X3425503Y5100474D1*
X3401076Y5106339D1*
X3377867Y5115952D1*
X3356448Y5129078D1*
X3337346Y5145393D1*
X3323615Y5161217D1*
X4593478D2*
X4579747Y5145393D1*
X4566622Y5133790D1*
X4566328Y4771876D1*
X4563871Y4756364D1*
X4559018Y4741426D1*
X4551888Y4727432D1*
X4542656Y4714726D1*
X4471324Y4642958D1*
X4448187Y4619821D1*
X4549091Y4619820D1*
X4620508Y4691240D1*
X4620457Y5133623D1*
X4607346Y5145393D1*
X4593615Y5161217D1*
X4847478D2*
X4833747Y5145393D1*
X4820622Y5133790D1*
X4820328Y4641877D1*
X4817872Y4626364D1*
X4813018Y4611427D1*
X4805888Y4597432D1*
X4796656Y4584726D1*
X4725325Y4512958D1*
X4666365Y4453998D1*
X5411573Y4454014D1*
X5424348Y4470882D1*
X5433760Y4481063D1*
X5415917Y4502069D1*
X5401152Y4526164D1*
X5390338Y4552272D1*
X5383741Y4579751D1*
X5381523Y4607923D1*
X5383741Y4636096D1*
X5390338Y4663574D1*
X5401152Y4689682D1*
X5415917Y4713778D1*
X5434083Y4735063D1*
X5416244Y4756069D1*
X5412408Y4761810D1*
X5096697Y4762142D1*
X5081184Y4764599D1*
X5066247Y4769452D1*
X5052253Y4776582D1*
X5039546Y4785814D1*
X4967778Y4857146D1*
X4898437Y4926923D1*
X4889206Y4939629D1*
X4882075Y4953623D1*
X4877222Y4968561D1*
X4874765Y4984073D1*
X4874456Y5085260D1*
Y5133658D1*
X4861346Y5145393D1*
X4847615Y5161217D1*
X5101478D2*
X5087747Y5145393D1*
X5074622Y5133790D1*
X5074637Y5033372D1*
X5146056Y4961966D1*
X5412167Y4962014D1*
X5424998Y4978882D1*
X5444981Y4998865D1*
X5467843Y5015475D1*
X5493023Y5028305D1*
X5519899Y5037037D1*
X5547810Y5041458D1*
X5576070D1*
X5603981Y5037037D1*
X5630857Y5028305D1*
X5656037Y5015475D1*
X5678899Y4998865D1*
X5698882Y4978882D1*
X5711472Y4962037D1*
X6265312Y4962014D1*
X6258693Y4975727D1*
X6252104Y4996007D1*
X6248768Y5017068D1*
Y5038392D1*
X6252104Y5059453D1*
X6258693Y5079733D1*
X6266724Y5095787D1*
X6252341Y5093859D1*
X6231017D1*
X6209956Y5097194D1*
X6189676Y5103784D1*
X6170677Y5113464D1*
X6153426Y5125998D1*
X6138348Y5141076D1*
X6125427Y5159018D1*
X6109086Y5140054D1*
X6089083Y5122970D1*
X6066654Y5109225D1*
X6042350Y5099158D1*
X6016771Y5093017D1*
X5990547Y5090953D1*
X5964322Y5093017D1*
X5938743Y5099158D1*
X5914440Y5109225D1*
X5892010Y5122970D1*
X5872007Y5140054D1*
X5858775Y5155171D1*
X5840517Y5136860D1*
X5820193Y5122094D1*
X5797810Y5110689D1*
X5773919Y5102927D1*
X5749107Y5098997D1*
X5723986D1*
X5699174Y5102927D1*
X5675283Y5110689D1*
X5652900Y5122094D1*
X5632577Y5136860D1*
X5614813Y5154623D1*
X5609615Y5161217D1*
X5595747Y5145393D1*
X5576645Y5129078D1*
X5555226Y5115952D1*
X5532017Y5106339D1*
X5507590Y5100474D1*
X5482547Y5098503D1*
X5457503Y5100474D1*
X5433076Y5106339D1*
X5409867Y5115952D1*
X5388448Y5129078D1*
X5369346Y5145393D1*
X5355615Y5161217D1*
X5341747Y5145393D1*
X5322645Y5129078D1*
X5301226Y5115952D1*
X5278017Y5106339D1*
X5253590Y5100474D1*
X5228547Y5098503D1*
X5203503Y5100474D1*
X5179076Y5106339D1*
X5155867Y5115952D1*
X5134448Y5129078D1*
X5115346Y5145393D1*
X5101615Y5161217D1*
X5364581Y8387047D2*
X5360529Y8361461D1*
X5352523Y8336823D1*
X5351273Y8334110D1*
X5365801Y8334899D1*
X5387059Y8333226D1*
X5407793Y8328248D1*
X5427494Y8320088D1*
X5445675Y8308946D1*
X5457574Y8299087D1*
X5542897Y8299099D1*
X5542910Y8494949D1*
X5436513Y8494910D1*
X5363621Y8422072D1*
X5365090Y8400000D1*
X5364581Y8387047D1*
X5069480Y8299105D2*
X5059238Y8313741D1*
X5047477Y8336823D1*
X5039471Y8361461D1*
X5035419Y8387047D1*
Y8412953D1*
X5039471Y8438539D1*
X5047477Y8463177D1*
X5059238Y8486259D1*
X5074465Y8507217D1*
X5092783Y8525535D1*
X5113741Y8540762D1*
X5136823Y8552523D1*
X5161461Y8560529D1*
X5187047Y8564581D1*
X5212953D1*
X5221954Y8563516D1*
X5329996Y8671109D1*
X5342703Y8680341D1*
X5356697Y8687471D1*
X5371634Y8692325D1*
X5387147Y8694782D1*
X5488333Y8695090D1*
X5869744Y8694782D1*
X5885256Y8692325D1*
X5900194Y8687471D1*
X5914188Y8680341D1*
X5926894Y8671109D1*
X5985578Y8612861D1*
X6106982Y8612877D1*
X6124168Y8633058D1*
X6144464Y8650392D1*
X6167221Y8664338D1*
X6191879Y8674552D1*
X6217832Y8680783D1*
X6244440Y8682877D1*
X6271048Y8680783D1*
X6297001Y8674552D1*
X6321659Y8664338D1*
X6344416Y8650392D1*
X6364712Y8633058D1*
X6371405Y8625818D1*
X6387975Y8642124D1*
X6409568Y8657812D1*
X6433349Y8669929D1*
X6458733Y8678177D1*
X6485095Y8682352D1*
X6511785D1*
X6538147Y8678177D1*
X6563531Y8669929D1*
X6582350Y8660591D1*
Y8682876D1*
X6922530D1*
Y8342696D1*
X6582350D1*
Y8364845D1*
X6563531Y8355644D1*
X6538147Y8347396D1*
X6511785Y8343221D1*
X6485095D1*
X6458733Y8347396D1*
X6433349Y8355644D1*
X6409568Y8367761D1*
X6387975Y8383449D1*
X6371475Y8399755D1*
X6354905Y8383449D1*
X6344539Y8375278D1*
X6344530Y8236888D1*
X6891976Y7689386D1*
X6912917Y7692302D1*
X6941176D1*
X6969088Y7687881D1*
X6995964Y7679148D1*
X7021143Y7666319D1*
X7044006Y7649708D1*
X7063988Y7629726D1*
X7080599Y7606863D1*
X7093428Y7581684D1*
X7102161Y7554808D1*
X7106582Y7526896D1*
Y7498637D1*
X7102161Y7470725D1*
X7093428Y7443849D1*
X7080599Y7418670D1*
X7063988Y7395808D1*
X7044006Y7375825D1*
X7021143Y7359215D1*
X6995964Y7346385D1*
X6969088Y7337653D1*
X6941176Y7333232D1*
X6912917D1*
X6885005Y7337653D1*
X6858129Y7346385D1*
X6832950Y7359215D1*
X6810088Y7375825D1*
X6790105Y7395808D1*
X6773495Y7418670D1*
X6760665Y7443849D1*
X6751933Y7470725D1*
X6747512Y7498637D1*
Y7526896D1*
X6750521Y7547711D1*
X6168331Y8130370D1*
X6159099Y8143076D1*
X6151969Y8157071D1*
X6147116Y8172008D1*
X6144659Y8187520D1*
X6144350Y8288707D1*
Y8375204D1*
X6124168Y8392515D1*
X6106931Y8412687D1*
X5936251Y8413005D1*
X5920738Y8415462D1*
X5905801Y8420316D1*
X5891807Y8427446D1*
X5879101Y8436678D1*
X5873309Y8442035D1*
X5873090Y8234910D1*
X5808103D1*
X5807782Y8191156D1*
X5805325Y8175643D1*
X5800471Y8160706D1*
X5793341Y8146712D1*
X5784109Y8134005D1*
X5773003Y8122900D1*
X5760297Y8113668D1*
X5746303Y8106537D1*
X5731366Y8101684D1*
X5715853Y8099227D1*
X5614667Y8098918D1*
X5457805D1*
X5445675Y8089072D1*
X5427494Y8077930D1*
X5407793Y8069770D1*
X5387059Y8064792D1*
X5365801Y8063119D1*
X5344543Y8064792D1*
X5323808Y8069770D1*
X5304108Y8077930D1*
X5285927Y8089072D1*
X5274028Y8098931D1*
X4712012Y8098919D1*
X4565767Y7952609D1*
X4564226Y7937142D1*
X4559248Y7916407D1*
X4551088Y7896707D1*
X4539946Y7878526D1*
X4526098Y7862311D1*
X4509883Y7848462D1*
X4491702Y7837321D1*
X4472001Y7829161D1*
X4451267Y7824183D1*
X4430009Y7822510D1*
X4408751Y7824183D1*
X4388017Y7829161D1*
X4368316Y7837321D1*
X4350135Y7848462D1*
X4333920Y7862311D1*
X4320072Y7878526D1*
X4308930Y7896707D1*
X4300770Y7916407D1*
X4295792Y7937142D1*
X4294119Y7958400D1*
X4295792Y7979658D1*
X4300770Y8000392D1*
X4308930Y8020092D1*
X4320072Y8038274D1*
X4333920Y8054488D1*
X4350135Y8068337D1*
X4368316Y8079479D1*
X4388017Y8087639D1*
X4408751Y8092617D1*
X4424137Y8094059D1*
X4605615Y8275118D1*
X4618321Y8284350D1*
X4632315Y8291480D1*
X4647252Y8296333D1*
X4662765Y8298790D1*
X4763951Y8299099D1*
X5069381D1*
X1177004Y1444636D2*
X1493850D1*
Y1422488D1*
X1512669Y1431689D1*
X1538053Y1439937D1*
X1564415Y1444112D1*
X1591105D1*
X1617467Y1439937D1*
X1642851Y1431689D1*
X1666632Y1419572D1*
X1688225Y1403884D1*
X1704725Y1387578D1*
X1721295Y1403884D1*
X1742888Y1419572D1*
X1766669Y1431689D1*
X1792053Y1439937D1*
X1818415Y1444112D1*
X1845105D1*
X1871467Y1439937D1*
X1896851Y1431689D1*
X1920632Y1419572D1*
X1942225Y1403884D1*
X1961097Y1385011D1*
X1962938Y1382676D1*
X1970484Y1394099D1*
X1986799Y1413201D1*
X2005901Y1429516D1*
X2027321Y1442641D1*
X2050529Y1452255D1*
X2074956Y1458119D1*
X2100000Y1460090D1*
X2125044Y1458119D1*
X2146966Y1452961D1*
X2141881Y1474956D1*
X2139910Y1500000D1*
X2141881Y1525044D1*
X2147745Y1549471D1*
X2157359Y1572679D1*
X2170484Y1594099D1*
X2186799Y1613201D1*
X2205901Y1629516D1*
X2227321Y1642641D1*
X2250529Y1652255D1*
X2274956Y1658119D1*
X2300000Y1660090D1*
X2325044Y1658119D1*
X2349471Y1652255D1*
X2372679Y1642641D1*
X2394099Y1629516D1*
X2399921Y1624925D1*
X2416353Y1636499D1*
X2438736Y1647904D1*
X2462628Y1655667D1*
X2487439Y1659596D1*
X2512561D1*
X2537372Y1655667D1*
X2561264Y1647904D1*
X2583647Y1636499D1*
X2599921Y1624925D1*
X2616353Y1636499D1*
X2638736Y1647904D1*
X2662628Y1655667D1*
X2687439Y1659596D1*
X2712561D1*
X2737372Y1655667D1*
X2761264Y1647904D1*
X2783647Y1636499D1*
X2799921Y1624925D1*
X2816353Y1636499D1*
X2838736Y1647904D1*
X2862628Y1655667D1*
X2887439Y1659596D1*
X2912561D1*
X2937372Y1655667D1*
X2961264Y1647904D1*
X2983647Y1636499D1*
X2999921Y1624925D1*
X3016353Y1636499D1*
X3038736Y1647904D1*
X3062628Y1655667D1*
X3087439Y1659596D1*
X3112561D1*
X3137372Y1655667D1*
X3161264Y1647904D1*
X3183647Y1636499D1*
X3203970Y1621733D1*
X3221733Y1603970D1*
X3236499Y1583647D1*
X3239930Y1577520D1*
X3547384Y1577496D1*
Y1547145D1*
X3568614Y1560048D1*
X3591823Y1569661D1*
X3616250Y1575526D1*
X3641293Y1577497D1*
X3666337Y1575526D1*
X3690764Y1569661D1*
X3713973Y1560048D1*
X3735392Y1546922D1*
X3754494Y1530607D1*
X3770809Y1511505D1*
X3783935Y1490086D1*
X3793548Y1466877D1*
X3799412Y1442450D1*
X3801383Y1417407D1*
X3799412Y1392363D1*
X3793548Y1367936D1*
X3783935Y1344727D1*
X3770809Y1323308D1*
X3754494Y1304206D1*
X3735392Y1287891D1*
X3713973Y1274765D1*
X3690764Y1265152D1*
X3666337Y1259288D1*
X3641293Y1257317D1*
X3616250Y1259288D1*
X3591823Y1265152D1*
X3568614Y1274765D1*
X3547399Y1287755D1*
X3547384Y1257316D1*
X3254350D1*
X3247904Y1238736D1*
X3236499Y1216353D1*
X3224925Y1200079D1*
X3236499Y1183647D1*
X3247904Y1161264D1*
X3255667Y1137372D1*
X3259596Y1112561D1*
Y1087439D1*
X3255667Y1062628D1*
X3247904Y1038736D1*
X3244676Y1031735D1*
X4355169Y1031750D1*
X4347745Y1050529D1*
X4341881Y1074956D1*
X4339910Y1100000D1*
X4341881Y1125044D1*
X4347745Y1149471D1*
X4357359Y1172679D1*
X4370484Y1194099D1*
X4375075Y1199921D1*
X4363501Y1216353D1*
X4352096Y1238736D1*
X4344333Y1262628D1*
X4340404Y1287439D1*
Y1312561D1*
X4344333Y1337372D1*
X4352096Y1361264D1*
X4363501Y1383647D1*
X4378267Y1403970D1*
X4396030Y1421733D1*
X4416353Y1436499D1*
X4438736Y1447904D1*
X4462628Y1455667D1*
X4487439Y1459596D1*
X4512561D1*
X4537372Y1455667D1*
X4561264Y1447904D1*
X4583647Y1436499D1*
X4599921Y1424925D1*
X4616353Y1436499D1*
X4638736Y1447904D1*
X4662628Y1455667D1*
X4687439Y1459596D1*
X4712561D1*
X4737372Y1455667D1*
X4761264Y1447904D1*
X4783647Y1436499D1*
X4799921Y1424925D1*
X4816353Y1436499D1*
X4838736Y1447904D1*
X4862628Y1455667D1*
X4887439Y1459596D1*
X4912561D1*
X4937372Y1455667D1*
X4961264Y1447904D1*
X4983647Y1436499D1*
X4999921Y1424925D1*
X5016353Y1436499D1*
X5038736Y1447904D1*
X5062628Y1455667D1*
X5087439Y1459596D1*
X5112561D1*
X5137372Y1455667D1*
X5161264Y1447904D1*
X5183647Y1436499D1*
X5199921Y1424925D1*
X5216353Y1436499D1*
X5238736Y1447904D1*
X5262628Y1455667D1*
X5287439Y1459596D1*
X5312561D1*
X5337372Y1455667D1*
X5361264Y1447904D1*
X5383647Y1436499D1*
X5399921Y1424925D1*
X5416353Y1436499D1*
X5438736Y1447904D1*
X5462628Y1455667D1*
X5487439Y1459596D1*
X5512561D1*
X5537372Y1455667D1*
X5561264Y1447904D1*
X5583647Y1436499D1*
X5599921Y1424925D1*
X5616353Y1436499D1*
X5638736Y1447904D1*
X5662628Y1455667D1*
X5687439Y1459596D1*
X5712561D1*
X5737372Y1455667D1*
X5761264Y1447904D1*
X5783647Y1436499D1*
X5799921Y1424925D1*
X5816353Y1436499D1*
X5838736Y1447904D1*
X5862628Y1455667D1*
X5887439Y1459596D1*
X5912561D1*
X5937372Y1455667D1*
X5961264Y1447904D1*
X5983647Y1436499D1*
X6003970Y1421733D1*
X6021733Y1403970D1*
X6036499Y1383647D1*
X6047904Y1361264D1*
X6055667Y1337372D1*
X6059596Y1312561D1*
Y1287439D1*
X6055667Y1262628D1*
X6047904Y1238736D1*
X6036499Y1216353D1*
X6024925Y1200079D1*
X6036499Y1183647D1*
X6047904Y1161264D1*
X6055667Y1137372D1*
X6059596Y1112561D1*
Y1087439D1*
X6055667Y1062628D1*
X6047904Y1038736D1*
X6044676Y1031735D1*
X7268190Y1031750D1*
X7268250Y8868164D1*
X1031810Y8868250D1*
X1031750Y1031836D1*
X1955117Y1031750D1*
X1947745Y1050529D1*
X1941881Y1074956D1*
X1939910Y1100000D1*
X1941881Y1125044D1*
X1947745Y1149471D1*
X1948136Y1150530D1*
X1931736Y1136941D1*
X1908979Y1122995D1*
X1884321Y1112781D1*
X1858368Y1106551D1*
X1831760Y1104457D1*
X1805152Y1106551D1*
X1779199Y1112781D1*
X1754541Y1122995D1*
X1731784Y1136941D1*
X1711488Y1154275D1*
X1704795Y1161515D1*
X1688225Y1145209D1*
X1666632Y1129521D1*
X1642851Y1117404D1*
X1617467Y1109156D1*
X1591105Y1104981D1*
X1564415D1*
X1538053Y1109156D1*
X1512669Y1117404D1*
X1493850Y1126743D1*
Y1104456D1*
X1153670D1*
Y1444636D1*
X1177004D1*
X1493850Y8348995D2*
Y8326823D1*
X1423759D1*
X1423980Y7637864D1*
X1426437Y7653376D1*
X1431290Y7668314D1*
X1438420Y7682308D1*
X1447652Y7695014D1*
X1518983Y7766782D1*
X1588758Y7836120D1*
X1601464Y7845351D1*
X1615458Y7852482D1*
X1630395Y7857335D1*
X1645908Y7859792D1*
X1756300Y7860101D1*
X1746419Y7873512D1*
X1739289Y7887506D1*
X1734435Y7902443D1*
X1731979Y7917956D1*
X1731670Y8019142D1*
Y8359390D1*
X1711488Y8376642D1*
X1704795Y8383882D1*
X1688225Y8367576D1*
X1666632Y8351888D1*
X1642851Y8339771D1*
X1617467Y8331523D1*
X1591105Y8327348D1*
X1564415D1*
X1538053Y8331523D1*
X1512669Y8339771D1*
X1493850Y8349109D1*
X3838419Y3364953D2*
X3825828Y3348108D1*
X3821291Y3343200D1*
X4898306Y3343239D1*
X4969770Y3414658D1*
X4969723Y3442332D1*
X4952854Y3455112D1*
X4942836Y3464373D1*
X4921668Y3446357D1*
X4897572Y3431592D1*
X4871464Y3420778D1*
X4843986Y3414181D1*
X4815813Y3411963D1*
X4787641Y3414181D1*
X4760162Y3420778D1*
X4734054Y3431592D1*
X4709959Y3446357D1*
X4688470Y3464710D1*
X4670117Y3486199D1*
X4666281Y3491940D1*
X4476113Y3491963D1*
X4372697Y3388957D1*
X4359990Y3379726D1*
X4345996Y3372595D1*
X4331059Y3367742D1*
X4315546Y3365285D1*
X4214360Y3364976D1*
X3838566D1*
X3831402Y3574955D2*
X3838419Y3565180D1*
X4266296Y3565157D1*
X4369677Y3668163D1*
X4382383Y3677394D1*
X4396377Y3684525D1*
X4411314Y3689378D1*
X4426827Y3691835D1*
X4528013Y3692144D1*
X4666099D1*
X4673298Y3701942D1*
X4151626Y3701970D1*
X4048264Y3598962D1*
X4035558Y3589730D1*
X4021564Y3582599D1*
X4006627Y3577746D1*
X3991114Y3575289D1*
X3889928Y3574981D1*
X3831503D1*
X3051932Y3582729D2*
X3063928Y3594072D1*
X3085274Y3609669D1*
X3091706Y3625511D1*
X3099912Y3638903D1*
X3110112Y3650846D1*
X3199202Y3739935D1*
X3174956Y3741881D1*
X3150529Y3747745D1*
X3127321Y3757359D1*
X3105901Y3770484D1*
X3100079Y3775075D1*
X3083647Y3763501D1*
X3061264Y3752096D1*
X3037372Y3744333D1*
X3012561Y3740404D1*
X2987439D1*
X2962628Y3744333D1*
X2938736Y3752096D1*
X2916353Y3763501D1*
X2896030Y3778267D1*
X2878267Y3796030D1*
X2863501Y3816353D1*
X2852096Y3838736D1*
X2844333Y3862628D1*
X2840404Y3887439D1*
Y3912561D1*
X2844333Y3937372D1*
X2847039Y3946966D1*
X2825044Y3941881D1*
X2800000Y3939910D1*
X2774956Y3941881D1*
X2753034Y3947039D1*
X2758119Y3925044D1*
X2760090Y3900000D1*
X2758119Y3874956D1*
X2752255Y3850529D1*
X2742641Y3827321D1*
X2729516Y3805901D1*
X2713201Y3786799D1*
X2694099Y3770484D1*
X2672679Y3757359D1*
X2649471Y3747745D1*
X2625044Y3741881D1*
X2600000Y3739910D1*
X2574956Y3741881D1*
X2550529Y3747745D1*
X2527321Y3757359D1*
X2505901Y3770484D1*
X2500079Y3775075D1*
X2483647Y3763501D1*
X2461264Y3752096D1*
X2437372Y3744333D1*
X2412561Y3740404D1*
X2387439D1*
X2362628Y3744333D1*
X2338736Y3752096D1*
X2316353Y3763501D1*
X2300079Y3775075D1*
X2283647Y3763501D1*
X2261264Y3752096D1*
X2237372Y3744333D1*
X2212561Y3740404D1*
X2187439D1*
X2162628Y3744333D1*
X2138736Y3752096D1*
X2116353Y3763501D1*
X2100079Y3775075D1*
X2083647Y3763501D1*
X2061264Y3752096D1*
X2037372Y3744333D1*
X2012561Y3740404D1*
X1987439D1*
X1962628Y3744333D1*
X1938736Y3752096D1*
X1916353Y3763501D1*
X1900079Y3775075D1*
X1883647Y3763501D1*
X1861264Y3752096D1*
X1837372Y3744333D1*
X1812561Y3740404D1*
X1787439D1*
X1762628Y3744333D1*
X1753034Y3747039D1*
X1758119Y3725044D1*
X1760090Y3700000D1*
X1758119Y3674956D1*
X1752255Y3650529D1*
X1742641Y3627321D1*
X1729516Y3605901D1*
X1724925Y3600079D1*
X1736499Y3583647D1*
X1747904Y3561264D1*
X1755667Y3537372D1*
X1757335Y3531383D1*
X1773945Y3554246D1*
X1793928Y3574228D1*
X1816790Y3590839D1*
X1841969Y3603668D1*
X1868845Y3612401D1*
X1896757Y3616822D1*
X1925016D1*
X1952928Y3612401D1*
X1979804Y3603668D1*
X2004983Y3590839D1*
X2027846Y3574228D1*
X2035836Y3566842D1*
X2047928Y3578195D1*
X2070790Y3594805D1*
X2095969Y3607635D1*
X2122845Y3616367D1*
X2150757Y3620788D1*
X2179016D1*
X2206928Y3616367D1*
X2233804Y3607635D1*
X2258983Y3594805D1*
X2281846Y3578195D1*
X2289836Y3570808D1*
X2301928Y3582165D1*
X2324790Y3598775D1*
X2349969Y3611605D1*
X2376845Y3620337D1*
X2404757Y3624758D1*
X2433016D1*
X2460928Y3620337D1*
X2487804Y3611605D1*
X2512983Y3598775D1*
X2535846Y3582165D1*
X2543836Y3574778D1*
X2555928Y3586135D1*
X2578790Y3602745D1*
X2603969Y3615575D1*
X2630845Y3624307D1*
X2658757Y3628728D1*
X2687016D1*
X2714928Y3624307D1*
X2741804Y3615575D1*
X2766983Y3602745D1*
X2789846Y3586135D1*
X2797836Y3578748D1*
X2809928Y3590102D1*
X2832790Y3606712D1*
X2857969Y3619541D1*
X2884845Y3628274D1*
X2912757Y3632695D1*
X2941016D1*
X2968928Y3628274D1*
X2995804Y3619541D1*
X3020983Y3606712D1*
X3043846Y3590102D1*
X3051836Y3582715D1*
X1759596Y3287439D2*
X1755667Y3262628D1*
X1747904Y3238736D1*
X1736499Y3216353D1*
X1724925Y3200079D1*
X1736499Y3183647D1*
X1747904Y3161264D1*
X1755667Y3137372D1*
X1759596Y3112561D1*
Y3087439D1*
X1755667Y3062628D1*
X1747904Y3038736D1*
X1736499Y3016353D1*
X1724925Y3000079D1*
X1736499Y2983647D1*
X1747904Y2961264D1*
X1755667Y2937372D1*
X1759596Y2912561D1*
Y2887439D1*
X1755667Y2862628D1*
X1747904Y2838736D1*
X1736499Y2816353D1*
X1724925Y2800079D1*
X1728428Y2798264D1*
X1743506Y2813342D1*
X1760757Y2825876D1*
X1779756Y2835556D1*
X1800036Y2842146D1*
X1821097Y2845481D1*
X1842421D1*
X1863482Y2842146D1*
X1883762Y2835556D1*
X1902761Y2825876D1*
X1920013Y2813342D1*
X1923532Y2810088D1*
X3088934Y2810101D1*
X3101006Y2819948D1*
X3119187Y2831089D1*
X3138888Y2839249D1*
X3159622Y2844227D1*
X3180880Y2845900D1*
X3202138Y2844227D1*
X3222872Y2839249D1*
X3242573Y2831089D1*
X3260754Y2819948D1*
X3276969Y2806099D1*
X3290817Y2789885D1*
X3301959Y2771703D1*
X3310119Y2752003D1*
X3315097Y2731268D1*
X3316770Y2710010D1*
X3315097Y2688753D1*
X3310119Y2668018D1*
X3301959Y2648318D1*
X3290817Y2630136D1*
X3276969Y2613922D1*
X3260754Y2600073D1*
X3242573Y2588932D1*
X3222872Y2580771D1*
X3202138Y2575793D1*
X3180880Y2574120D1*
X3159622Y2575793D1*
X3138888Y2580771D1*
X3119187Y2588932D1*
X3101006Y2600073D1*
X3089107Y2609932D1*
X1923706Y2609920D1*
X1911633Y2600073D1*
X1893452Y2588932D1*
X1873751Y2580771D1*
X1853017Y2575793D1*
X1831759Y2574120D1*
X1810501Y2575793D1*
X1789767Y2580771D1*
X1770066Y2588932D1*
X1751885Y2600073D1*
X1735246Y2614381D1*
X1724925Y2600079D1*
X1736499Y2583647D1*
X1747904Y2561264D1*
X1755667Y2537372D1*
X1759596Y2512561D1*
Y2487439D1*
X1755667Y2462628D1*
X1747904Y2438736D1*
X1736499Y2416353D1*
X1724925Y2400079D1*
X1736499Y2383647D1*
X1747904Y2361264D1*
X1755667Y2337372D1*
X1759596Y2312561D1*
Y2287439D1*
X1755667Y2262628D1*
X1747904Y2238736D1*
X1736499Y2216353D1*
X1724925Y2200079D1*
X1736499Y2183647D1*
X1747904Y2161264D1*
X1755667Y2137372D1*
X1759596Y2112561D1*
Y2087439D1*
X1755667Y2062628D1*
X1747904Y2038736D1*
X1736499Y2016353D1*
X1721733Y1996030D1*
X1703970Y1978267D1*
X1683647Y1963501D1*
X1661264Y1952096D1*
X1637372Y1944333D1*
X1612561Y1940404D1*
X1587439D1*
X1562628Y1944333D1*
X1538736Y1952096D1*
X1516353Y1963501D1*
X1500079Y1975075D1*
X1483647Y1963501D1*
X1461264Y1952096D1*
X1437372Y1944333D1*
X1412561Y1940404D1*
X1387439D1*
X1362628Y1944333D1*
X1338736Y1952096D1*
X1316353Y1963501D1*
X1296030Y1978267D1*
X1278267Y1996030D1*
X1263501Y2016353D1*
X1252096Y2038736D1*
X1244333Y2062628D1*
X1240404Y2087439D1*
Y2112561D1*
X1244333Y2137372D1*
X1252096Y2161264D1*
X1263501Y2183647D1*
X1275075Y2199921D1*
X1263501Y2216353D1*
X1252096Y2238736D1*
X1244333Y2262628D1*
X1240404Y2287439D1*
Y2312561D1*
X1244333Y2337372D1*
X1252096Y2361264D1*
X1263501Y2383647D1*
X1275075Y2399921D1*
X1263501Y2416353D1*
X1252096Y2438736D1*
X1244333Y2462628D1*
X1240404Y2487439D1*
Y2512561D1*
X1244333Y2537372D1*
X1252096Y2561264D1*
X1263501Y2583647D1*
X1275075Y2599921D1*
X1263501Y2616353D1*
X1252096Y2638736D1*
X1244333Y2662628D1*
X1240404Y2687439D1*
Y2712561D1*
X1244333Y2737372D1*
X1252096Y2761264D1*
X1263501Y2783647D1*
X1275075Y2799921D1*
X1263501Y2816353D1*
X1252096Y2838736D1*
X1244333Y2862628D1*
X1240404Y2887439D1*
Y2912561D1*
X1244333Y2937372D1*
X1252096Y2961264D1*
X1263501Y2983647D1*
X1275075Y2999921D1*
X1263501Y3016353D1*
X1252096Y3038736D1*
X1244333Y3062628D1*
X1240404Y3087439D1*
Y3112561D1*
X1244333Y3137372D1*
X1252096Y3161264D1*
X1263501Y3183647D1*
X1275075Y3199921D1*
X1263501Y3216353D1*
X1252096Y3238736D1*
X1244333Y3262628D1*
X1240404Y3287439D1*
Y3312561D1*
X1244333Y3337372D1*
X1252096Y3361264D1*
X1263501Y3383647D1*
X1275075Y3399921D1*
X1263501Y3416353D1*
X1252096Y3438736D1*
X1244333Y3462628D1*
X1240404Y3487439D1*
Y3512561D1*
X1244333Y3537372D1*
X1252096Y3561264D1*
X1263501Y3583647D1*
X1275075Y3599921D1*
X1263501Y3616353D1*
X1252096Y3638736D1*
X1244333Y3662628D1*
X1240404Y3687439D1*
Y3712561D1*
X1244333Y3737372D1*
X1252096Y3761264D1*
X1263501Y3783647D1*
X1275075Y3799921D1*
X1263501Y3816353D1*
X1252096Y3838736D1*
X1244333Y3862628D1*
X1240404Y3887439D1*
Y3912561D1*
X1244333Y3937372D1*
X1252096Y3961264D1*
X1263501Y3983647D1*
X1275075Y3999921D1*
X1263501Y4016353D1*
X1252096Y4038736D1*
X1244333Y4062628D1*
X1240404Y4087439D1*
Y4112561D1*
X1244333Y4137372D1*
X1252096Y4161264D1*
X1263501Y4183647D1*
X1275075Y4199921D1*
X1263501Y4216353D1*
X1252096Y4238736D1*
X1244333Y4262628D1*
X1240404Y4287439D1*
Y4312561D1*
X1244333Y4337372D1*
X1252096Y4361264D1*
X1263501Y4383647D1*
X1275075Y4399921D1*
X1263501Y4416353D1*
X1252096Y4438736D1*
X1244333Y4462628D1*
X1240404Y4487439D1*
Y4512561D1*
X1244333Y4537372D1*
X1252096Y4561264D1*
X1263501Y4583647D1*
X1275075Y4599921D1*
X1263501Y4616353D1*
X1252096Y4638736D1*
X1244333Y4662628D1*
X1240404Y4687439D1*
Y4712561D1*
X1244333Y4737372D1*
X1252096Y4761264D1*
X1263501Y4783647D1*
X1275075Y4799921D1*
X1263501Y4816353D1*
X1252096Y4838736D1*
X1244333Y4862628D1*
X1240404Y4887439D1*
Y4912561D1*
X1244333Y4937372D1*
X1252096Y4961264D1*
X1263501Y4983647D1*
X1275075Y4999921D1*
X1263501Y5016353D1*
X1252096Y5038736D1*
X1244333Y5062628D1*
X1240404Y5087439D1*
Y5112561D1*
X1244333Y5137372D1*
X1252096Y5161264D1*
X1263501Y5183647D1*
X1275075Y5199921D1*
X1263501Y5216353D1*
X1252096Y5238736D1*
X1244333Y5262628D1*
X1240404Y5287439D1*
Y5312561D1*
X1244333Y5337372D1*
X1252096Y5361264D1*
X1263501Y5383647D1*
X1278267Y5403970D1*
X1296030Y5421733D1*
X1316353Y5436499D1*
X1338736Y5447904D1*
X1362628Y5455667D1*
X1387439Y5459596D1*
X1412561D1*
X1437372Y5455667D1*
X1461264Y5447904D1*
X1483647Y5436499D1*
X1503970Y5421733D1*
X1521733Y5403970D1*
X1536499Y5383647D1*
X1547904Y5361264D1*
X1555667Y5337372D1*
X1559596Y5312561D1*
Y5287439D1*
X1555667Y5262628D1*
X1552961Y5253034D1*
X1574956Y5258119D1*
X1600000Y5260090D1*
X1625044Y5258119D1*
X1649471Y5252255D1*
X1672679Y5242641D1*
X1694099Y5229516D1*
X1713201Y5213201D1*
X1729516Y5194099D1*
X1742641Y5172679D1*
X1752255Y5149471D1*
X1758119Y5125044D1*
X1760090Y5100000D1*
X1758119Y5074956D1*
X1752961Y5053034D1*
X1774956Y5058119D1*
X1800000Y5060090D1*
X1825044Y5058119D1*
X1849471Y5052255D1*
X1872679Y5042641D1*
X1894099Y5029516D1*
X1913201Y5013201D1*
X1929516Y4994099D1*
X1942641Y4972679D1*
X1952255Y4949471D1*
X1958119Y4925044D1*
X1960090Y4900000D1*
X1958119Y4874956D1*
X1952961Y4853034D1*
X1974956Y4858119D1*
X2000000Y4860090D1*
X2025044Y4858119D1*
X2049471Y4852255D1*
X2068450Y4844726D1*
Y4895023D1*
X2382510D1*
X2382759Y4932794D1*
X2385215Y4948307D1*
X2390069Y4963244D1*
X2397199Y4977238D1*
X2406431Y4989944D1*
X2477762Y5061712D1*
X2547537Y5131050D1*
X2560243Y5140282D1*
X2567128Y5144135D1*
X2566813Y5154623D1*
X2561615Y5161217D1*
X2547747Y5145393D1*
X2528645Y5129078D1*
X2507226Y5115952D1*
X2484017Y5106339D1*
X2459590Y5100474D1*
X2434547Y5098503D1*
X2409503Y5100474D1*
X2385076Y5106339D1*
X2361867Y5115952D1*
X2340448Y5129078D1*
X2321346Y5145393D1*
X2307615Y5161217D1*
X2293747Y5145393D1*
X2274645Y5129078D1*
X2253226Y5115952D1*
X2230017Y5106339D1*
X2205590Y5100474D1*
X2180547Y5098503D1*
X2155503Y5100474D1*
X2131076Y5106339D1*
X2107867Y5115952D1*
X2086448Y5129078D1*
X2067346Y5145393D1*
X2058418Y5155124D1*
X2045086Y5140054D1*
X2025083Y5122970D1*
X2002654Y5109225D1*
X1978350Y5099158D1*
X1952771Y5093017D1*
X1926547Y5090953D1*
X1900322Y5093017D1*
X1874743Y5099158D1*
X1850440Y5109225D1*
X1828010Y5122970D1*
X1808007Y5140054D1*
X1790923Y5160057D1*
X1777178Y5182486D1*
X1767112Y5206790D1*
X1760971Y5232369D1*
X1758907Y5258593D1*
X1760971Y5284818D1*
X1767112Y5310397D1*
X1777178Y5334700D1*
X1790923Y5357130D1*
X1808007Y5377133D1*
X1828010Y5394217D1*
X1850440Y5407962D1*
X1874743Y5418028D1*
X1900322Y5424169D1*
X1926547Y5426233D1*
X1952771Y5424169D1*
X1978350Y5418028D1*
X2002654Y5407962D1*
X2025083Y5394217D1*
X2045086Y5377133D1*
X2058319Y5362016D1*
X2076577Y5380327D1*
X2096900Y5395092D1*
X2119283Y5406497D1*
X2143174Y5414260D1*
X2167986Y5418190D1*
X2193107D1*
X2217919Y5414260D1*
X2241810Y5406497D1*
X2264193Y5395092D1*
X2284517Y5380327D1*
X2302280Y5362563D1*
X2307478Y5355970D1*
X2321346Y5371794D1*
X2340448Y5388109D1*
X2361867Y5401235D1*
X2385076Y5410848D1*
X2409503Y5416712D1*
X2434547Y5418683D1*
X2459590Y5416712D1*
X2484017Y5410848D1*
X2507226Y5401235D1*
X2528645Y5388109D1*
X2547747Y5371794D1*
X2561478Y5355970D1*
X2575346Y5371794D1*
X2594448Y5388109D1*
X2615867Y5401235D1*
X2639076Y5410848D1*
X2663503Y5416712D1*
X2688547Y5418683D1*
X2713590Y5416712D1*
X2738017Y5410848D1*
X2761226Y5401235D1*
X2782645Y5388109D1*
X2801747Y5371794D1*
X2815478Y5355970D1*
X2829346Y5371794D1*
X2848448Y5388109D1*
X2869867Y5401235D1*
X2893076Y5410848D1*
X2917503Y5416712D1*
X2942547Y5418683D1*
X2967590Y5416712D1*
X2992017Y5410848D1*
X3015226Y5401235D1*
X3036645Y5388109D1*
X3055747Y5371794D1*
X3069478Y5355970D1*
X3083346Y5371794D1*
X3102448Y5388109D1*
X3123867Y5401235D1*
X3147076Y5410848D1*
X3171503Y5416712D1*
X3196547Y5418683D1*
X3221590Y5416712D1*
X3246017Y5410848D1*
X3269226Y5401235D1*
X3290645Y5388109D1*
X3309747Y5371794D1*
X3323478Y5355970D1*
X3337346Y5371794D1*
X3356448Y5388109D1*
X3377867Y5401235D1*
X3401076Y5410848D1*
X3425503Y5416712D1*
X3450547Y5418683D1*
X3475590Y5416712D1*
X3500017Y5410848D1*
X3523226Y5401235D1*
X3544645Y5388109D1*
X3563747Y5371794D1*
X3577478Y5355970D1*
X3591346Y5371794D1*
X3610448Y5388109D1*
X3631867Y5401235D1*
X3655076Y5410848D1*
X3679503Y5416712D1*
X3704547Y5418683D1*
X3729590Y5416712D1*
X3754017Y5410848D1*
X3777226Y5401235D1*
X3798645Y5388109D1*
X3817747Y5371794D1*
X3831478Y5355970D1*
X3845346Y5371794D1*
X3864448Y5388109D1*
X3885867Y5401235D1*
X3909076Y5410848D1*
X3933503Y5416712D1*
X3958547Y5418683D1*
X3983590Y5416712D1*
X4008017Y5410848D1*
X4031226Y5401235D1*
X4052645Y5388109D1*
X4071747Y5371794D1*
X4085478Y5355970D1*
X4099346Y5371794D1*
X4118448Y5388109D1*
X4127389Y5394083D1*
X4116956Y5403177D1*
X3698762Y5821370D1*
X3683291Y5822914D1*
X3662557Y5827892D1*
X3642857Y5836052D1*
X3624675Y5847194D1*
X3608461Y5861042D1*
X3594612Y5877257D1*
X3583470Y5895438D1*
X3575310Y5915139D1*
X3570332Y5935873D1*
X3568659Y5957131D1*
X3570332Y5978389D1*
X3575310Y5999123D1*
X3583470Y6018824D1*
X3594612Y6037005D1*
X3608461Y6053220D1*
X3624675Y6067068D1*
X3642857Y6078210D1*
X3662557Y6086370D1*
X3683291Y6091348D1*
X3704549Y6093021D1*
X3725807Y6091348D1*
X3746542Y6086370D1*
X3766242Y6078210D1*
X3784423Y6067068D1*
X3800638Y6053220D1*
X3814487Y6037005D1*
X3825628Y6018824D1*
X3833788Y5999123D1*
X3838766Y5978389D1*
X3840209Y5963003D1*
X4229244Y5573986D1*
X4520707Y5574020D1*
X4390437Y5704727D1*
X4381206Y5717433D1*
X4374075Y5731427D1*
X4369222Y5746364D1*
X4366765Y5761877D1*
X4366457Y5863063D1*
Y6657582D1*
X4353346Y6669393D1*
X4339615Y6685217D1*
X4325747Y6669393D1*
X4306645Y6653078D1*
X4285226Y6639952D1*
X4262017Y6630339D1*
X4237590Y6624474D1*
X4212547Y6622503D1*
X4187503Y6624474D1*
X4163076Y6630339D1*
X4139867Y6639952D1*
X4118448Y6653078D1*
X4099346Y6669393D1*
X4085615Y6685217D1*
X4071747Y6669393D1*
X4052645Y6653078D1*
X4031226Y6639952D1*
X4008017Y6630339D1*
X3983590Y6624474D1*
X3958547Y6622503D1*
X3933503Y6624474D1*
X3909076Y6630339D1*
X3885867Y6639952D1*
X3864448Y6653078D1*
X3845346Y6669393D1*
X3831615Y6685217D1*
X3817747Y6669393D1*
X3798645Y6653078D1*
X3777226Y6639952D1*
X3754017Y6630339D1*
X3729590Y6624474D1*
X3704547Y6622503D1*
X3679503Y6624474D1*
X3655076Y6630339D1*
X3631867Y6639952D1*
X3610448Y6653078D1*
X3591346Y6669393D1*
X3577615Y6685217D1*
X3563747Y6669393D1*
X3550622Y6657790D1*
X3550328Y6559407D1*
X3547871Y6543894D1*
X3543018Y6528957D1*
X3535887Y6514963D1*
X3526656Y6502256D1*
X3515550Y6491150D1*
X3502844Y6481919D1*
X3488849Y6474788D1*
X3473912Y6469935D1*
X3458400Y6467478D1*
X3357213Y6467169D1*
X1445908Y6467478D1*
X1430396Y6469935D1*
X1415459Y6474788D1*
X1401464Y6481919D1*
X1388758Y6491150D1*
X1316990Y6562482D1*
X1247651Y6632258D1*
X1238419Y6644964D1*
X1231289Y6658958D1*
X1226435Y6673895D1*
X1223979Y6689408D1*
X1223670Y6790594D1*
Y8326857D1*
X1153670Y8326823D1*
Y8667003D1*
X1493850D1*
Y8644854D1*
X1512669Y8654056D1*
X1538053Y8662304D1*
X1564415Y8666479D1*
X1591105D1*
X1617467Y8662304D1*
X1642851Y8654056D1*
X1666632Y8641939D1*
X1688225Y8626251D1*
X1704725Y8609945D1*
X1721295Y8626251D1*
X1742888Y8641939D1*
X1766669Y8654056D1*
X1792053Y8662304D1*
X1818415Y8666479D1*
X1845105D1*
X1871467Y8662304D1*
X1896851Y8654056D1*
X1920632Y8641939D1*
X1942225Y8626251D1*
X1961097Y8607378D1*
X1969269Y8597013D1*
X2171214Y8596695D1*
X2186726Y8594238D1*
X2201663Y8589385D1*
X2215658Y8582254D1*
X2228364Y8573023D1*
X2300132Y8501691D1*
X2419910Y8381980D1*
Y8680090D1*
X2780090D1*
Y8664139D1*
X2798349Y8671276D1*
X2825828Y8677873D1*
X2854000Y8680090D1*
X2882172Y8677873D1*
X2909651Y8671276D1*
X2935759Y8660461D1*
X2959854Y8645696D1*
X2980978Y8627680D1*
X3002146Y8645696D1*
X3026241Y8660461D1*
X3052349Y8671276D1*
X3079828Y8677873D1*
X3108000Y8680090D1*
X3136172Y8677873D1*
X3163651Y8671276D1*
X3189759Y8660461D1*
X3213854Y8645696D1*
X3235343Y8627343D1*
X3253696Y8605854D1*
X3268461Y8581759D1*
X3279276Y8555651D1*
X3285873Y8528172D1*
X3288090Y8500000D1*
X3285873Y8471828D1*
X3284526Y8465056D1*
X3479049Y8270064D1*
X3488281Y8257357D1*
X3495411Y8243363D1*
X3500264Y8228426D1*
X3502721Y8212913D1*
X3503030Y8111727D1*
Y8050386D1*
X3512877Y8038274D1*
X3524018Y8020092D1*
X3532179Y8000392D1*
X3537259Y7978788D1*
X3858495Y8300044D1*
X3834301Y8300527D1*
X3818699Y8302373D1*
X3803290Y8305439D1*
X3788169Y8309703D1*
X3773429Y8315141D1*
X3759161Y8321719D1*
X3745453Y8329395D1*
X3732390Y8338124D1*
X3720052Y8347850D1*
X3708515Y8358515D1*
X3697850Y8370052D1*
X3688124Y8382390D1*
X3679395Y8395453D1*
X3671719Y8409161D1*
X3665141Y8423429D1*
X3659703Y8438169D1*
X3655439Y8453290D1*
X3652373Y8468699D1*
X3650527Y8484301D1*
X3649910Y8500000D1*
X3650527Y8515699D1*
X3652373Y8531301D1*
X3655439Y8546710D1*
X3659703Y8561831D1*
X3665141Y8576571D1*
X3671719Y8590839D1*
X3679395Y8604547D1*
X3688124Y8617610D1*
X3697850Y8629948D1*
X3708515Y8641485D1*
X3720052Y8652150D1*
X3732390Y8661876D1*
X3745453Y8670605D1*
X3759161Y8678281D1*
X3773429Y8684859D1*
X3788169Y8690297D1*
X3803290Y8694561D1*
X3818699Y8697627D1*
X3834301Y8699473D1*
X3850000Y8700090D1*
X3865699Y8699473D1*
X3881301Y8697627D1*
X3896710Y8694561D1*
X3911831Y8690297D1*
X3926571Y8684859D1*
X3940839Y8678281D1*
X3954547Y8670605D1*
X3967610Y8661876D1*
X3979948Y8652150D1*
X3999942Y8632337D1*
X3999910Y8700090D1*
X4400090D1*
Y8299910D1*
X4141509D1*
X3571687Y7730138D1*
X5837780Y7729792D1*
X5853293Y7727335D1*
X5868230Y7722482D1*
X5882224Y7715352D1*
X5894931Y7706120D1*
X5966698Y7634788D1*
X5988676Y7612811D1*
X6078877Y7612857D1*
X6091605Y7629726D1*
X6111588Y7649708D1*
X6134450Y7666319D1*
X6159629Y7679148D1*
X6186505Y7687881D1*
X6214417Y7692302D1*
X6242676D1*
X6270588Y7687881D1*
X6297464Y7679148D1*
X6322643Y7666319D1*
X6345506Y7649708D1*
X6365488Y7629726D1*
X6382099Y7606863D1*
X6394928Y7581684D1*
X6403661Y7554808D1*
X6408082Y7526896D1*
Y7498637D1*
X6403661Y7470725D1*
X6394928Y7443849D1*
X6382099Y7418670D1*
X6365488Y7395808D1*
X6345506Y7375825D1*
X6322643Y7359215D1*
X6297464Y7346385D1*
X6270588Y7337653D1*
X6242676Y7333232D1*
X6214417D1*
X6186505Y7337653D1*
X6159629Y7346385D1*
X6134450Y7359215D1*
X6111588Y7375825D1*
X6091605Y7395808D1*
X6079015Y7412653D1*
X5939318Y7412985D1*
X5923806Y7415442D1*
X5908869Y7420295D1*
X5894874Y7427426D1*
X5882168Y7436658D1*
X5810400Y7507989D1*
X5788423Y7529966D1*
X5402180Y7529921D1*
X5411876Y7517610D1*
X5420605Y7504547D1*
X5428281Y7490839D1*
X5434859Y7476571D1*
X5440297Y7461831D1*
X5444561Y7446710D1*
X5447627Y7431301D1*
X5449473Y7415699D1*
X5450090Y7400000D1*
X5449473Y7384301D1*
X5447627Y7368699D1*
X5443179Y7348387D1*
X5588821Y7202727D1*
X6768073Y7202382D1*
X6783586Y7199925D1*
X6798523Y7195071D1*
X6812517Y7187941D1*
X6825223Y7178709D1*
X6896991Y7107378D1*
X6949605Y7054764D1*
X6957359Y7072679D1*
X6970484Y7094099D1*
X6975075Y7099921D1*
X6963501Y7116353D1*
X6952096Y7138736D1*
X6944333Y7162628D1*
X6940404Y7187439D1*
Y7212561D1*
X6944333Y7237372D1*
X6952096Y7261264D1*
X6963501Y7283647D1*
X6978267Y7303970D1*
X6996030Y7321733D1*
X7016353Y7336499D1*
X7038736Y7347904D1*
X7062628Y7355667D1*
X7087439Y7359596D1*
X7112561D1*
X7137372Y7355667D1*
X7161264Y7347904D1*
X7183647Y7336499D1*
X7203970Y7321733D1*
X7221733Y7303970D1*
X7236499Y7283647D1*
X7247904Y7261264D1*
X7255667Y7237372D1*
X7259596Y7212561D1*
Y7187439D1*
X7255667Y7162628D1*
X7247904Y7138736D1*
X7236499Y7116353D1*
X7224925Y7100079D1*
X7236499Y7083647D1*
X7247904Y7061264D1*
X7255667Y7037372D1*
X7259596Y7012561D1*
Y6987439D1*
X7255667Y6962628D1*
X7247904Y6938736D1*
X7236499Y6916353D1*
X7224925Y6900079D1*
X7236499Y6883647D1*
X7247904Y6861264D1*
X7255667Y6837372D1*
X7259596Y6812561D1*
Y6787439D1*
X7255667Y6762628D1*
X7247904Y6738736D1*
X7236499Y6716353D1*
X7224925Y6700079D1*
X7236499Y6683647D1*
X7247904Y6661264D1*
X7255667Y6637372D1*
X7259596Y6612561D1*
Y6587439D1*
X7255667Y6562628D1*
X7247904Y6538736D1*
X7236499Y6516353D1*
X7224925Y6500079D1*
X7236499Y6483647D1*
X7247904Y6461264D1*
X7255667Y6437372D1*
X7259596Y6412561D1*
Y6387439D1*
X7255667Y6362628D1*
X7247904Y6338736D1*
X7236499Y6316353D1*
X7224925Y6300079D1*
X7236499Y6283647D1*
X7247904Y6261264D1*
X7255667Y6237372D1*
X7259596Y6212561D1*
Y6187439D1*
X7255667Y6162628D1*
X7247904Y6138736D1*
X7236499Y6116353D1*
X7224925Y6100079D1*
X7236499Y6083647D1*
X7247904Y6061264D1*
X7255667Y6037372D1*
X7259596Y6012561D1*
Y5987439D1*
X7255667Y5962628D1*
X7247904Y5938736D1*
X7236499Y5916353D1*
X7224925Y5900079D1*
X7236499Y5883647D1*
X7247904Y5861264D1*
X7255667Y5837372D1*
X7259596Y5812561D1*
Y5787439D1*
X7255667Y5762628D1*
X7247904Y5738736D1*
X7236499Y5716353D1*
X7224925Y5700079D1*
X7236499Y5683647D1*
X7247904Y5661264D1*
X7255667Y5637372D1*
X7259596Y5612561D1*
Y5587439D1*
X7255667Y5562628D1*
X7247904Y5538736D1*
X7236499Y5516353D1*
X7224925Y5500079D1*
X7236499Y5483647D1*
X7247904Y5461264D1*
X7255667Y5437372D1*
X7259596Y5412561D1*
Y5387439D1*
X7255667Y5362628D1*
X7247904Y5338736D1*
X7236499Y5316353D1*
X7224925Y5300079D1*
X7236499Y5283647D1*
X7247904Y5261264D1*
X7255667Y5237372D1*
X7259596Y5212561D1*
Y5187439D1*
X7255667Y5162628D1*
X7247904Y5138736D1*
X7236499Y5116353D1*
X7224925Y5100079D1*
X7236499Y5083647D1*
X7247904Y5061264D1*
X7255667Y5037372D1*
X7259596Y5012561D1*
Y4987439D1*
X7255667Y4962628D1*
X7247904Y4938736D1*
X7236499Y4916353D1*
X7224925Y4900079D1*
X7236499Y4883647D1*
X7247904Y4861264D1*
X7255667Y4837372D1*
X7259596Y4812561D1*
Y4787439D1*
X7255667Y4762628D1*
X7247904Y4738736D1*
X7236499Y4716353D1*
X7224925Y4700079D1*
X7236499Y4683647D1*
X7247904Y4661264D1*
X7255667Y4637372D1*
X7259596Y4612561D1*
Y4587439D1*
X7255667Y4562628D1*
X7247904Y4538736D1*
X7236499Y4516353D1*
X7224925Y4500079D1*
X7236499Y4483647D1*
X7247904Y4461264D1*
X7255667Y4437372D1*
X7259596Y4412561D1*
Y4387439D1*
X7255667Y4362628D1*
X7247904Y4338736D1*
X7236499Y4316353D1*
X7224925Y4300079D1*
X7236499Y4283647D1*
X7247904Y4261264D1*
X7255667Y4237372D1*
X7259596Y4212561D1*
Y4187439D1*
X7255667Y4162628D1*
X7247904Y4138736D1*
X7236499Y4116353D1*
X7224925Y4100079D1*
X7236499Y4083647D1*
X7247904Y4061264D1*
X7255667Y4037372D1*
X7259596Y4012561D1*
Y3987439D1*
X7255667Y3962628D1*
X7247904Y3938736D1*
X7236499Y3916353D1*
X7224925Y3900079D1*
X7236499Y3883647D1*
X7247904Y3861264D1*
X7255667Y3837372D1*
X7259596Y3812561D1*
Y3787439D1*
X7255667Y3762628D1*
X7247904Y3738736D1*
X7236499Y3716353D1*
X7224925Y3700079D1*
X7236499Y3683647D1*
X7247904Y3661264D1*
X7255667Y3637372D1*
X7259596Y3612561D1*
Y3587439D1*
X7255667Y3562628D1*
X7247904Y3538736D1*
X7236499Y3516353D1*
X7224925Y3500079D1*
X7236499Y3483647D1*
X7247904Y3461264D1*
X7255667Y3437372D1*
X7259596Y3412561D1*
Y3387439D1*
X7255667Y3362628D1*
X7247904Y3338736D1*
X7236499Y3316353D1*
X7224925Y3300079D1*
X7236499Y3283647D1*
X7247904Y3261264D1*
X7255667Y3237372D1*
X7259596Y3212561D1*
Y3187439D1*
X7255667Y3162628D1*
X7247904Y3138736D1*
X7236499Y3116353D1*
X7224925Y3100079D1*
X7236499Y3083647D1*
X7247904Y3061264D1*
X7255667Y3037372D1*
X7259596Y3012561D1*
Y2987439D1*
X7255667Y2962628D1*
X7247904Y2938736D1*
X7236499Y2916353D1*
X7224925Y2900079D1*
X7236499Y2883647D1*
X7247904Y2861264D1*
X7255667Y2837372D1*
X7259596Y2812561D1*
Y2787439D1*
X7255667Y2762628D1*
X7247904Y2738736D1*
X7236499Y2716353D1*
X7224925Y2700079D1*
X7236499Y2683647D1*
X7247904Y2661264D1*
X7255667Y2637372D1*
X7259596Y2612561D1*
Y2587439D1*
X7255667Y2562628D1*
X7247904Y2538736D1*
X7236499Y2516353D1*
X7224925Y2500079D1*
X7236499Y2483647D1*
X7247904Y2461264D1*
X7255667Y2437372D1*
X7259596Y2412561D1*
Y2387439D1*
X7255667Y2362628D1*
X7247904Y2338736D1*
X7236499Y2316353D1*
X7224925Y2300079D1*
X7236499Y2283647D1*
X7247904Y2261264D1*
X7255667Y2237372D1*
X7259596Y2212561D1*
Y2187439D1*
X7255667Y2162628D1*
X7247904Y2138736D1*
X7236499Y2116353D1*
X7224925Y2100079D1*
X7236499Y2083647D1*
X7247904Y2061264D1*
X7255667Y2037372D1*
X7259596Y2012561D1*
Y1987439D1*
X7255667Y1962628D1*
X7247904Y1938736D1*
X7236499Y1916353D1*
X7224925Y1900079D1*
X7236499Y1883647D1*
X7247904Y1861264D1*
X7255667Y1837372D1*
X7259596Y1812561D1*
Y1787439D1*
X7255667Y1762628D1*
X7247904Y1738736D1*
X7236499Y1716353D1*
X7224925Y1700079D1*
X7236499Y1683647D1*
X7247904Y1661264D1*
X7255667Y1637372D1*
X7259596Y1612561D1*
Y1587439D1*
X7255667Y1562628D1*
X7247904Y1538736D1*
X7236499Y1516353D1*
X7221733Y1496030D1*
X7203970Y1478267D1*
X7183647Y1463501D1*
X7161264Y1452096D1*
X7137372Y1444333D1*
X7112561Y1440404D1*
X7087439D1*
X7062628Y1444333D1*
X7038736Y1452096D1*
X7016353Y1463501D1*
X7000079Y1475075D1*
X6983647Y1463501D1*
X6961264Y1452096D1*
X6937372Y1444333D1*
X6922557Y1441587D1*
X6922584Y1104456D1*
X6582404D1*
Y1126605D1*
X6563584Y1117404D1*
X6538200Y1109156D1*
X6511838Y1104981D1*
X6485148D1*
X6458787Y1109156D1*
X6433403Y1117404D1*
X6409622Y1129521D1*
X6388029Y1145209D1*
X6371529Y1161515D1*
X6354958Y1145209D1*
X6333365Y1129521D1*
X6309584Y1117404D1*
X6284200Y1109156D1*
X6257838Y1104981D1*
X6231148D1*
X6204787Y1109156D1*
X6179403Y1117404D1*
X6155622Y1129521D1*
X6134029Y1145209D1*
X6115156Y1164082D1*
X6099468Y1185675D1*
X6087351Y1209456D1*
X6079103Y1234840D1*
X6074928Y1261202D1*
Y1287892D1*
X6079103Y1314253D1*
X6087351Y1339637D1*
X6099468Y1363418D1*
X6115156Y1385011D1*
X6134029Y1403884D1*
X6155622Y1419572D1*
X6179403Y1431689D1*
X6204787Y1439937D1*
X6231148Y1444112D1*
X6257838D1*
X6284200Y1439937D1*
X6309584Y1431689D1*
X6333365Y1419572D1*
X6354958Y1403884D1*
X6371458Y1387578D1*
X6388029Y1403884D1*
X6409622Y1419572D1*
X6433403Y1431689D1*
X6458787Y1439937D1*
X6485148Y1444112D1*
X6511838D1*
X6538200Y1439937D1*
X6563584Y1431689D1*
X6582404Y1422351D1*
Y1444636D1*
X6861401D1*
X6838736Y1452096D1*
X6816353Y1463501D1*
X6796030Y1478267D1*
X6778267Y1496030D1*
X6763501Y1516353D1*
X6752096Y1538736D1*
X6744333Y1562628D1*
X6740404Y1587439D1*
Y1612561D1*
X6744333Y1637372D1*
X6752096Y1661264D1*
X6763501Y1683647D1*
X6775075Y1699921D1*
X6763501Y1716353D1*
X6752096Y1738736D1*
X6744333Y1762628D1*
X6740404Y1787439D1*
Y1812561D1*
X6744333Y1837372D1*
X6752096Y1861264D1*
X6763501Y1883647D1*
X6775075Y1899921D1*
X6763501Y1916353D1*
X6752096Y1938736D1*
X6744333Y1962628D1*
X6740404Y1987439D1*
Y2012561D1*
X6744333Y2037372D1*
X6752096Y2061264D1*
X6763501Y2083647D1*
X6775075Y2099921D1*
X6763501Y2116353D1*
X6752096Y2138736D1*
X6744333Y2162628D1*
X6740404Y2187439D1*
Y2212561D1*
X6744333Y2237372D1*
X6752096Y2261264D1*
X6763501Y2283647D1*
X6775075Y2299921D1*
X6763501Y2316353D1*
X6752096Y2338736D1*
X6744333Y2362628D1*
X6740404Y2387439D1*
Y2412561D1*
X6744333Y2437372D1*
X6752096Y2461264D1*
X6763501Y2483647D1*
X6775075Y2499921D1*
X6763501Y2516353D1*
X6752096Y2538736D1*
X6744333Y2562628D1*
X6740404Y2587439D1*
Y2612561D1*
X6744333Y2637372D1*
X6752096Y2661264D1*
X6763501Y2683647D1*
X6775075Y2699921D1*
X6763501Y2716353D1*
X6752096Y2738736D1*
X6744333Y2762628D1*
X6740404Y2787439D1*
Y2812561D1*
X6744333Y2837372D1*
X6752096Y2861264D1*
X6763501Y2883647D1*
X6775075Y2899921D1*
X6763501Y2916353D1*
X6752096Y2938736D1*
X6744333Y2962628D1*
X6740404Y2987439D1*
Y3012561D1*
X6744333Y3037372D1*
X6752096Y3061264D1*
X6763501Y3083647D1*
X6775075Y3099921D1*
X6763501Y3116353D1*
X6752096Y3138736D1*
X6744333Y3162628D1*
X6740404Y3187439D1*
Y3212561D1*
X6744333Y3237372D1*
X6752096Y3261264D1*
X6763501Y3283647D1*
X6775075Y3299921D1*
X6763501Y3316353D1*
X6752096Y3338736D1*
X6744333Y3362628D1*
X6740404Y3387439D1*
Y3412561D1*
X6744333Y3437372D1*
X6752096Y3461264D1*
X6763501Y3483647D1*
X6775075Y3499921D1*
X6763501Y3516353D1*
X6752096Y3538736D1*
X6744333Y3562628D1*
X6740404Y3587439D1*
Y3612561D1*
X6744333Y3637372D1*
X6752096Y3661264D1*
X6763501Y3683647D1*
X6775075Y3699921D1*
X6763501Y3716353D1*
X6752096Y3738736D1*
X6744333Y3762628D1*
X6740404Y3787439D1*
Y3812561D1*
X6744333Y3837372D1*
X6752096Y3861264D1*
X6763501Y3883647D1*
X6775075Y3899921D1*
X6763501Y3916353D1*
X6752096Y3938736D1*
X6744333Y3962628D1*
X6740404Y3987439D1*
Y4012561D1*
X6744333Y4037372D1*
X6752096Y4061264D1*
X6763501Y4083647D1*
X6775075Y4099921D1*
X6763501Y4116353D1*
X6752096Y4138736D1*
X6744333Y4162628D1*
X6740404Y4187439D1*
Y4212561D1*
X6744333Y4237372D1*
X6752096Y4261264D1*
X6763501Y4283647D1*
X6775075Y4299921D1*
X6763501Y4316353D1*
X6752096Y4338736D1*
X6744333Y4362628D1*
X6740404Y4387439D1*
Y4412561D1*
X6744333Y4437372D1*
X6752096Y4461264D1*
X6763501Y4483647D1*
X6778267Y4503970D1*
X6796030Y4521733D1*
X6816353Y4536499D1*
X6838736Y4547904D1*
X6862628Y4555667D1*
X6887439Y4559596D1*
X6912561D1*
X6937372Y4555667D1*
X6946966Y4552961D1*
X6941881Y4574956D1*
X6939910Y4600000D1*
X6941881Y4625044D1*
X6947745Y4649471D1*
X6957359Y4672679D1*
X6970484Y4694099D1*
X6975075Y4699921D1*
X6963501Y4716353D1*
X6952096Y4738736D1*
X6944333Y4762628D1*
X6940404Y4787439D1*
Y4812561D1*
X6944333Y4837372D1*
X6952096Y4861264D1*
X6963501Y4883647D1*
X6975075Y4899921D1*
X6963501Y4916353D1*
X6960886Y4921023D1*
X6825216Y4785814D1*
X6812509Y4776582D1*
X6798515Y4769452D1*
X6783578Y4764598D1*
X6768065Y4762142D1*
X6666879Y4761833D1*
X5711579D1*
X5698882Y4744964D1*
X5689470Y4734783D1*
X5707309Y4713778D1*
X5722075Y4689682D1*
X5732889Y4663574D1*
X5739486Y4636096D1*
X5741703Y4607923D1*
X5739486Y4579751D1*
X5732889Y4552272D1*
X5722075Y4526164D1*
X5707309Y4502069D1*
X5689144Y4480783D1*
X5706986Y4459778D1*
X5721751Y4435682D1*
X5732566Y4409574D1*
X5739163Y4382096D1*
X5741380Y4353923D1*
X5739163Y4325751D1*
X5732566Y4298272D1*
X5721751Y4272164D1*
X5706986Y4248069D1*
X5688820Y4226783D1*
X5706659Y4205778D1*
X5721425Y4181682D1*
X5732239Y4155574D1*
X5738836Y4128096D1*
X5741053Y4099923D1*
X5738836Y4071751D1*
X5732239Y4044272D1*
X5721425Y4018164D1*
X5706659Y3994069D1*
X5688306Y3972580D1*
X5666818Y3954227D1*
X5642722Y3939462D1*
X5616614Y3928648D1*
X5589136Y3922051D1*
X5560963Y3919833D1*
X5532791Y3922051D1*
X5505312Y3928648D1*
X5479204Y3939462D1*
X5455109Y3954227D1*
X5433620Y3972580D1*
X5415267Y3994069D1*
X5400502Y4018164D1*
X5389688Y4044272D1*
X5383091Y4071751D1*
X5380873Y4099923D1*
X5383091Y4128096D1*
X5389688Y4155574D1*
X5400502Y4181682D1*
X5415267Y4205778D1*
X5433433Y4227063D1*
X5415594Y4248069D1*
X5411758Y4253810D1*
X4304480Y4253838D1*
X4292423Y4243992D1*
X4274242Y4232850D1*
X4254542Y4224690D1*
X4233807Y4219712D1*
X4212549Y4218039D1*
X4191291Y4219712D1*
X4170557Y4224690D1*
X4150857Y4232850D1*
X4132675Y4243992D1*
X4116461Y4257840D1*
X4102612Y4274055D1*
X4091470Y4292236D1*
X4083310Y4311937D1*
X4078332Y4332671D1*
X4076659Y4353929D1*
X4078332Y4375187D1*
X4083310Y4395921D1*
X4091470Y4415622D1*
X4093731Y4419658D1*
X3974857Y4419640D1*
X3768674Y4213890D1*
X3755968Y4204659D1*
X3741973Y4197528D1*
X3727036Y4192675D1*
X3711523Y4190218D1*
X3590376Y4189909D1*
X3578414Y4180062D1*
X3560233Y4168921D1*
X3540532Y4160761D1*
X3519798Y4155783D1*
X3498540Y4154110D1*
X3477282Y4155783D1*
X3456548Y4160761D1*
X3436847Y4168921D1*
X3418666Y4180062D1*
X3402451Y4193911D1*
X3388603Y4210125D1*
X3377461Y4228307D1*
X3369301Y4248007D1*
X3364323Y4268742D1*
X3362650Y4290000D1*
X3364323Y4311257D1*
X3369301Y4331992D1*
X3377461Y4351692D1*
X3388603Y4369874D1*
X3402451Y4386088D1*
X3406583Y4389908D1*
X3332390Y4389909D1*
X3342641Y4372679D1*
X3352255Y4349471D1*
X3358119Y4325044D1*
X3360090Y4300000D1*
X3358119Y4274956D1*
X3352255Y4250529D1*
X3342641Y4227321D1*
X3329516Y4205901D1*
X3324925Y4200079D1*
X3336499Y4183647D1*
X3347904Y4161264D1*
X3355667Y4137372D1*
X3359596Y4112561D1*
Y4087439D1*
X3355667Y4062628D1*
X3347904Y4038736D1*
X3336499Y4016353D1*
X3324925Y4000079D1*
X3336499Y3983647D1*
X3347904Y3961264D1*
X3355667Y3937372D1*
X3359596Y3912561D1*
Y3887439D1*
X3355667Y3862628D1*
X3347904Y3838736D1*
X3336499Y3816353D1*
X3321733Y3796030D1*
X3303970Y3778267D1*
X3299998Y3775136D1*
X3941889Y3775161D1*
X4045247Y3878170D1*
X4057954Y3887401D1*
X4071948Y3894532D1*
X4086885Y3899385D1*
X4102398Y3901842D1*
X4203584Y3902151D1*
X5490664Y3901842D1*
X5506177Y3899385D1*
X5521114Y3894532D1*
X5535108Y3887401D1*
X5547814Y3878170D1*
X5619582Y3806838D1*
X5653923Y3772062D1*
X5663154Y3759355D1*
X5671910Y3745605D1*
X5694772Y3728995D1*
X5714755Y3709012D1*
X5731365Y3686150D1*
X5744195Y3660971D1*
X5752927Y3634095D1*
X5757348Y3606183D1*
Y3577924D1*
X5752927Y3550012D1*
X5744195Y3523136D1*
X5731365Y3497957D1*
X5714755Y3475094D1*
X5694772Y3455112D1*
X5671910Y3438501D1*
X5646731Y3425672D1*
X5619855Y3416939D1*
X5591943Y3412518D1*
X5563684D1*
X5535772Y3416939D1*
X5508896Y3425672D1*
X5483717Y3438501D1*
X5460854Y3455112D1*
X5450836Y3464373D1*
X5429668Y3446357D1*
X5405572Y3431592D1*
X5379464Y3420778D1*
X5351986Y3414181D1*
X5323813Y3411963D1*
X5295641Y3414181D1*
X5268162Y3420778D1*
X5242054Y3431592D1*
X5217959Y3446357D1*
X5196836Y3464373D1*
X5175668Y3446357D1*
X5169927Y3442521D1*
X5169595Y3365299D1*
X5167138Y3349787D1*
X5162285Y3334850D1*
X5155154Y3320855D1*
X5145922Y3308149D1*
X5074591Y3236381D1*
X5004813Y3167040D1*
X4992107Y3157808D1*
X4978113Y3150678D1*
X4963175Y3145824D1*
X4947663Y3143367D1*
X4846476Y3143059D1*
X3014033Y3143367D1*
X2998521Y3145824D1*
X2983583Y3150678D1*
X2969589Y3157808D1*
X2956883Y3167040D1*
X2885115Y3238371D1*
X2850778Y3273145D1*
X2841546Y3285851D1*
X2832790Y3299608D1*
X2809928Y3316218D1*
X2801937Y3323605D1*
X2789846Y3312252D1*
X2766983Y3295641D1*
X2741804Y3282812D1*
X2714928Y3274079D1*
X2687016Y3269658D1*
X2658757D1*
X2630845Y3274079D1*
X2603969Y3282812D1*
X2578790Y3295641D1*
X2555928Y3312252D1*
X2547937Y3319638D1*
X2535846Y3308282D1*
X2512983Y3291671D1*
X2487804Y3278842D1*
X2460928Y3270109D1*
X2433016Y3265688D1*
X2404757D1*
X2376845Y3270109D1*
X2349969Y3278842D1*
X2324790Y3291671D1*
X2301928Y3308282D1*
X2293937Y3315668D1*
X2281846Y3304312D1*
X2258983Y3287701D1*
X2233804Y3274872D1*
X2206928Y3266139D1*
X2179016Y3261718D1*
X2150757D1*
X2122845Y3266139D1*
X2095969Y3274872D1*
X2070790Y3287701D1*
X2047928Y3304312D1*
X2039937Y3311698D1*
X2027846Y3300345D1*
X2004983Y3283735D1*
X1979804Y3270905D1*
X1952928Y3262173D1*
X1925016Y3257752D1*
X1896757D1*
X1868845Y3262173D1*
X1841969Y3270905D1*
X1816790Y3283735D1*
X1793928Y3300345D1*
X1773945Y3320328D1*
X1757335Y3343190D1*
X1748783Y3359089D1*
X1739611Y3381636D1*
X1733014Y3409114D1*
X1732839Y3410595D1*
X1724925Y3400079D1*
X1736499Y3383647D1*
X1742641Y3372679D1*
X1752255Y3349471D1*
X1758119Y3325044D1*
X1760090Y3300000D1*
X1759596Y3287439D1*
X7259596Y7887439D2*
X7255667Y7862628D1*
X7247904Y7838736D1*
X7236499Y7816353D1*
X7221733Y7796030D1*
X7203970Y7778267D1*
X7183647Y7763501D1*
X7161264Y7752096D1*
X7137372Y7744333D1*
X7112561Y7740404D1*
X7087439D1*
X7062628Y7744333D1*
X7038736Y7752096D1*
X7016353Y7763501D1*
X6996030Y7778267D1*
X6978267Y7796030D1*
X6963501Y7816353D1*
X6952096Y7838736D1*
X6944333Y7862628D1*
X6940404Y7887439D1*
Y7912561D1*
X6944333Y7937372D1*
X6952096Y7961264D1*
X6963501Y7983647D1*
X6975075Y7999921D1*
X6963501Y8016353D1*
X6952096Y8038736D1*
X6944333Y8062628D1*
X6940404Y8087439D1*
Y8112561D1*
X6944333Y8137372D1*
X6952096Y8161264D1*
X6963501Y8183647D1*
X6975075Y8199921D1*
X6963501Y8216353D1*
X6952096Y8238736D1*
X6944333Y8262628D1*
X6940404Y8287439D1*
Y8312561D1*
X6944333Y8337372D1*
X6952096Y8361264D1*
X6963501Y8383647D1*
X6975075Y8399921D1*
X6963501Y8416353D1*
X6952096Y8438736D1*
X6944333Y8462628D1*
X6940404Y8487439D1*
Y8512561D1*
X6944333Y8537372D1*
X6952096Y8561264D1*
X6963501Y8583647D1*
X6975075Y8599921D1*
X6963501Y8616353D1*
X6952096Y8638736D1*
X6944333Y8662628D1*
X6940404Y8687439D1*
Y8712561D1*
X6944333Y8737372D1*
X6952096Y8761264D1*
X6963501Y8783647D1*
X6978267Y8803970D1*
X6996030Y8821733D1*
X7016353Y8836499D1*
X7038736Y8847904D1*
X7062628Y8855667D1*
X7087439Y8859596D1*
X7112561D1*
X7137372Y8855667D1*
X7161264Y8847904D1*
X7183647Y8836499D1*
X7203970Y8821733D1*
X7221733Y8803970D1*
X7236499Y8783647D1*
X7247904Y8761264D1*
X7255667Y8737372D1*
X7259596Y8712561D1*
Y8687439D1*
X7255667Y8662628D1*
X7247904Y8638736D1*
X7236499Y8616353D1*
X7224925Y8600079D1*
X7236499Y8583647D1*
X7247904Y8561264D1*
X7255667Y8537372D1*
X7259596Y8512561D1*
Y8487439D1*
X7255667Y8462628D1*
X7247904Y8438736D1*
X7236499Y8416353D1*
X7224925Y8400079D1*
X7236499Y8383647D1*
X7247904Y8361264D1*
X7255667Y8337372D1*
X7259596Y8312561D1*
Y8287439D1*
X7255667Y8262628D1*
X7247904Y8238736D1*
X7236499Y8216353D1*
X7224925Y8200079D1*
X7236499Y8183647D1*
X7247904Y8161264D1*
X7255667Y8137372D1*
X7259596Y8112561D1*
Y8087439D1*
X7255667Y8062628D1*
X7247904Y8038736D1*
X7236499Y8016353D1*
X7224925Y8000079D1*
X7236499Y7983647D1*
X7247904Y7961264D1*
X7255667Y7937372D1*
X7259596Y7912561D1*
Y7887439D1*
X4024893Y7303110D2*
X4011876Y7282390D1*
X4002150Y7270052D1*
X3991485Y7258515D1*
X3979948Y7247850D1*
X3967610Y7238124D1*
X3950102Y7226906D1*
X3949782Y7094747D1*
X3947316Y7079205D1*
X3950881Y7072690D1*
X4028629D1*
X4099960Y7144110D1*
X4099910Y7226833D1*
X4082390Y7238124D1*
X4070052Y7247850D1*
X4058515Y7258515D1*
X4047850Y7270052D1*
X4038124Y7282390D1*
X4025107Y7303110D1*
X5757348Y1688774D2*
X5752927Y1660862D1*
X5744195Y1633986D1*
X5731365Y1608807D1*
X5714755Y1585944D1*
X5694772Y1565962D1*
X5671910Y1549351D1*
X5646731Y1536522D1*
X5619855Y1527789D1*
X5591943Y1523368D1*
X5563684D1*
X5535772Y1527789D1*
X5508896Y1536522D1*
X5483717Y1549351D1*
X5460854Y1565962D1*
X5450836Y1575223D1*
X5429668Y1557207D1*
X5405572Y1542442D1*
X5379464Y1531628D1*
X5351986Y1525031D1*
X5323813Y1522813D1*
X5295641Y1525031D1*
X5268162Y1531628D1*
X5242054Y1542442D1*
X5217959Y1557207D1*
X5196836Y1575223D1*
X5175668Y1557231D1*
X5151572Y1542465D1*
X5125464Y1531651D1*
X5097986Y1525054D1*
X5069813Y1522837D1*
X5041641Y1525054D1*
X5014162Y1531651D1*
X4988054Y1542465D1*
X4963959Y1557231D1*
X4942836Y1575246D1*
X4921668Y1557231D1*
X4897572Y1542465D1*
X4871464Y1531651D1*
X4843986Y1525054D1*
X4815813Y1522837D1*
X4787641Y1525054D1*
X4760162Y1531651D1*
X4734054Y1542465D1*
X4709959Y1557231D1*
X4688470Y1575584D1*
X4670117Y1597072D1*
X4655352Y1621168D1*
X4644538Y1647276D1*
X4637941Y1674754D1*
X4635723Y1702927D1*
X4637941Y1731099D1*
X4644538Y1758578D1*
X4655352Y1784686D1*
X4670117Y1808781D1*
X4688470Y1830270D1*
X4709959Y1848623D1*
X4734054Y1863388D1*
X4760162Y1874202D1*
X4787641Y1880799D1*
X4815813Y1883017D1*
X4843986Y1880799D1*
X4871464Y1874202D1*
X4897572Y1863388D1*
X4921668Y1848623D1*
X4942791Y1830607D1*
X4963959Y1848623D1*
X4988054Y1863388D1*
X5014162Y1874202D1*
X5041641Y1880799D1*
X5069813Y1883017D1*
X5097986Y1880799D1*
X5125464Y1874202D1*
X5151572Y1863388D1*
X5175668Y1848623D1*
X5196791Y1830607D1*
X5217959Y1848599D1*
X5242054Y1863365D1*
X5268162Y1874179D1*
X5295641Y1880776D1*
X5323813Y1882993D1*
X5351986Y1880776D1*
X5379464Y1874179D1*
X5405572Y1863365D1*
X5429668Y1848599D1*
X5450791Y1830584D1*
X5471959Y1848599D1*
X5496054Y1863365D1*
X5522162Y1874179D1*
X5549641Y1880776D1*
X5577813Y1882993D1*
X5605986Y1880776D1*
X5633464Y1874179D1*
X5659572Y1863365D1*
X5683668Y1848599D1*
X5705156Y1830246D1*
X5723509Y1808758D1*
X5738275Y1784662D1*
X5749089Y1758554D1*
X5755686Y1731076D1*
X5757903Y1702903D1*
X5757348Y1688774D1*
X3078020Y6102278D2*
X3074685Y6081217D1*
X3068095Y6060937D1*
X3058415Y6041938D1*
X3045881Y6024686D1*
X3042627Y6021167D1*
X3042640Y5717458D1*
X3052487Y5705393D1*
X3063628Y5687212D1*
X3071788Y5667511D1*
X3076766Y5646777D1*
X3078439Y5625519D1*
X3076766Y5604261D1*
X3071788Y5583527D1*
X3063628Y5563826D1*
X3052487Y5545645D1*
X3038638Y5529430D1*
X3022423Y5515582D1*
X3004242Y5504440D1*
X2984542Y5496280D1*
X2963807Y5491302D1*
X2942549Y5489629D1*
X2921291Y5491302D1*
X2900557Y5496280D1*
X2880857Y5504440D1*
X2862675Y5515582D1*
X2846461Y5529430D1*
X2832612Y5545645D1*
X2821470Y5563826D1*
X2813310Y5583527D1*
X2808332Y5604261D1*
X2806659Y5625519D1*
X2808332Y5646777D1*
X2813310Y5667511D1*
X2821470Y5687212D1*
X2832612Y5705393D1*
X2842471Y5717292D1*
X2842459Y6021001D1*
X2832612Y6033066D1*
X2821470Y6051247D1*
X2813310Y6070948D1*
X2808332Y6091682D1*
X2806659Y6112940D1*
X2808332Y6134198D1*
X2813310Y6154932D1*
X2821470Y6174633D1*
X2832612Y6192814D1*
X2846461Y6209029D1*
X2862675Y6222877D1*
X2880857Y6234019D1*
X2900557Y6242179D1*
X2921291Y6247157D1*
X2942549Y6248830D1*
X2963807Y6247157D1*
X2984542Y6242179D1*
X3004242Y6234019D1*
X3022423Y6222877D1*
X3038638Y6209029D1*
X3052487Y6192814D1*
X3063628Y6174633D1*
X3071788Y6154932D1*
X3076766Y6134198D1*
X3078439Y6112940D1*
X3078020Y6102278D1*
X6519898Y5021858D2*
X6518456Y5006472D1*
X6513478Y4985738D1*
X6505318Y4966037D1*
X6503057Y4962001D1*
X6718672Y4962014D1*
X6790173Y5033433D1*
X6790130Y5292074D1*
X6520024Y5021966D1*
X3575815Y4401674D2*
X3590313Y4390078D1*
X3662147Y4390090D1*
X3821798Y4549677D1*
X3729972Y4549639D1*
X3593813Y4413890D1*
X3581080Y4404643D1*
X6717494Y6977996D2*
X6790129Y6905361D1*
X6790130Y6931059D1*
X6718710Y7002561D1*
X6691952Y7002510D1*
X6700995Y6994495D1*
X6717494Y6977996D1*
D15*
X2600000Y8500000D3*
D16*
X2854000D3*
X3108000D3*
D17*
X2228540Y4734933D3*
D18*
X2482540D3*
X2736540D3*
X2990540D3*
X3244540D3*
X3498540D3*
D19*
X6530213Y6592113D3*
D20*
Y6242113D3*
Y5892113D3*
Y5542113D3*
D17*
X5736547Y6782593D3*
D18*
X5482547D3*
X5228547D3*
X4974547D3*
X4720547D3*
X4466547D3*
X4212547D3*
X3958547D3*
X3704547D3*
X3450547D3*
X3196547D3*
X2942547D3*
X2688547D3*
X2434547D3*
X2180547D3*
Y5258593D3*
X2434547D3*
X2688547D3*
X2942547D3*
X3196547D3*
X3450547D3*
X3704547D3*
X3958547D3*
X4212547D3*
X4466547D3*
X4720547D3*
X4974547D3*
X5228547D3*
X5482547D3*
X5736547D3*
D19*
X4200000Y8500000D3*
D20*
X3850000D3*
D21*
X5561940Y4861923D3*
X5561613Y4607923D3*
X5561290Y4353923D3*
X5560963Y4099923D3*
D22*
X5200000Y8400000D3*
D23*
X5708000D3*
D27*
X6752440Y8512787D3*
D28*
X6498440D3*
X6244440D3*
D27*
X1323760Y1274547D3*
D28*
X1577760D3*
X1831760D3*
D27*
X6752493D3*
D28*
X6498493D3*
X6244493D3*
D27*
X1323760Y8496913D3*
D28*
X1577760D3*
X1831760D3*
D17*
X3387293Y1417407D3*
D18*
X3641293D3*
D21*
X3688887Y3465067D3*
X3434887Y3461097D3*
X3180887Y3457130D3*
X2926887Y3453160D3*
X2672887Y3449193D3*
X2418887Y3445223D3*
X2164887Y3441253D3*
X1910887Y3437287D3*
D29*
X5900000Y1100000D3*
Y1300000D3*
X5700000Y1100000D3*
Y1300000D3*
X5500000Y1100000D3*
Y1300000D3*
X5300000Y1100000D3*
Y1300000D3*
X5100000Y1100000D3*
Y1300000D3*
X4900000Y1100000D3*
Y1300000D3*
X4700000Y1100000D3*
Y1300000D3*
X4500000Y1100000D3*
Y1300000D3*
X3100000Y1100000D3*
Y1300000D3*
X2900000Y1100000D3*
Y1300000D3*
X2700000Y1100000D3*
Y1300000D3*
X2500000Y1100000D3*
Y1300000D3*
X2300000Y1100000D3*
Y1300000D3*
X2100000Y1100000D3*
Y1300000D3*
X3100000Y1500000D3*
X2900000D3*
X2700000D3*
X2500000D3*
X2300000D3*
X2200000Y4500000D3*
Y4300000D3*
Y4100000D3*
Y3900000D3*
X2400000Y4500000D3*
Y4300000D3*
Y4100000D3*
Y3900000D3*
X2600000Y4500000D3*
Y4300000D3*
Y4100000D3*
Y3900000D3*
X2800000Y4500000D3*
Y4300000D3*
Y4100000D3*
X2000000Y4300000D3*
X3000000Y4500000D3*
Y4300000D3*
Y4100000D3*
Y3900000D3*
X2000000Y4100000D3*
X3200000Y4300000D3*
Y4100000D3*
Y3900000D3*
X2000000D3*
X1800000Y4300000D3*
Y4100000D3*
Y3900000D3*
X1600000Y4300000D3*
Y4100000D3*
Y3900000D3*
Y3700000D3*
Y3500000D3*
Y3300000D3*
Y3100000D3*
Y2900000D3*
Y2700000D3*
Y2500000D3*
Y2300000D3*
Y2100000D3*
X1400000Y4300000D3*
Y4100000D3*
Y3900000D3*
Y3700000D3*
Y3500000D3*
Y3300000D3*
Y3100000D3*
Y2900000D3*
Y2700000D3*
Y2500000D3*
Y2300000D3*
Y2100000D3*
X2000000Y4500000D3*
X1800000D3*
X1600000D3*
X1400000D3*
Y4700000D3*
X1600000D3*
X1800000D3*
X2000000D3*
X1800000Y4900000D3*
X1600000D3*
X1400000D3*
Y5100000D3*
X1600000D3*
X1400000Y5300000D3*
X7100000Y3200000D3*
Y3000000D3*
Y2800000D3*
Y2600000D3*
Y2400000D3*
Y2200000D3*
Y2000000D3*
Y1800000D3*
Y1600000D3*
X6900000Y3200000D3*
Y3000000D3*
Y2800000D3*
Y2600000D3*
Y2400000D3*
Y2200000D3*
Y2000000D3*
Y1800000D3*
Y1600000D3*
X7100000Y5600000D3*
Y4800000D3*
Y4600000D3*
Y4400000D3*
Y4200000D3*
Y4000000D3*
Y3800000D3*
Y3600000D3*
Y3400000D3*
Y5400000D3*
Y5200000D3*
Y5000000D3*
X6900000Y4400000D3*
Y4200000D3*
Y4000000D3*
Y3800000D3*
Y3600000D3*
Y3400000D3*
X7100000Y6400000D3*
Y6200000D3*
Y6000000D3*
Y5800000D3*
Y7200000D3*
Y7000000D3*
Y6800000D3*
Y6600000D3*
Y7900000D3*
Y8700000D3*
Y8500000D3*
Y8300000D3*
Y8100000D3*
D19*
X3500000Y7400000D3*
D20*
X3850000D3*
X4200000D3*
X4550000D3*
X4900000D3*
X5250000D3*
D21*
X5577813Y3592053D3*
X5323813D3*
X5069813D3*
X4815813D3*
X5577813Y1702903D3*
X5323813D3*
X5069813Y1702927D3*
X4815813D3*
X6927047Y7512767D3*
X6228547D3*
M02*
