%TF.GenerationSoftware,Novarm,DipTrace,3.3.1.3*%
%TF.CreationDate,2020-02-21T13:33:54+01:00*%
%FSLAX35Y35*%
%MOMM*%
%TF.FileFunction,Drawing,Top*%
%TF.Part,Single*%
%ADD10C,0.25*%
%ADD62C,0.07843*%
G75*
G01*
%LPD*%
X5609743Y6401619D2*
D10*
X6117545D1*
Y5639568D1*
X5609743D1*
Y6401619D1*
X2307938Y6369793D2*
X1736168D1*
Y5671572D1*
X2307938D1*
Y6369793D1*
X6979440Y8360780D2*
X6017440D1*
X1096760Y1426553D2*
X2058760D1*
X6979493Y1122540D2*
X6017493D1*
X1096760Y8648920D2*
X2058760D1*
X6748486Y8276017D2*
D62*
Y8327061D1*
X6726586D1*
X6719286Y8324590D1*
X6716872Y8322175D1*
X6714457Y8317346D1*
Y8310046D1*
X6716872Y8305161D1*
X6719286Y8302746D1*
X6726586Y8300331D1*
X6719286Y8297861D1*
X6716872Y8295446D1*
X6714457Y8290617D1*
Y8285731D1*
X6716872Y8280902D1*
X6719286Y8278431D1*
X6726586Y8276017D1*
X6748486D1*
Y8300331D2*
X6726586D1*
X6684171Y8276017D2*
X6689056Y8278431D1*
X6693885Y8283317D1*
X6696356Y8288146D1*
X6698771Y8295446D1*
Y8307631D1*
X6696356Y8314875D1*
X6693885Y8319761D1*
X6689056Y8324590D1*
X6684171Y8327061D1*
X6674456D1*
X6669627Y8324590D1*
X6664742Y8319761D1*
X6662327Y8314875D1*
X6659912Y8307631D1*
Y8295446D1*
X6662327Y8288146D1*
X6664742Y8283317D1*
X6669627Y8278431D1*
X6674456Y8276017D1*
X6684171D1*
X6605312Y8327061D2*
X6624797Y8276017D1*
X6644226Y8327061D1*
X6636926Y8310046D2*
X6612612D1*
X6589625Y8300331D2*
X6567781D1*
X6560481Y8297861D1*
X6558011Y8295446D1*
X6555596Y8290617D1*
Y8285731D1*
X6558011Y8280902D1*
X6560481Y8278431D1*
X6567781Y8276017D1*
X6589625D1*
Y8327061D1*
X6572611Y8300331D2*
X6555596Y8327061D1*
X6539910Y8276017D2*
Y8327061D1*
X6522895D1*
X6515595Y8324590D1*
X6510710Y8319761D1*
X6508295Y8314875D1*
X6505881Y8307631D1*
Y8295446D1*
X6508295Y8288146D1*
X6510710Y8283317D1*
X6515595Y8278431D1*
X6522895Y8276017D1*
X6539910D1*
X6409257D2*
X6440816D1*
Y8327061D1*
X6409257D1*
X6440816Y8300331D2*
X6421386D1*
X6393571Y8276017D2*
Y8327061D1*
X6376556D1*
X6369256Y8324590D1*
X6364371Y8319761D1*
X6361956Y8314875D1*
X6359542Y8307631D1*
Y8295446D1*
X6361956Y8288146D1*
X6364371Y8283317D1*
X6369256Y8278431D1*
X6376556Y8276017D1*
X6393571D1*
X6307412Y8288146D2*
X6309826Y8283317D1*
X6314712Y8278431D1*
X6319541Y8276017D1*
X6329255D1*
X6334141Y8278431D1*
X6338970Y8283317D1*
X6341441Y8288146D1*
X6343855Y8295446D1*
Y8307631D1*
X6341441Y8314875D1*
X6338970Y8319761D1*
X6334141Y8324590D1*
X6329255Y8327061D1*
X6319541D1*
X6314712Y8324590D1*
X6309826Y8319761D1*
X6307412Y8314875D1*
Y8307631D1*
X6319541D1*
X6260167Y8276017D2*
X6291725D1*
Y8327061D1*
X6260167D1*
X6291725Y8300331D2*
X6272296D1*
X1327714Y1511317D2*
Y1460273D1*
X1349614D1*
X1356914Y1462744D1*
X1359328Y1465158D1*
X1361743Y1469987D1*
Y1477287D1*
X1359328Y1482173D1*
X1356914Y1484587D1*
X1349614Y1487002D1*
X1356914Y1489473D1*
X1359328Y1491887D1*
X1361743Y1496717D1*
Y1501602D1*
X1359328Y1506431D1*
X1356914Y1508902D1*
X1349614Y1511317D1*
X1327714D1*
Y1487002D2*
X1349614D1*
X1392029Y1511317D2*
X1387144Y1508902D1*
X1382314Y1504017D1*
X1379844Y1499187D1*
X1377429Y1491887D1*
Y1479702D1*
X1379844Y1472458D1*
X1382314Y1467573D1*
X1387144Y1462744D1*
X1392029Y1460273D1*
X1401744D1*
X1406573Y1462744D1*
X1411458Y1467573D1*
X1413873Y1472458D1*
X1416288Y1479702D1*
Y1491887D1*
X1413873Y1499187D1*
X1411458Y1504017D1*
X1406573Y1508902D1*
X1401744Y1511317D1*
X1392029D1*
X1470888Y1460273D2*
X1451403Y1511317D1*
X1431974Y1460273D1*
X1439274Y1477287D2*
X1463588D1*
X1486575Y1487002D2*
X1508419D1*
X1515719Y1489473D1*
X1518189Y1491887D1*
X1520604Y1496717D1*
Y1501602D1*
X1518189Y1506431D1*
X1515719Y1508902D1*
X1508419Y1511317D1*
X1486575D1*
Y1460273D1*
X1503589Y1487002D2*
X1520604Y1460273D1*
X1536290Y1511317D2*
Y1460273D1*
X1553305D1*
X1560605Y1462744D1*
X1565490Y1467573D1*
X1567905Y1472458D1*
X1570319Y1479702D1*
Y1491887D1*
X1567905Y1499187D1*
X1565490Y1504017D1*
X1560605Y1508902D1*
X1553305Y1511317D1*
X1536290D1*
X1666943D2*
X1635384D1*
Y1460273D1*
X1666943D1*
X1635384Y1487002D2*
X1654814D1*
X1682629Y1511317D2*
Y1460273D1*
X1699644D1*
X1706944Y1462744D1*
X1711829Y1467573D1*
X1714244Y1472458D1*
X1716658Y1479702D1*
Y1491887D1*
X1714244Y1499187D1*
X1711829Y1504017D1*
X1706944Y1508902D1*
X1699644Y1511317D1*
X1682629D1*
X1768788Y1499187D2*
X1766374Y1504017D1*
X1761488Y1508902D1*
X1756659Y1511317D1*
X1746945D1*
X1742059Y1508902D1*
X1737230Y1504017D1*
X1734759Y1499187D1*
X1732345Y1491887D1*
Y1479702D1*
X1734759Y1472458D1*
X1737230Y1467573D1*
X1742059Y1462744D1*
X1746945Y1460273D1*
X1756659D1*
X1761488Y1462744D1*
X1766374Y1467573D1*
X1768788Y1472458D1*
Y1479702D1*
X1756659D1*
X1816033Y1511317D2*
X1784475D1*
Y1460273D1*
X1816033D1*
X1784475Y1487002D2*
X1803904D1*
X6748539Y1037777D2*
Y1088821D1*
X6726640D1*
X6719340Y1086350D1*
X6716925Y1083935D1*
X6714510Y1079106D1*
Y1071806D1*
X6716925Y1066921D1*
X6719340Y1064506D1*
X6726639Y1062091D1*
X6719340Y1059621D1*
X6716925Y1057206D1*
X6714510Y1052377D1*
Y1047491D1*
X6716925Y1042662D1*
X6719339Y1040191D1*
X6726639Y1037777D1*
X6748539D1*
Y1062091D2*
X6726639D1*
X6684224Y1037777D2*
X6689109Y1040191D1*
X6693939Y1045077D1*
X6696409Y1049906D1*
X6698824Y1057206D1*
Y1069391D1*
X6696410Y1076635D1*
X6693939Y1081521D1*
X6689110Y1086350D1*
X6684224Y1088821D1*
X6674510D1*
X6669680Y1086350D1*
X6664795Y1081521D1*
X6662380Y1076635D1*
X6659966Y1069391D1*
Y1057206D1*
X6662380Y1049906D1*
X6664795Y1045077D1*
X6669680Y1040191D1*
X6674509Y1037777D1*
X6684224D1*
X6605365Y1088821D2*
X6624850Y1037777D1*
X6644280Y1088821D1*
X6636979Y1071806D2*
X6612665D1*
X6589679Y1062091D2*
X6567835D1*
X6560535Y1059621D1*
X6558064Y1057206D1*
X6555649Y1052377D1*
Y1047491D1*
X6558064Y1042662D1*
X6560535Y1040191D1*
X6567835Y1037777D1*
X6589679D1*
Y1088821D1*
X6572664Y1062091D2*
X6555649Y1088821D1*
X6539963Y1037777D2*
Y1088821D1*
X6522949D1*
X6515649Y1086350D1*
X6510763Y1081521D1*
X6508349Y1076635D1*
X6505934Y1069391D1*
Y1057206D1*
X6508348Y1049906D1*
X6510763Y1045077D1*
X6515648Y1040191D1*
X6522948Y1037777D1*
X6539963D1*
X6409311D2*
X6440869D1*
Y1088821D1*
X6409311D1*
X6440869Y1062091D2*
X6421440D1*
X6393624Y1037777D2*
Y1088821D1*
X6376610D1*
X6369310Y1086350D1*
X6364424Y1081521D1*
X6362010Y1076635D1*
X6359595Y1069391D1*
Y1057206D1*
X6362010Y1049906D1*
X6364424Y1045077D1*
X6369310Y1040191D1*
X6376610Y1037777D1*
X6393624D1*
X6307465Y1049906D2*
X6309880Y1045077D1*
X6314765Y1040191D1*
X6319594Y1037777D1*
X6329309D1*
X6334194Y1040191D1*
X6339023Y1045077D1*
X6341494Y1049906D1*
X6343909Y1057206D1*
Y1069391D1*
X6341494Y1076635D1*
X6339023Y1081521D1*
X6334194Y1086350D1*
X6329309Y1088821D1*
X6319594D1*
X6314765Y1086350D1*
X6309880Y1081521D1*
X6307465Y1076635D1*
Y1069391D1*
X6319594D1*
X6260220Y1037777D2*
X6291779D1*
Y1088821D1*
X6260220D1*
X6291779Y1062091D2*
X6272349D1*
X1327714Y8733683D2*
Y8682639D1*
X1349614D1*
X1356914Y8685110D1*
X1359328Y8687525D1*
X1361743Y8692354D1*
Y8699654D1*
X1359328Y8704539D1*
X1356914Y8706954D1*
X1349614Y8709369D1*
X1356914Y8711839D1*
X1359328Y8714254D1*
X1361743Y8719083D1*
Y8723969D1*
X1359328Y8728798D1*
X1356914Y8731269D1*
X1349614Y8733683D1*
X1327714D1*
Y8709369D2*
X1349614D1*
X1392029Y8733683D2*
X1387144Y8731269D1*
X1382314Y8726383D1*
X1379844Y8721554D1*
X1377429Y8714254D1*
Y8702069D1*
X1379844Y8694825D1*
X1382314Y8689939D1*
X1387144Y8685110D1*
X1392029Y8682639D1*
X1401744D1*
X1406573Y8685110D1*
X1411458Y8689939D1*
X1413873Y8694825D1*
X1416288Y8702069D1*
Y8714254D1*
X1413873Y8721554D1*
X1411458Y8726383D1*
X1406573Y8731269D1*
X1401744Y8733683D1*
X1392029D1*
X1470888Y8682639D2*
X1451403Y8733683D1*
X1431974Y8682639D1*
X1439274Y8699654D2*
X1463588D1*
X1486575Y8709369D2*
X1508419D1*
X1515719Y8711839D1*
X1518189Y8714254D1*
X1520604Y8719083D1*
Y8723969D1*
X1518189Y8728798D1*
X1515719Y8731269D1*
X1508419Y8733683D1*
X1486575D1*
Y8682639D1*
X1503589Y8709369D2*
X1520604Y8682639D1*
X1536290Y8733683D2*
Y8682639D1*
X1553305D1*
X1560605Y8685110D1*
X1565490Y8689939D1*
X1567905Y8694825D1*
X1570319Y8702069D1*
Y8714254D1*
X1567905Y8721554D1*
X1565490Y8726383D1*
X1560605Y8731269D1*
X1553305Y8733683D1*
X1536290D1*
X1666943D2*
X1635384D1*
Y8682639D1*
X1666943D1*
X1635384Y8709369D2*
X1654814D1*
X1682629Y8733683D2*
Y8682639D1*
X1699644D1*
X1706944Y8685110D1*
X1711829Y8689939D1*
X1714244Y8694825D1*
X1716658Y8702069D1*
Y8714254D1*
X1714244Y8721554D1*
X1711829Y8726383D1*
X1706944Y8731269D1*
X1699644Y8733683D1*
X1682629D1*
X1768788Y8721554D2*
X1766374Y8726383D1*
X1761488Y8731269D1*
X1756659Y8733683D1*
X1746945D1*
X1742059Y8731269D1*
X1737230Y8726383D1*
X1734759Y8721554D1*
X1732345Y8714254D1*
Y8702069D1*
X1734759Y8694825D1*
X1737230Y8689939D1*
X1742059Y8685110D1*
X1746945Y8682639D1*
X1756659D1*
X1761488Y8685110D1*
X1766374Y8689939D1*
X1768788Y8694825D1*
Y8702069D1*
X1756659D1*
X1816033Y8733683D2*
X1784475D1*
Y8682639D1*
X1816033D1*
X1784475Y8709369D2*
X1803904D1*
M02*
