%TF.GenerationSoftware,Novarm,DipTrace,3.3.1.3*%
%TF.CreationDate,2020-02-21T13:35:17+01:00*%
%FSLAX35Y35*%
%MOMM*%
%TF.FileFunction,Plated,1,2,PTH,Drill*%
%TF.Part,Single*%
%TA.AperFunction,ViaDrill*%
%ADD33C,0.48567*%
%TA.AperFunction,ComponentDrill*%
%ADD35C,1.1*%
%ADD36C,0.9*%
%ADD37C,1.0*%
%ADD38C,1.4*%
G75*
G01*
D35*
X5302165Y6446665D3*
Y6700665D3*
Y6954665D3*
X2762165Y2255665D3*
X2508165D3*
X2254165D3*
X2000165D3*
D36*
X3143165D3*
X3397165D3*
X3651165D3*
X3905165D3*
X4159165D3*
X4413165D3*
X4667165D3*
X4921165D3*
X5460855Y6065665D3*
X5206855D3*
X4952855D3*
X4698855D3*
X4444855D3*
X4190855D3*
X3936855D3*
X3682855D3*
X3428855D3*
X3174855D3*
X2920855D3*
X2666855D3*
X2412855D3*
X2158855D3*
X1904855D3*
Y4541665D3*
X2158855D3*
X2412855D3*
X2666855D3*
X2920855D3*
X3174855D3*
X3428855D3*
X3682855D3*
X3936855D3*
X4190855D3*
X4444855D3*
X4698855D3*
X4952855D3*
X5206855D3*
X5460855D3*
D37*
X2254165Y4033665D3*
X2000165Y4033991D3*
X1746165Y4034315D3*
X1492165Y4034641D3*
D36*
X4413165Y6954665D3*
Y6446665D3*
D35*
X6572165Y7335665D3*
X6318165D3*
X6064165D3*
X6572165Y1239665D3*
X6318165D3*
X6064165D3*
X1238165D3*
X1492165D3*
X1746165D3*
X1238165Y7208665D3*
X1492165D3*
X1746165D3*
X5556165Y2255665D3*
X5302165D3*
D36*
X2762165Y1620665D3*
X3016165D3*
X2762165Y1874665D3*
X3016165D3*
X3270165Y1620665D3*
Y1874665D3*
X3524165Y1620665D3*
Y1874665D3*
X3778165Y1620665D3*
Y1874665D3*
X4032165Y1620665D3*
Y1874665D3*
X4286165Y1620665D3*
Y1874665D3*
X4540165Y1620665D3*
Y1874665D3*
X4794165Y1620665D3*
Y1874665D3*
X5048165Y1620665D3*
Y1874665D3*
X5302165Y1620665D3*
Y1874665D3*
X5556165Y1620665D3*
Y1874665D3*
X2508165Y1620665D3*
Y1874665D3*
X2254165Y1620665D3*
Y1874665D3*
X6445165Y2636665D3*
X6191165D3*
X6445165Y2382665D3*
X6191165D3*
X6445165Y2128665D3*
X6191165D3*
X6445165Y1874665D3*
X6191165D3*
X6445165Y1620665D3*
X6191165D3*
X5873665Y2636665D3*
Y2382665D3*
Y2128665D3*
Y1874665D3*
Y1620665D3*
X6318165Y6954665D3*
Y4541665D3*
Y6700665D3*
Y4287665D3*
X5746665Y6954665D3*
Y6700665D3*
X6318165Y6446665D3*
Y4033665D3*
X5746665Y6446665D3*
X6318165Y5557665D3*
X1555665Y6954665D3*
X6318165Y5303665D3*
X1555665Y6700665D3*
X6318165Y4795665D3*
Y5049665D3*
X1555665Y6446665D3*
D38*
X2000165Y6573665D3*
X2350165D3*
X2700165D3*
X3050165D3*
X3400165D3*
X3750165D3*
D37*
X4413165Y4160665D3*
X4159165D3*
X3905168D3*
X3651168D3*
X3397168D3*
X3143168D3*
X2889165D3*
X2635165D3*
X5810165Y3779665D3*
Y3081165D3*
D38*
X3270165Y6954665D3*
X3620165D3*
D33*
X4066355Y4868875D3*
X2896765D3*
X4542665Y6700665D3*
X5442165Y4210465D3*
X3015595Y3722875D3*
Y3989475D3*
X5217155Y3757165D3*
X4005465Y3097995D3*
X3760675Y3506565D3*
X3682855Y5783835D3*
X5542465Y4357545D3*
X3193955Y3298605D3*
X4444855Y6281495D3*
X4646165Y5392765D3*
X4360665D3*
X4557665Y4006965D3*
X3553355Y4429375D3*
M02*
