%TF.GenerationSoftware,Novarm,DipTrace,3.3.1.3*%
%TF.CreationDate,2020-02-21T13:35:10+01:00*%
%FSLAX35Y35*%
%MOMM*%
%TF.FileFunction,Copper,L1,Top*%
%TF.Part,Single*%
%TA.AperFunction,Conductor*%
%ADD14C,0.33*%
%TA.AperFunction,CopperBalancing*%
%ADD15C,0.635*%
%TA.AperFunction,ComponentPad*%
%ADD16R,1.9X1.9*%
%ADD17C,1.9*%
%ADD18R,1.7X1.7*%
%ADD19C,1.7*%
%ADD20R,1.5X1.5*%
%ADD21C,1.5*%
%ADD22C,1.9*%
%ADD23C,1.6*%
%ADD24R,1.6X1.6*%
%ADD28C,1.5*%
%ADD30R,2.3X2.3*%
%ADD31C,2.3*%
%TA.AperFunction,ViaPad*%
%ADD32C,1.016*%
G75*
G01*
%LPD*%
X3651165Y2255665D2*
D14*
Y2001665D1*
X3778165Y1874665D1*
Y1620665D1*
X4159165Y4160665D2*
Y3906665D1*
X5175165D1*
Y4541665D1*
X5206855D1*
X5302165Y6700665D2*
X4542665D1*
X2896765Y4868875D2*
X4066355D1*
X4413165Y6954665D2*
X3620165D1*
X4542665Y6700665D2*
X4413165D1*
Y6954665D1*
X4667165D1*
X4730665Y7018165D1*
X5442165Y4210465D2*
X5331355Y4321275D1*
Y4600165D1*
X5265355Y4666165D1*
X4872858D1*
X4748355Y4541665D1*
X4698855D1*
X4413165Y6446665D2*
X4110675D1*
X3983675Y6573665D1*
X3750165D1*
X4698855Y4541665D2*
X4508355Y4732165D1*
X3111355D1*
X3045355Y4666165D1*
Y4437165D1*
X2979355Y4371165D1*
X2320168D1*
X2254165Y4305161D1*
Y4033665D1*
X3682855Y4541665D2*
Y4192351D1*
X3651168Y4160665D1*
X3015595Y3989475D2*
Y3722875D1*
X5217155Y3757165D2*
X3717168D1*
X3651168Y3823165D1*
Y4160665D1*
X5302165Y2255665D2*
Y1874665D1*
Y1620665D1*
X3905168Y4160665D2*
Y4414661D1*
X3936855Y4446348D1*
Y4541665D1*
X4005465Y3097995D2*
X1812168D1*
X1746165Y3163998D1*
Y4034315D1*
X5556165Y2255665D2*
X4305265Y3506565D1*
X3760675D1*
X5556165Y2255665D2*
Y1874665D1*
Y1620665D1*
X3936855Y6065665D2*
X4118385Y5884135D1*
X6506161D1*
X6572165Y5950135D1*
Y7335665D1*
X3682855Y5783835D2*
X6506165D1*
X6572165Y5717835D1*
Y1239665D1*
X1904855Y6065665D2*
X2814905Y5155615D1*
X5954665D1*
X6020665Y5089615D1*
Y3291665D1*
X5810165Y3081165D1*
X3193955Y3298605D2*
X3502215Y3606865D1*
X5476465D1*
X5542465Y3672865D1*
Y4357545D1*
X2000165Y2255665D2*
Y2128665D1*
X2254165Y1874665D1*
Y1620665D1*
Y2255665D2*
Y2128665D1*
X2508165Y1874665D1*
Y1620665D1*
X4444855Y6281495D2*
X1281655D1*
X1111165Y6111005D1*
Y2884155D1*
X1281661Y2713658D1*
X2050171D1*
X2508165Y2255665D1*
Y2128665D1*
X2762165Y1874665D1*
Y1620665D1*
Y2255665D2*
X2238165Y2779665D1*
X1347655D1*
X1238165Y2889155D1*
Y6106005D1*
X1347655Y6215495D1*
X4041025D1*
X4190855Y6065665D1*
X2762165Y2255665D2*
Y2128665D1*
X3016165Y1874665D1*
Y1620665D1*
X4360665Y5392765D2*
X4646165D1*
X2920855Y4541665D2*
X2771025Y4691495D1*
X1413655D1*
X1365165Y4643005D1*
Y3048785D1*
X1413655Y3000295D1*
X3160535D1*
X3905165Y2255665D1*
Y2001665D1*
X4032165Y1874665D1*
Y1620665D1*
X4159165Y2255665D2*
Y3132295D1*
X4093165Y3198295D1*
X2556655D1*
X2490655Y3264295D1*
Y4239165D1*
X2556655Y4305165D1*
X3108855D1*
X3174855Y4371165D1*
Y4541665D1*
X4159165Y2255665D2*
Y2001665D1*
X4286165Y1874665D1*
Y1620665D1*
X3553355Y4429375D2*
Y4600165D1*
X3619355Y4666165D1*
X4249355D1*
X4315355Y4600165D1*
Y4469825D1*
X4557665Y4227515D1*
Y4006965D1*
X4413165Y2255665D2*
Y2001665D1*
X4540165Y1874665D1*
Y1620665D1*
X3397165Y2255665D2*
Y2001665D1*
X3524165Y1874665D1*
Y1620665D1*
X4667165Y2255665D2*
Y2001665D1*
X4794165Y1874665D1*
Y1620665D1*
X4921165Y2255665D2*
Y2001665D1*
X5048165Y1874665D1*
Y1620665D1*
X6064165Y7335665D2*
X5289135D1*
X5162135Y7208665D1*
X1746165D1*
X6064165Y1239665D2*
X1746165D1*
X3143165Y2255665D2*
Y2001665D1*
X3270165Y1874665D1*
Y1620665D1*
X6445165Y2636665D2*
X5873665D1*
Y2382665D2*
X6445165D1*
Y2128665D2*
X5873665D1*
Y1874665D2*
X6445165D1*
Y1620665D2*
X5873665D1*
X6318165Y5557665D2*
Y5049665D1*
Y4795665D2*
Y4287665D1*
Y4033665D2*
Y4287665D1*
Y6954665D2*
X5746665D1*
Y6700665D2*
X6318165D1*
Y6446665D2*
X5746665D1*
D32*
X4066355Y4868875D3*
X2896765D3*
X4542665Y6700665D3*
X5442165Y4210465D3*
X3015595Y3722875D3*
Y3989475D3*
X5217155Y3757165D3*
X4005465Y3097995D3*
X3760675Y3506565D3*
X3682855Y5783835D3*
X5542465Y4357545D3*
X3193955Y3298605D3*
X4444855Y6281495D3*
X4646165Y5392765D3*
X4360665D3*
X4557665Y4006965D3*
X3553355Y4429375D3*
X1022311Y7494748D2*
D15*
X5997658D1*
X6130668D2*
X6251588D1*
X1022311Y7431581D2*
X5249351D1*
X1022311Y7368415D2*
X1061745D1*
X1556881D2*
X1681445D1*
X1810905D2*
X5171875D1*
X1022311Y7305248D2*
X1061745D1*
X1022311Y7242081D2*
X1061745D1*
X1022311Y7178915D2*
X1061745D1*
X5282375D2*
X5991825D1*
X6136501D2*
X6245755D1*
X1022311Y7115748D2*
X1061745D1*
X5389015D2*
X6464231D1*
X6680098D2*
X6729195D1*
X1022311Y7052581D2*
X1061745D1*
X1820111D2*
X3063765D1*
X4552388D2*
X5144715D1*
X5459655D2*
X5613661D1*
X6680098D2*
X6729741D1*
X1022311Y6989415D2*
X1393061D1*
X1718301D2*
X3063765D1*
X4580918D2*
X5119101D1*
X5485175D2*
X5584038D1*
X6680098D2*
X6730378D1*
X1022311Y6926248D2*
X1391785D1*
X1719575D2*
X3063765D1*
X4582101D2*
X5118008D1*
X5486361D2*
X5582761D1*
X6680098D2*
X6731018D1*
X1022311Y6863081D2*
X1418035D1*
X1693325D2*
X3063765D1*
X4556855D2*
X5140795D1*
X5463575D2*
X5609011D1*
X6680098D2*
X6731655D1*
X1022311Y6799915D2*
X1423685D1*
X1687585D2*
X3063765D1*
X3753311D2*
X4305261D1*
X5458741D2*
X5614661D1*
X6680098D2*
X6732201D1*
X1022311Y6736748D2*
X1393335D1*
X1718028D2*
X1793738D1*
X2206568D2*
X2227865D1*
X2472441D2*
X2577865D1*
X2822441D2*
X2927865D1*
X3172441D2*
X3277865D1*
X3522441D2*
X3627865D1*
X3872441D2*
X4305261D1*
X5484991D2*
X5584311D1*
X6680098D2*
X6732838D1*
X1022311Y6673581D2*
X1391511D1*
X1719758D2*
X1793738D1*
X4008431D2*
X4308908D1*
X5486541D2*
X5582488D1*
X6680098D2*
X6733478D1*
X1022311Y6610415D2*
X1417125D1*
X1694238D2*
X1793738D1*
X4096931D2*
X4241731D1*
X5488638D2*
X5608101D1*
X6680098D2*
X6734115D1*
X1022311Y6547248D2*
X1424778D1*
X1686581D2*
X1793738D1*
X4584561D2*
X5115731D1*
X5488638D2*
X5615755D1*
X6680098D2*
X6734661D1*
X1022311Y6484081D2*
X1393698D1*
X1717661D2*
X1793738D1*
X4584561D2*
X5115731D1*
X5488638D2*
X5584675D1*
X6680098D2*
X6735301D1*
X1022311Y6420915D2*
X1391328D1*
X1720031D2*
X1793738D1*
X2485748D2*
X2564558D1*
X2835748D2*
X2914558D1*
X3185748D2*
X3264558D1*
X3535748D2*
X3614558D1*
X3885748D2*
X3986435D1*
X4584561D2*
X5115731D1*
X5488638D2*
X5582305D1*
X6680098D2*
X6735938D1*
X1022311Y6357748D2*
X1208218D1*
X4584561D2*
X5115731D1*
X5488638D2*
X5607188D1*
X6680098D2*
X6736485D1*
X1022311Y6294581D2*
X1144688D1*
X4586478D2*
X5115731D1*
X5488638D2*
X5690315D1*
X5803001D2*
X6261798D1*
X6374485D2*
X6464231D1*
X6680098D2*
X6737125D1*
X1022311Y6231415D2*
X1081525D1*
X4577545D2*
X5683385D1*
X5746308D2*
X6464231D1*
X6680098D2*
X6737761D1*
X5853768Y6168248D2*
X6464231D1*
X6680098D2*
X6738398D1*
X1387258Y6105081D2*
X1481565D1*
X5884121D2*
X6464231D1*
X6680098D2*
X6738945D1*
X1346061Y6041915D2*
X1478555D1*
X5887128D2*
X6464231D1*
X6680098D2*
X6739585D1*
X1346061Y5978748D2*
X1501161D1*
X6680098D2*
X6740221D1*
X1346061Y5915581D2*
X1569791D1*
X1731881D2*
X1842775D1*
X2220878D2*
X2350821D1*
X2474901D2*
X2604755D1*
X2728925D2*
X2858778D1*
X2982948D2*
X3112801D1*
X3236881D2*
X3366825D1*
X3490905D2*
X3620755D1*
X3744928D2*
X3874778D1*
X6674081D2*
X6740861D1*
X1346061Y5852415D2*
X1968101D1*
X2268091D2*
X3559231D1*
X6624498D2*
X6741408D1*
X1346061Y5789248D2*
X2031265D1*
X2331255D2*
X3540731D1*
X6650748D2*
X6742045D1*
X1346061Y5726081D2*
X2094428D1*
X2394418D2*
X3553491D1*
X6679731D2*
X6742685D1*
X1346061Y5662915D2*
X2157591D1*
X2457585D2*
X3614468D1*
X3751218D2*
X6191161D1*
X6680098D2*
X6743231D1*
X1346061Y5599748D2*
X2220755D1*
X2520748D2*
X6157345D1*
X6680098D2*
X6743868D1*
X1346061Y5536581D2*
X2283921D1*
X2584001D2*
X6153151D1*
X6680098D2*
X6744505D1*
X1346061Y5473415D2*
X2347085D1*
X2647168D2*
X4244921D1*
X4761841D2*
X6175665D1*
X6680098D2*
X6745145D1*
X1346061Y5410248D2*
X2410248D1*
X2710331D2*
X4219585D1*
X4787271D2*
X6192345D1*
X6443938D2*
X6464251D1*
X6680098D2*
X6745691D1*
X1346061Y5347081D2*
X2473411D1*
X2773495D2*
X4226328D1*
X4780528D2*
X6157708D1*
X6680098D2*
X6746328D1*
X1346061Y5283915D2*
X2536578D1*
X2836658D2*
X4272995D1*
X4448391D2*
X4558465D1*
X4733861D2*
X6152968D1*
X6680098D2*
X6746968D1*
X1346061Y5220748D2*
X2599741D1*
X6039525D2*
X6174845D1*
X6680098D2*
X6747605D1*
X1346061Y5157581D2*
X2662905D1*
X6102505D2*
X6193528D1*
X6442751D2*
X6464241D1*
X6680098D2*
X6748151D1*
X1346061Y5094415D2*
X2726068D1*
X6128481D2*
X6158075D1*
X6680098D2*
X6748791D1*
X1346061Y5031248D2*
X5912708D1*
X6128575D2*
X6152788D1*
X6680098D2*
X6749428D1*
X1346061Y4968081D2*
X2797528D1*
X4165565D2*
X5912708D1*
X6128575D2*
X6174115D1*
X6680098D2*
X6749975D1*
X1346061Y4904915D2*
X2759428D1*
X4203755D2*
X5912708D1*
X6128575D2*
X6194805D1*
X6441568D2*
X6464238D1*
X6680098D2*
X6750611D1*
X1346061Y4841748D2*
X2757241D1*
X4205851D2*
X5912708D1*
X6128575D2*
X6158528D1*
X6680098D2*
X6751251D1*
X4611998Y4778581D2*
X5912708D1*
X6128575D2*
X6152605D1*
X6680098D2*
X6751888D1*
X2897088Y4715415D2*
X2950195D1*
X4675161D2*
X4772111D1*
X5366138D2*
X5912708D1*
X6128575D2*
X6173295D1*
X6680098D2*
X6752435D1*
X5847205Y4652248D2*
X5912708D1*
X6128575D2*
X6196081D1*
X6440291D2*
X6464235D1*
X6680098D2*
X6753075D1*
X5882025Y4589081D2*
X5912708D1*
X6128575D2*
X6158895D1*
X6680098D2*
X6753711D1*
X5888131Y4525915D2*
X5912708D1*
X6128575D2*
X6152515D1*
X6680098D2*
X6754351D1*
X1473118Y4462748D2*
X1496581D1*
X5869081D2*
X5912708D1*
X6128575D2*
X6172565D1*
X6680098D2*
X6754898D1*
X1473118Y4399581D2*
X1555575D1*
X1746191D2*
X1824728D1*
X1984991D2*
X2078751D1*
X3282818D2*
X3348778D1*
X4033405D2*
X4110755D1*
X4535618D2*
X4618711D1*
X4778978D2*
X4872735D1*
X5033001D2*
X5067241D1*
X5810201D2*
X5912708D1*
X6128575D2*
X6197358D1*
X6439015D2*
X6464245D1*
X6680098D2*
X6755535D1*
X1473118Y4336415D2*
X2151121D1*
X3276711D2*
X3351511D1*
X4013078D2*
X4113491D1*
X4204848D2*
X4298791D1*
X4598781D2*
X5067241D1*
X5683051D2*
X5912708D1*
X6128575D2*
X6159351D1*
X6680098D2*
X6756171D1*
X1473118Y4273248D2*
X2146198D1*
X4654745D2*
X5067241D1*
X5655435D2*
X5912708D1*
X6128575D2*
X6152331D1*
X6680098D2*
X6756718D1*
X1539198Y4210081D2*
X1700588D1*
X1791765D2*
X1956068D1*
X2044238D2*
X2146198D1*
X2362061D2*
X2382701D1*
X4665591D2*
X5067241D1*
X5650421D2*
X5912708D1*
X6128575D2*
X6171745D1*
X6680098D2*
X6757358D1*
X4665591Y4146915D2*
X5067241D1*
X5283105D2*
X5315705D1*
X5650421D2*
X5912708D1*
X6128575D2*
X6198635D1*
X6437648D2*
X6464248D1*
X6680098D2*
X6757995D1*
X4676165Y4083748D2*
X5067241D1*
X5283105D2*
X5386708D1*
X5650421D2*
X5912708D1*
X6128575D2*
X6159805D1*
X6680098D2*
X6758635D1*
X4699225Y4020581D2*
X5067241D1*
X5283105D2*
X5434558D1*
X5650421D2*
X5912708D1*
X6128575D2*
X6152241D1*
X6680098D2*
X6759181D1*
X2598585Y3957415D2*
X2877188D1*
X3154028D2*
X3543191D1*
X3759145D2*
X4051238D1*
X5283105D2*
X5434558D1*
X5650421D2*
X5774898D1*
X5845475D2*
X5912708D1*
X6128575D2*
X6171018D1*
X6680098D2*
X6759818D1*
X2598585Y3894248D2*
X2907631D1*
X3123495D2*
X3543191D1*
X3759145D2*
X4051968D1*
X5282375D2*
X5434558D1*
X6128575D2*
X6233088D1*
X6403195D2*
X6464231D1*
X6680098D2*
X6760458D1*
X1473118Y3831081D2*
X1638245D1*
X1854108D2*
X2382721D1*
X2598585D2*
X2907631D1*
X3123495D2*
X3543191D1*
X5337518D2*
X5434558D1*
X6128575D2*
X6464231D1*
X6680098D2*
X6761095D1*
X1473118Y3767915D2*
X1638245D1*
X1854108D2*
X2382721D1*
X2598585D2*
X2881018D1*
X3150111D2*
X3559598D1*
X5358938D2*
X5434558D1*
X6128575D2*
X6464231D1*
X6680098D2*
X6761641D1*
X1473118Y3704748D2*
X1638245D1*
X1854108D2*
X2382721D1*
X2598585D2*
X2874545D1*
X3156581D2*
X3468635D1*
X6128575D2*
X6464231D1*
X6680098D2*
X6762278D1*
X1473118Y3641581D2*
X1638245D1*
X1854108D2*
X2382721D1*
X2598585D2*
X2900338D1*
X3130878D2*
X3386875D1*
X5645501D2*
X5688218D1*
X6128575D2*
X6464231D1*
X6680098D2*
X6762918D1*
X1473118Y3578415D2*
X1638245D1*
X1854108D2*
X2382721D1*
X2598585D2*
X3323711D1*
X5598015D2*
X5912708D1*
X6128575D2*
X6464231D1*
X6680098D2*
X6763465D1*
X1473118Y3515248D2*
X1638245D1*
X1854108D2*
X2382721D1*
X2598585D2*
X3260548D1*
X5526738D2*
X5912708D1*
X6128575D2*
X6464231D1*
X6680098D2*
X6764101D1*
X1473118Y3452081D2*
X1638245D1*
X1854108D2*
X2382721D1*
X2598585D2*
X3197385D1*
X3497468D2*
X3629871D1*
X4509731D2*
X5912708D1*
X6128575D2*
X6464231D1*
X6680098D2*
X6764741D1*
X1473118Y3388915D2*
X1638245D1*
X1854108D2*
X2382721D1*
X2598585D2*
X3086095D1*
X3434301D2*
X3686291D1*
X3835071D2*
X4272905D1*
X4572895D2*
X5912708D1*
X6128575D2*
X6464231D1*
X6680098D2*
X6765378D1*
X1473118Y3325748D2*
X1638245D1*
X1854108D2*
X2382721D1*
X2598585D2*
X3054468D1*
X3371138D2*
X4336068D1*
X4636061D2*
X5904688D1*
X6128575D2*
X6464231D1*
X6680098D2*
X6765925D1*
X1473118Y3262581D2*
X1638245D1*
X1854108D2*
X2382721D1*
X4178871D2*
X4399231D1*
X4699225D2*
X5841525D1*
X6124381D2*
X6464231D1*
X6680098D2*
X6766565D1*
X1473118Y3199415D2*
X1638245D1*
X4241765D2*
X4462398D1*
X4762478D2*
X5667981D1*
X6078445D2*
X6464231D1*
X6680098D2*
X6767201D1*
X1473118Y3136248D2*
X1642071D1*
X4267011D2*
X4525561D1*
X4825645D2*
X5632345D1*
X6015278D2*
X6464231D1*
X6680098D2*
X6767838D1*
X4267101Y3073081D2*
X4588725D1*
X4888808D2*
X5623868D1*
X5996411D2*
X6464231D1*
X6680098D2*
X6768385D1*
X4267101Y3009915D2*
X4651888D1*
X4951971D2*
X5638451D1*
X5981918D2*
X6464231D1*
X6680098D2*
X6769025D1*
X3364121Y2946748D2*
X4051238D1*
X4267101D2*
X4715051D1*
X5015135D2*
X5683935D1*
X5936348D2*
X6464231D1*
X6680098D2*
X6769661D1*
X1393728Y2883581D2*
X3127201D1*
X3427285D2*
X4051238D1*
X4267101D2*
X4778218D1*
X5078301D2*
X6464231D1*
X6680098D2*
X6770208D1*
X2347478Y2820415D2*
X3190365D1*
X3490448D2*
X4051238D1*
X4267101D2*
X4841381D1*
X5141465D2*
X6464231D1*
X6680098D2*
X6770848D1*
X1022311Y2757248D2*
X1088088D1*
X2410645D2*
X3253528D1*
X3553611D2*
X4051238D1*
X4267101D2*
X4904545D1*
X5204628D2*
X5762045D1*
X5985291D2*
X6079505D1*
X6302845D2*
X6333528D1*
X6680098D2*
X6771485D1*
X1022311Y2694081D2*
X1151251D1*
X2473808D2*
X3316695D1*
X3616778D2*
X4051238D1*
X4267101D2*
X4967708D1*
X5267791D2*
X5717838D1*
X6680098D2*
X6772125D1*
X1022311Y2630915D2*
X1216328D1*
X2536971D2*
X3379858D1*
X3679941D2*
X4051238D1*
X4267101D2*
X5030875D1*
X5330955D2*
X5707358D1*
X6680098D2*
X6772671D1*
X1022311Y2567748D2*
X2046028D1*
X2600135D2*
X3443021D1*
X3743105D2*
X4051238D1*
X4267101D2*
X5094038D1*
X5394121D2*
X5722851D1*
X6680098D2*
X6773308D1*
X1022311Y2504581D2*
X2109195D1*
X2663301D2*
X3506185D1*
X3806268D2*
X4051238D1*
X4267101D2*
X5157201D1*
X5457285D2*
X5763595D1*
X5983741D2*
X6081055D1*
X6680098D2*
X6773945D1*
X1022311Y2441415D2*
X2172358D1*
X2726465D2*
X3569351D1*
X3869431D2*
X4051238D1*
X4267101D2*
X5220365D1*
X5520448D2*
X5718385D1*
X6680098D2*
X6774585D1*
X1022311Y2378248D2*
X1875861D1*
X2938561D2*
X2976718D1*
X3506491D2*
X3541825D1*
X4014445D2*
X4049871D1*
X4268468D2*
X4303801D1*
X4522491D2*
X4557828D1*
X4776515D2*
X4811851D1*
X5030448D2*
X5177891D1*
X6680098D2*
X6775131D1*
X1022311Y2315081D2*
X1834481D1*
X2938561D2*
X2976718D1*
X5076205D2*
X5136421D1*
X6680098D2*
X6775768D1*
X1022311Y2251915D2*
X1823725D1*
X2938561D2*
X2976718D1*
X5087598D2*
X5125755D1*
X5732635D2*
X5765145D1*
X5982195D2*
X6082605D1*
X6680098D2*
X6776408D1*
X1022311Y2188748D2*
X1837398D1*
X2938561D2*
X2976718D1*
X5072921D2*
X5139428D1*
X6680098D2*
X6776955D1*
X1022311Y2125581D2*
X1884245D1*
X2938561D2*
X2976718D1*
X3505121D2*
X3543191D1*
X3759145D2*
X3797215D1*
X4013078D2*
X4051238D1*
X4267101D2*
X4305261D1*
X4521125D2*
X4559195D1*
X4775148D2*
X4813218D1*
X5029081D2*
X5186185D1*
X6680098D2*
X6777591D1*
X1022311Y2062415D2*
X1916785D1*
X2978391D2*
X3035235D1*
X3251098D2*
X3289258D1*
X3505121D2*
X3543191D1*
X3759145D2*
X3797215D1*
X4013078D2*
X4051238D1*
X4267101D2*
X4305261D1*
X4521125D2*
X4559195D1*
X4775148D2*
X4813218D1*
X5029081D2*
X5194208D1*
X5410071D2*
X5448231D1*
X5664095D2*
X5721578D1*
X6680098D2*
X6778231D1*
X1022311Y1999248D2*
X1979585D1*
X5155045D2*
X5194208D1*
X5410071D2*
X5448231D1*
X5664095D2*
X5766785D1*
X5980551D2*
X6084245D1*
X6680098D2*
X6778868D1*
X1022311Y1936081D2*
X2042748D1*
X6680098D2*
X6779415D1*
X1022311Y1872915D2*
X2087775D1*
X6680098D2*
X6780051D1*
X1022311Y1809748D2*
X2101445D1*
X6680098D2*
X6780691D1*
X1022311Y1746581D2*
X2146198D1*
X5664095D2*
X5768425D1*
X5978911D2*
X6085978D1*
X6680098D2*
X6781328D1*
X1022311Y1683415D2*
X2100535D1*
X6680098D2*
X6781875D1*
X1022311Y1620248D2*
X2087685D1*
X6680098D2*
X6782515D1*
X1022311Y1557081D2*
X2100898D1*
X6680098D2*
X6783151D1*
X1022311Y1493915D2*
X2150028D1*
X2358325D2*
X2404051D1*
X2612348D2*
X2657981D1*
X2866281D2*
X2912005D1*
X3120305D2*
X3166028D1*
X3374328D2*
X3420051D1*
X3628351D2*
X3673985D1*
X3882285D2*
X3928008D1*
X4136308D2*
X4182031D1*
X4390331D2*
X4436055D1*
X4644265D2*
X4689988D1*
X4898288D2*
X4944011D1*
X5152311D2*
X5198035D1*
X5406335D2*
X5452058D1*
X5660265D2*
X5769518D1*
X5977818D2*
X6086981D1*
X6295278D2*
X6341005D1*
X6680098D2*
X6783791D1*
X1022311Y1430748D2*
X6464231D1*
X6680098D2*
X6784338D1*
X1022311Y1367581D2*
X1061745D1*
X1864588D2*
X5945705D1*
X6748638D2*
X6784975D1*
X1022311Y1304415D2*
X1061745D1*
X6748638D2*
X6785611D1*
X1022311Y1241248D2*
X1061745D1*
X6748638D2*
X6786161D1*
X1022311Y1178081D2*
X1061745D1*
X6748638D2*
X6786798D1*
X1022311Y1114915D2*
X1061745D1*
X1868145D2*
X5942148D1*
X6748638D2*
X6787435D1*
X1022311Y1051748D2*
X4136278D1*
X5466331Y6626755D2*
X5482255D1*
Y6266575D1*
X5122075D1*
Y6598985D1*
X4632881Y6599075D1*
X4622538Y6590728D1*
X4604358Y6579585D1*
X4584658Y6571425D1*
X4578278Y6569628D1*
X4578255Y6307418D1*
X4580325Y6292158D1*
Y6270831D1*
X4576991Y6249771D1*
X4570401Y6229491D1*
X4560721Y6210491D1*
X4548185Y6193241D1*
X4545385Y6190211D1*
X4558055Y6178865D1*
X4571785Y6163041D1*
X4585655Y6178865D1*
X4604755Y6195181D1*
X4626175Y6208305D1*
X4649385Y6217918D1*
X4673811Y6223785D1*
X4698855Y6225755D1*
X4723898Y6223785D1*
X4748325Y6217918D1*
X4771535Y6208305D1*
X4792955Y6195181D1*
X4812055Y6178865D1*
X4825785Y6163041D1*
X4839655Y6178865D1*
X4858755Y6195181D1*
X4880175Y6208305D1*
X4903385Y6217918D1*
X4927811Y6223785D1*
X4952855Y6225755D1*
X4977898Y6223785D1*
X5002325Y6217918D1*
X5025535Y6208305D1*
X5046955Y6195181D1*
X5066055Y6178865D1*
X5079785Y6163041D1*
X5093655Y6178865D1*
X5112755Y6195181D1*
X5134175Y6208305D1*
X5157385Y6217918D1*
X5181811Y6223785D1*
X5206855Y6225755D1*
X5231898Y6223785D1*
X5256325Y6217918D1*
X5279535Y6208305D1*
X5300748Y6195318D1*
X5300765Y6225755D1*
X5620945D1*
Y6204518D1*
X5638748Y6215035D1*
X5663051Y6225101D1*
X5688631Y6231241D1*
X5714855Y6233305D1*
X5741078Y6231241D1*
X5766658Y6225101D1*
X5790961Y6215035D1*
X5813391Y6201288D1*
X5833395Y6184205D1*
X5850478Y6164201D1*
X5864225Y6141771D1*
X5874291Y6117468D1*
X5880431Y6091888D1*
X5882495Y6065665D1*
X5880431Y6039441D1*
X5874291Y6013861D1*
X5864225Y5989558D1*
X5862088Y5985745D1*
X6464021Y5985725D1*
X6470615Y5992255D1*
X6470418Y6397195D1*
X6460805Y6373985D1*
X6447681Y6352565D1*
X6431365Y6333465D1*
X6412265Y6317148D1*
X6390845Y6304025D1*
X6367635Y6294411D1*
X6343208Y6288545D1*
X6318165Y6286575D1*
X6293121Y6288545D1*
X6268695Y6294411D1*
X6245485Y6304025D1*
X6224065Y6317148D1*
X6204965Y6333465D1*
X6194578Y6345048D1*
X5870365Y6345075D1*
X5859865Y6333465D1*
X5840765Y6317148D1*
X5819345Y6304025D1*
X5796135Y6294411D1*
X5771708Y6288545D1*
X5746665Y6286575D1*
X5721621Y6288545D1*
X5697195Y6294411D1*
X5673985Y6304025D1*
X5652565Y6317148D1*
X5633465Y6333465D1*
X5617148Y6352565D1*
X5604025Y6373985D1*
X5594411Y6397195D1*
X5588545Y6421621D1*
X5586575Y6446665D1*
X5588545Y6471708D1*
X5594411Y6496135D1*
X5604025Y6519345D1*
X5617148Y6540765D1*
X5633465Y6559865D1*
X5649288Y6573595D1*
X5633465Y6587465D1*
X5617148Y6606565D1*
X5604025Y6627985D1*
X5594411Y6651195D1*
X5588545Y6675621D1*
X5586575Y6700665D1*
X5588545Y6725708D1*
X5594411Y6750135D1*
X5604025Y6773345D1*
X5617148Y6794765D1*
X5633465Y6813865D1*
X5649288Y6827595D1*
X5633465Y6841465D1*
X5617148Y6860565D1*
X5604025Y6881985D1*
X5594411Y6905195D1*
X5588545Y6929621D1*
X5586575Y6954665D1*
X5588545Y6979708D1*
X5594411Y7004135D1*
X5604025Y7027345D1*
X5617148Y7048765D1*
X5633465Y7067865D1*
X5652565Y7084181D1*
X5673985Y7097305D1*
X5697195Y7106918D1*
X5721621Y7112785D1*
X5746665Y7114755D1*
X5771708Y7112785D1*
X5796135Y7106918D1*
X5819345Y7097305D1*
X5840765Y7084181D1*
X5859865Y7067865D1*
X5870251Y7056281D1*
X6194465Y7056255D1*
X6204965Y7067865D1*
X6224065Y7084181D1*
X6245485Y7097305D1*
X6268695Y7106918D1*
X6293121Y7112785D1*
X6318165Y7114755D1*
X6343208Y7112785D1*
X6367635Y7106918D1*
X6390845Y7097305D1*
X6412265Y7084181D1*
X6431365Y7067865D1*
X6447681Y7048765D1*
X6460805Y7027345D1*
X6470565Y7003615D1*
X6470575Y7165565D1*
X6402075Y7165575D1*
Y7187721D1*
X6383255Y7178521D1*
X6357871Y7170275D1*
X6331511Y7166098D1*
X6304818D1*
X6278458Y7170275D1*
X6253075Y7178521D1*
X6229291Y7190638D1*
X6207701Y7206328D1*
X6191201Y7222635D1*
X6174628Y7206328D1*
X6153038Y7190638D1*
X6129255Y7178521D1*
X6103871Y7170275D1*
X6077511Y7166098D1*
X6050818D1*
X6024458Y7170275D1*
X5999075Y7178521D1*
X5975291Y7190638D1*
X5953701Y7206328D1*
X5934828Y7225201D1*
X5927818Y7234091D1*
X5331261Y7234075D1*
X5228111Y7131415D1*
X5215215Y7122045D1*
X5201011Y7114808D1*
X5185851Y7109881D1*
X5170105Y7107388D1*
X5068801Y7107075D1*
X4476628D1*
X4499425Y7095428D1*
X4520381Y7080201D1*
X4538701Y7061881D1*
X4553928Y7040925D1*
X4565688Y7017841D1*
X4573695Y6993205D1*
X4577745Y6967618D1*
Y6941711D1*
X4573695Y6916125D1*
X4565688Y6891488D1*
X4553928Y6868405D1*
X4538701Y6847448D1*
X4527485Y6835695D1*
X4542665Y6836555D1*
X4563921Y6834881D1*
X4584658Y6829905D1*
X4604358Y6821745D1*
X4622538Y6810601D1*
X4632785Y6802271D1*
X5153431Y6802255D1*
X5165225Y6817625D1*
X5174485Y6827641D1*
X5156468Y6848811D1*
X5141705Y6872905D1*
X5130888Y6899015D1*
X5124291Y6926491D1*
X5122075Y6954665D1*
X5124291Y6982838D1*
X5130888Y7010315D1*
X5141705Y7036425D1*
X5156468Y7060518D1*
X5174821Y7082008D1*
X5196311Y7100361D1*
X5220405Y7115125D1*
X5246515Y7125941D1*
X5273991Y7132538D1*
X5302165Y7134755D1*
X5330338Y7132538D1*
X5357815Y7125941D1*
X5383925Y7115125D1*
X5408018Y7100361D1*
X5429508Y7082008D1*
X5447861Y7060518D1*
X5462625Y7036425D1*
X5473441Y7010315D1*
X5480038Y6982838D1*
X5482255Y6954665D1*
X5480038Y6926491D1*
X5473441Y6899015D1*
X5462625Y6872905D1*
X5447861Y6848811D1*
X5429845Y6827688D1*
X5447861Y6806518D1*
X5462625Y6782425D1*
X5473441Y6756315D1*
X5480038Y6728838D1*
X5482255Y6700665D1*
X5480038Y6672491D1*
X5473441Y6645015D1*
X5466258Y6626781D1*
X2735811Y2425755D2*
X2932255D1*
Y2102278D1*
X3000475Y2034025D1*
X3016165Y2034755D1*
X3041545Y2032718D1*
X3041575Y2095635D1*
X2983075Y2095575D1*
Y2415755D1*
X3303255D1*
Y2385401D1*
X3324485Y2398305D1*
X3347695Y2407918D1*
X3372121Y2413785D1*
X3397165Y2415755D1*
X3422208Y2413785D1*
X3446635Y2407918D1*
X3469845Y2398305D1*
X3491265Y2385181D1*
X3510365Y2368865D1*
X3524095Y2353041D1*
X3537965Y2368865D1*
X3557065Y2385181D1*
X3578485Y2398305D1*
X3601695Y2407918D1*
X3607601Y2409585D1*
X3118518Y2898641D1*
X1413655Y2898705D1*
X1397761Y2899955D1*
X1382261Y2903678D1*
X1367535Y2909778D1*
X1353918Y2918125D1*
X1375998Y2894995D1*
X1389725Y2881265D1*
X2246135Y2880941D1*
X2261881Y2878448D1*
X2277041Y2873521D1*
X2291245Y2866285D1*
X2304141Y2856915D1*
X2375998Y2785505D1*
X2735691Y2425808D1*
X2127201Y2368695D2*
X2143701Y2385001D1*
X2165291Y2400691D1*
X2189075Y2412808D1*
X2202458Y2417671D1*
X2008061Y2612098D1*
X1273691Y2612381D1*
X1257945Y2614875D1*
X1242785Y2619801D1*
X1228581Y2627038D1*
X1215685Y2636408D1*
X1143831Y2707818D1*
X1033915Y2818178D1*
X1024545Y2831075D1*
X1017298Y2845308D1*
X1015915Y2829665D1*
Y1017778D1*
X6033821Y1072305D1*
X6011605Y1077898D1*
X5986945Y1088115D1*
X5964188Y1102058D1*
X5943891Y1119391D1*
X5927818Y1138091D1*
X1882668Y1138075D1*
X1866438Y1119391D1*
X1846141Y1102058D1*
X1823385Y1088115D1*
X1798725Y1077898D1*
X1772771Y1071668D1*
X1746165Y1069575D1*
X1719558Y1071668D1*
X1693605Y1077898D1*
X1668945Y1088115D1*
X1646188Y1102058D1*
X1625891Y1119391D1*
X1619201Y1126635D1*
X1602628Y1110328D1*
X1581038Y1094638D1*
X1557255Y1082521D1*
X1531871Y1074275D1*
X1505511Y1070098D1*
X1478818D1*
X1452458Y1074275D1*
X1427075Y1082521D1*
X1408255Y1091861D1*
Y1069575D1*
X1068075D1*
Y1409755D1*
X1408255D1*
Y1387605D1*
X1427075Y1396808D1*
X1452458Y1405055D1*
X1478818Y1409231D1*
X1505511D1*
X1531871Y1405055D1*
X1557255Y1396808D1*
X1581038Y1384691D1*
X1602628Y1369001D1*
X1619128Y1352695D1*
X1635701Y1369001D1*
X1657291Y1384691D1*
X1681075Y1396808D1*
X1706458Y1405055D1*
X1732818Y1409231D1*
X1759511D1*
X1785871Y1405055D1*
X1811255Y1396808D1*
X1835038Y1384691D1*
X1856628Y1369001D1*
X1875501Y1350128D1*
X1882511Y1341238D1*
X5927661Y1341255D1*
X5943891Y1359938D1*
X5964188Y1377271D1*
X5986945Y1391215D1*
X6011605Y1401431D1*
X6037558Y1407661D1*
X6064165Y1409755D1*
X6090771Y1407661D1*
X6116725Y1401431D1*
X6141385Y1391215D1*
X6164141Y1377271D1*
X6184438Y1359938D1*
X6191128Y1352695D1*
X6207701Y1369001D1*
X6229291Y1384691D1*
X6253075Y1396808D1*
X6278458Y1405055D1*
X6304818Y1409231D1*
X6331511D1*
X6357871Y1405055D1*
X6383255Y1396808D1*
X6402075Y1387468D1*
Y1409755D1*
X6470525D1*
X6470208Y1462545D1*
X6445165Y1460575D1*
X6420121Y1462545D1*
X6395695Y1468411D1*
X6372485Y1478025D1*
X6351065Y1491148D1*
X6331965Y1507465D1*
X6321578Y1519048D1*
X6312898Y1516695D1*
X6295135Y1498931D1*
X6274811Y1484165D1*
X6252428Y1472761D1*
X6228538Y1464998D1*
X6203725Y1461068D1*
X6178605D1*
X6153791Y1464998D1*
X6129901Y1472761D1*
X6107518Y1484165D1*
X6087195Y1498931D1*
X6069431Y1516695D1*
X6067578Y1519048D1*
X5997365Y1519075D1*
X5986865Y1507465D1*
X5967765Y1491148D1*
X5946345Y1478025D1*
X5923135Y1468411D1*
X5898708Y1462545D1*
X5873665Y1460575D1*
X5848621Y1462545D1*
X5824195Y1468411D1*
X5800985Y1478025D1*
X5779565Y1491148D1*
X5760465Y1507465D1*
X5744148Y1526565D1*
X5731025Y1547985D1*
X5721411Y1571195D1*
X5715545Y1595621D1*
X5714975Y1600448D1*
X5711831Y1583291D1*
X5704068Y1559401D1*
X5692665Y1537018D1*
X5677898Y1516695D1*
X5660135Y1498931D1*
X5639811Y1484165D1*
X5617428Y1472761D1*
X5593538Y1464998D1*
X5568725Y1461068D1*
X5543605D1*
X5518791Y1464998D1*
X5494901Y1472761D1*
X5472518Y1484165D1*
X5452195Y1498931D1*
X5434431Y1516695D1*
X5429235Y1523288D1*
X5415365Y1507465D1*
X5396265Y1491148D1*
X5374845Y1478025D1*
X5351635Y1468411D1*
X5327208Y1462545D1*
X5302165Y1460575D1*
X5277121Y1462545D1*
X5252695Y1468411D1*
X5229485Y1478025D1*
X5208065Y1491148D1*
X5188965Y1507465D1*
X5175235Y1523288D1*
X5161365Y1507465D1*
X5142265Y1491148D1*
X5120845Y1478025D1*
X5097635Y1468411D1*
X5073208Y1462545D1*
X5048165Y1460575D1*
X5023121Y1462545D1*
X4998695Y1468411D1*
X4975485Y1478025D1*
X4954065Y1491148D1*
X4934965Y1507465D1*
X4921235Y1523288D1*
X4907365Y1507465D1*
X4888265Y1491148D1*
X4866845Y1478025D1*
X4843635Y1468411D1*
X4819208Y1462545D1*
X4794165Y1460575D1*
X4769121Y1462545D1*
X4744695Y1468411D1*
X4721485Y1478025D1*
X4700065Y1491148D1*
X4680965Y1507465D1*
X4667235Y1523288D1*
X4653365Y1507465D1*
X4634265Y1491148D1*
X4612845Y1478025D1*
X4589635Y1468411D1*
X4565208Y1462545D1*
X4540165Y1460575D1*
X4515121Y1462545D1*
X4490695Y1468411D1*
X4467485Y1478025D1*
X4446065Y1491148D1*
X4426965Y1507465D1*
X4413235Y1523288D1*
X4399365Y1507465D1*
X4380265Y1491148D1*
X4358845Y1478025D1*
X4335635Y1468411D1*
X4311208Y1462545D1*
X4286165Y1460575D1*
X4261121Y1462545D1*
X4236695Y1468411D1*
X4213485Y1478025D1*
X4192065Y1491148D1*
X4172965Y1507465D1*
X4159235Y1523288D1*
X4145365Y1507465D1*
X4126265Y1491148D1*
X4104845Y1478025D1*
X4081635Y1468411D1*
X4057208Y1462545D1*
X4032165Y1460575D1*
X4007121Y1462545D1*
X3982695Y1468411D1*
X3959485Y1478025D1*
X3938065Y1491148D1*
X3918965Y1507465D1*
X3905235Y1523288D1*
X3891365Y1507465D1*
X3872265Y1491148D1*
X3850845Y1478025D1*
X3827635Y1468411D1*
X3803208Y1462545D1*
X3778165Y1460575D1*
X3753121Y1462545D1*
X3728695Y1468411D1*
X3705485Y1478025D1*
X3684065Y1491148D1*
X3664965Y1507465D1*
X3651235Y1523288D1*
X3637365Y1507465D1*
X3618265Y1491148D1*
X3596845Y1478025D1*
X3573635Y1468411D1*
X3549208Y1462545D1*
X3524165Y1460575D1*
X3499121Y1462545D1*
X3474695Y1468411D1*
X3451485Y1478025D1*
X3430065Y1491148D1*
X3410965Y1507465D1*
X3397235Y1523288D1*
X3383365Y1507465D1*
X3364265Y1491148D1*
X3342845Y1478025D1*
X3319635Y1468411D1*
X3295208Y1462545D1*
X3270165Y1460575D1*
X3245121Y1462545D1*
X3220695Y1468411D1*
X3197485Y1478025D1*
X3176065Y1491148D1*
X3156965Y1507465D1*
X3143235Y1523288D1*
X3129365Y1507465D1*
X3110265Y1491148D1*
X3088845Y1478025D1*
X3065635Y1468411D1*
X3041208Y1462545D1*
X3016165Y1460575D1*
X2991121Y1462545D1*
X2966695Y1468411D1*
X2943485Y1478025D1*
X2922065Y1491148D1*
X2902965Y1507465D1*
X2889235Y1523288D1*
X2875365Y1507465D1*
X2856265Y1491148D1*
X2834845Y1478025D1*
X2811635Y1468411D1*
X2787208Y1462545D1*
X2762165Y1460575D1*
X2737121Y1462545D1*
X2712695Y1468411D1*
X2689485Y1478025D1*
X2668065Y1491148D1*
X2648965Y1507465D1*
X2635235Y1523288D1*
X2621365Y1507465D1*
X2602265Y1491148D1*
X2580845Y1478025D1*
X2557635Y1468411D1*
X2533208Y1462545D1*
X2508165Y1460575D1*
X2483121Y1462545D1*
X2458695Y1468411D1*
X2435485Y1478025D1*
X2414065Y1491148D1*
X2394965Y1507465D1*
X2381235Y1523288D1*
X2367365Y1507465D1*
X2348265Y1491148D1*
X2326845Y1478025D1*
X2303635Y1468411D1*
X2279208Y1462545D1*
X2254165Y1460575D1*
X2229121Y1462545D1*
X2204695Y1468411D1*
X2181485Y1478025D1*
X2160065Y1491148D1*
X2140965Y1507465D1*
X2124648Y1526565D1*
X2111525Y1547985D1*
X2101911Y1571195D1*
X2096045Y1595621D1*
X2094075Y1620665D1*
X2096045Y1645708D1*
X2101911Y1670135D1*
X2111525Y1693345D1*
X2124648Y1714765D1*
X2140965Y1733865D1*
X2152548Y1744251D1*
X2150195Y1752931D1*
X2132431Y1770695D1*
X2117665Y1791018D1*
X2106261Y1813401D1*
X2098498Y1837291D1*
X2094568Y1862105D1*
Y1887225D1*
X2094921Y1890198D1*
X1922915Y2062688D1*
X1913545Y2075585D1*
X1906308Y2089788D1*
X1901381Y2104948D1*
X1899821Y2112805D1*
X1889701Y2126328D1*
X1870828Y2145201D1*
X1855138Y2166791D1*
X1843021Y2190575D1*
X1834775Y2215958D1*
X1830598Y2242318D1*
Y2269011D1*
X1834775Y2295371D1*
X1843021Y2320755D1*
X1855138Y2344538D1*
X1870828Y2366128D1*
X1889701Y2385001D1*
X1911291Y2400691D1*
X1935075Y2412808D1*
X1960458Y2421055D1*
X1986818Y2425231D1*
X2013511D1*
X2039871Y2421055D1*
X2065255Y2412808D1*
X2089038Y2400691D1*
X2110628Y2385001D1*
X2127128Y2368695D1*
X3295508Y2095575D2*
X3244831D1*
X3244755Y2043751D1*
X3254508Y2033991D1*
X3270165Y2034755D1*
X3295545Y2032718D1*
X3295575Y2095635D1*
X3524095Y2158288D2*
X3510365Y2142465D1*
X3498781Y2132078D1*
X3498755Y2043751D1*
X3508508Y2033991D1*
X3524165Y2034755D1*
X3549545Y2032718D1*
X3549575Y2131911D1*
X3537965Y2142465D1*
X3524235Y2158288D1*
X3778095D2*
X3764365Y2142465D1*
X3752781Y2132078D1*
X3752755Y2043751D1*
X3762508Y2033991D1*
X3778165Y2034755D1*
X3803545Y2032718D1*
X3803575Y2131911D1*
X3791965Y2142465D1*
X3778235Y2158288D1*
X4032095D2*
X4018365Y2142465D1*
X4006781Y2132078D1*
X4006755Y2043751D1*
X4016508Y2033991D1*
X4032165Y2034755D1*
X4057545Y2032718D1*
X4057575Y2131911D1*
X4045965Y2142465D1*
X4032235Y2158288D1*
X3889631Y2414908D2*
X3905165Y2415755D1*
X3930208Y2413785D1*
X3954635Y2407918D1*
X3977845Y2398305D1*
X3999265Y2385181D1*
X4018365Y2368865D1*
X4032095Y2353041D1*
X4045965Y2368865D1*
X4057548Y2379251D1*
X4057468Y2972448D1*
X4037188Y2965858D1*
X4016128Y2962525D1*
X3994801D1*
X3973741Y2965858D1*
X3953461Y2972448D1*
X3934461Y2982128D1*
X3917211Y2994665D1*
X3915345Y2996388D1*
X3308108Y2996405D1*
X3889565Y2414935D1*
X4286095Y2158288D2*
X4272365Y2142465D1*
X4260781Y2132078D1*
X4260755Y2043751D1*
X4270508Y2033991D1*
X4286165Y2034755D1*
X4311545Y2032718D1*
X4311575Y2131911D1*
X4299965Y2142465D1*
X4286235Y2158288D1*
X4260781Y2379251D2*
X4272365Y2368865D1*
X4286095Y2353041D1*
X4299965Y2368865D1*
X4319065Y2385181D1*
X4340485Y2398305D1*
X4363695Y2407918D1*
X4388121Y2413785D1*
X4413165Y2415755D1*
X4438208Y2413785D1*
X4462635Y2407918D1*
X4485845Y2398305D1*
X4507265Y2385181D1*
X4526365Y2368865D1*
X4540095Y2353041D1*
X4553965Y2368865D1*
X4573065Y2385181D1*
X4594485Y2398305D1*
X4617695Y2407918D1*
X4642121Y2413785D1*
X4667165Y2415755D1*
X4692208Y2413785D1*
X4716635Y2407918D1*
X4739845Y2398305D1*
X4761265Y2385181D1*
X4780365Y2368865D1*
X4794095Y2353041D1*
X4807965Y2368865D1*
X4827065Y2385181D1*
X4848485Y2398305D1*
X4871695Y2407918D1*
X4896121Y2413785D1*
X4921165Y2415755D1*
X4946208Y2413785D1*
X4970635Y2407918D1*
X4993845Y2398305D1*
X5015265Y2385181D1*
X5034365Y2368865D1*
X5050681Y2349765D1*
X5063805Y2328345D1*
X5073418Y2305135D1*
X5079285Y2280708D1*
X5081255Y2255665D1*
X5079285Y2230621D1*
X5073418Y2206195D1*
X5063805Y2182985D1*
X5050681Y2161565D1*
X5034365Y2142465D1*
X5022781Y2132078D1*
X5022755Y2043751D1*
X5032508Y2033991D1*
X5048165Y2034755D1*
X5073208Y2032785D1*
X5097635Y2026918D1*
X5120845Y2017305D1*
X5142265Y2004181D1*
X5161365Y1987865D1*
X5175095Y1972041D1*
X5188965Y1987865D1*
X5200548Y1998251D1*
X5200575Y2119208D1*
X5181891Y2135391D1*
X5164558Y2155688D1*
X5150615Y2178445D1*
X5140398Y2203105D1*
X5134168Y2229058D1*
X5132075Y2255665D1*
X5134168Y2282271D1*
X5140398Y2308225D1*
X5150615Y2332885D1*
X5164558Y2355641D1*
X5181891Y2375938D1*
X5202188Y2393271D1*
X5224945Y2407215D1*
X5249605Y2417431D1*
X5250458Y2417671D1*
X4263198Y3404961D1*
X3850901Y3404975D1*
X3840548Y3396628D1*
X3822368Y3385485D1*
X3802668Y3377325D1*
X3781931Y3372348D1*
X3760675Y3370675D1*
X3739418Y3372348D1*
X3718681Y3377325D1*
X3698981Y3385485D1*
X3680801Y3396628D1*
X3664585Y3410475D1*
X3650738Y3426691D1*
X3639595Y3444871D1*
X3631435Y3464571D1*
X3626458Y3485308D1*
X3624835Y3505275D1*
X3544265D1*
X3338871Y3299851D1*
X4101135Y3299571D1*
X4116881Y3297078D1*
X4132041Y3292151D1*
X4146245Y3284915D1*
X4159141Y3275545D1*
X4231001Y3204131D1*
X4241351Y3192008D1*
X4249681Y3178415D1*
X4255781Y3163688D1*
X4259505Y3148188D1*
X4260755Y3132265D1*
Y2379338D1*
X4540095Y2158288D2*
X4526365Y2142465D1*
X4514781Y2132078D1*
X4514755Y2043751D1*
X4524508Y2033991D1*
X4540165Y2034755D1*
X4565545Y2032718D1*
X4565575Y2131911D1*
X4553965Y2142465D1*
X4540235Y2158288D1*
X4794095D2*
X4780365Y2142465D1*
X4768781Y2132078D1*
X4768755Y2043751D1*
X4778508Y2033991D1*
X4794165Y2034755D1*
X4819545Y2032718D1*
X4819575Y2131911D1*
X4807965Y2142465D1*
X4794235Y2158288D1*
X3952388Y5906421D2*
X3936855Y5905575D1*
X3911811Y5907545D1*
X3887385Y5913411D1*
X3864175Y5923025D1*
X3842755Y5936148D1*
X3823655Y5952465D1*
X3809925Y5968288D1*
X3796055Y5952465D1*
X3776955Y5936148D1*
X3755535Y5923025D1*
X3732325Y5913411D1*
X3727741Y5912118D1*
X3744548Y5904915D1*
X3762728Y5893771D1*
X3772975Y5885441D1*
X3973338Y5885425D1*
X3952518Y5906331D1*
X3637968Y5912118D2*
X3621591Y5917761D1*
X3599208Y5929165D1*
X3578885Y5943931D1*
X3561121Y5961695D1*
X3555925Y5968288D1*
X3542055Y5952465D1*
X3522955Y5936148D1*
X3501535Y5923025D1*
X3478325Y5913411D1*
X3453898Y5907545D1*
X3428855Y5905575D1*
X3403811Y5907545D1*
X3379385Y5913411D1*
X3356175Y5923025D1*
X3334755Y5936148D1*
X3315655Y5952465D1*
X3301925Y5968288D1*
X3288055Y5952465D1*
X3268955Y5936148D1*
X3247535Y5923025D1*
X3224325Y5913411D1*
X3199898Y5907545D1*
X3174855Y5905575D1*
X3149811Y5907545D1*
X3125385Y5913411D1*
X3102175Y5923025D1*
X3080755Y5936148D1*
X3061655Y5952465D1*
X3047925Y5968288D1*
X3034055Y5952465D1*
X3014955Y5936148D1*
X2993535Y5923025D1*
X2970325Y5913411D1*
X2945898Y5907545D1*
X2920855Y5905575D1*
X2895811Y5907545D1*
X2871385Y5913411D1*
X2848175Y5923025D1*
X2826755Y5936148D1*
X2807655Y5952465D1*
X2793925Y5968288D1*
X2780055Y5952465D1*
X2760955Y5936148D1*
X2739535Y5923025D1*
X2716325Y5913411D1*
X2691898Y5907545D1*
X2666855Y5905575D1*
X2641811Y5907545D1*
X2617385Y5913411D1*
X2594175Y5923025D1*
X2572755Y5936148D1*
X2553655Y5952465D1*
X2539925Y5968288D1*
X2526055Y5952465D1*
X2506955Y5936148D1*
X2485535Y5923025D1*
X2462325Y5913411D1*
X2437898Y5907545D1*
X2412855Y5905575D1*
X2387811Y5907545D1*
X2363385Y5913411D1*
X2340175Y5923025D1*
X2318755Y5936148D1*
X2299655Y5952465D1*
X2285925Y5968288D1*
X2272055Y5952465D1*
X2252955Y5936148D1*
X2231535Y5923025D1*
X2208325Y5913411D1*
X2202418Y5911745D1*
X2857011Y5257178D1*
X4350001Y5257295D1*
X4328941Y5260628D1*
X4308661Y5267218D1*
X4289661Y5276898D1*
X4272411Y5289435D1*
X4257335Y5304511D1*
X4244798Y5321761D1*
X4235118Y5340761D1*
X4228528Y5361041D1*
X4225195Y5382101D1*
Y5403428D1*
X4228528Y5424488D1*
X4235118Y5444768D1*
X4244798Y5463768D1*
X4257335Y5481018D1*
X4272411Y5496095D1*
X4289661Y5508631D1*
X4308661Y5518311D1*
X4328941Y5524901D1*
X4350001Y5528235D1*
X4371328D1*
X4392388Y5524901D1*
X4412668Y5518311D1*
X4431668Y5508631D1*
X4448918Y5496095D1*
X4450785Y5494371D1*
X4555991Y5494355D1*
X4566291Y5502701D1*
X4584471Y5513845D1*
X4604171Y5522005D1*
X4624908Y5526981D1*
X4646165Y5528655D1*
X4667421Y5526981D1*
X4688158Y5522005D1*
X4707858Y5513845D1*
X4726038Y5502701D1*
X4742255Y5488855D1*
X4756101Y5472638D1*
X4767245Y5454458D1*
X4775405Y5434758D1*
X4780381Y5414021D1*
X4782055Y5392765D1*
X4780381Y5371508D1*
X4775405Y5350771D1*
X4767245Y5331071D1*
X4756101Y5312891D1*
X4742255Y5296675D1*
X4726038Y5282828D1*
X4707858Y5271685D1*
X4688158Y5263525D1*
X4667421Y5258548D1*
X4654535Y5257205D1*
X5962635Y5256891D1*
X5978381Y5254398D1*
X5993541Y5249471D1*
X6007745Y5242235D1*
X6020641Y5232865D1*
X6092501Y5161451D1*
X6102851Y5149328D1*
X6111181Y5135735D1*
X6117281Y5121008D1*
X6121005Y5105508D1*
X6122255Y5089615D1*
X6121941Y3283695D1*
X6119448Y3267948D1*
X6114521Y3252788D1*
X6107285Y3238585D1*
X6097915Y3225688D1*
X6026505Y3153831D1*
X5987125Y3114455D1*
X5989698Y3095295D1*
Y3067035D1*
X5985278Y3039125D1*
X5976545Y3012248D1*
X5963718Y2987068D1*
X5947105Y2964205D1*
X5927125Y2944225D1*
X5904261Y2927611D1*
X5879081Y2914785D1*
X5852205Y2906051D1*
X5824295Y2901631D1*
X5796035D1*
X5768125Y2906051D1*
X5741248Y2914785D1*
X5716068Y2927611D1*
X5693205Y2944225D1*
X5673225Y2964205D1*
X5656611Y2987068D1*
X5643785Y3012248D1*
X5635051Y3039125D1*
X5630631Y3067035D1*
Y3095295D1*
X5635051Y3123205D1*
X5643785Y3150081D1*
X5656611Y3175261D1*
X5673225Y3198125D1*
X5693205Y3218105D1*
X5716068Y3234718D1*
X5741248Y3247545D1*
X5768125Y3256278D1*
X5796035Y3260698D1*
X5824295D1*
X5843375Y3258035D1*
X5919111Y3333781D1*
X5919075Y3636288D1*
X5904261Y3626111D1*
X5879081Y3613285D1*
X5852205Y3604551D1*
X5824295Y3600131D1*
X5796035D1*
X5768125Y3604551D1*
X5741248Y3613285D1*
X5716068Y3626111D1*
X5693205Y3642725D1*
X5673225Y3662705D1*
X5656611Y3685568D1*
X5644038Y3710195D1*
X5643741Y3664895D1*
X5641248Y3649148D1*
X5636321Y3633988D1*
X5629085Y3619785D1*
X5619715Y3606888D1*
X5548301Y3535028D1*
X5536178Y3524678D1*
X5522585Y3516348D1*
X5507858Y3510248D1*
X5492358Y3506525D1*
X5476435Y3505275D1*
X4450255D1*
X5529785Y2425715D1*
X5719445Y2425755D1*
X5725761Y2443928D1*
X5737165Y2466311D1*
X5751931Y2486635D1*
X5769695Y2504398D1*
X5776288Y2509595D1*
X5760465Y2523465D1*
X5744148Y2542565D1*
X5731025Y2563985D1*
X5721411Y2587195D1*
X5715545Y2611621D1*
X5713575Y2636665D1*
X5715545Y2661708D1*
X5721411Y2686135D1*
X5731025Y2709345D1*
X5744148Y2730765D1*
X5760465Y2749865D1*
X5779565Y2766181D1*
X5800985Y2779305D1*
X5824195Y2788918D1*
X5848621Y2794785D1*
X5873665Y2796755D1*
X5898708Y2794785D1*
X5923135Y2788918D1*
X5946345Y2779305D1*
X5967765Y2766181D1*
X5986865Y2749865D1*
X5997251Y2738281D1*
X6067348Y2738255D1*
X6077965Y2749865D1*
X6097065Y2766181D1*
X6118485Y2779305D1*
X6141695Y2788918D1*
X6166121Y2794785D1*
X6191165Y2796755D1*
X6216208Y2794785D1*
X6240635Y2788918D1*
X6263845Y2779305D1*
X6285265Y2766181D1*
X6304365Y2749865D1*
X6314751Y2738281D1*
X6321465Y2738255D1*
X6331965Y2749865D1*
X6351065Y2766181D1*
X6372485Y2779305D1*
X6395695Y2788918D1*
X6420121Y2794785D1*
X6445165Y2796755D1*
X6470545Y2794718D1*
X6470418Y3984195D1*
X6460805Y3960985D1*
X6447681Y3939565D1*
X6431365Y3920465D1*
X6412265Y3904148D1*
X6390845Y3891025D1*
X6367635Y3881411D1*
X6343208Y3875545D1*
X6318165Y3873575D1*
X6293121Y3875545D1*
X6268695Y3881411D1*
X6245485Y3891025D1*
X6224065Y3904148D1*
X6204965Y3920465D1*
X6188648Y3939565D1*
X6175525Y3960985D1*
X6165911Y3984195D1*
X6160045Y4008621D1*
X6158075Y4033665D1*
X6160045Y4058708D1*
X6165911Y4083135D1*
X6175525Y4106345D1*
X6188648Y4127765D1*
X6204965Y4146865D1*
X6216548Y4157251D1*
X6214195Y4165931D1*
X6196431Y4183695D1*
X6181665Y4204018D1*
X6170261Y4226401D1*
X6162498Y4250291D1*
X6158568Y4275105D1*
Y4300225D1*
X6162498Y4325038D1*
X6170261Y4348928D1*
X6181665Y4371311D1*
X6196431Y4391635D1*
X6214195Y4409398D1*
X6216548Y4411251D1*
X6214195Y4419931D1*
X6196431Y4437695D1*
X6181665Y4458018D1*
X6170261Y4480401D1*
X6162498Y4504291D1*
X6158568Y4529105D1*
Y4554225D1*
X6162498Y4579038D1*
X6170261Y4602928D1*
X6181665Y4625311D1*
X6196431Y4645635D1*
X6214195Y4663398D1*
X6216548Y4665251D1*
X6214195Y4673931D1*
X6196431Y4691695D1*
X6181665Y4712018D1*
X6170261Y4734401D1*
X6162498Y4758291D1*
X6158568Y4783105D1*
Y4808225D1*
X6162498Y4833038D1*
X6170261Y4856928D1*
X6181665Y4879311D1*
X6196431Y4899635D1*
X6214195Y4917398D1*
X6220788Y4922595D1*
X6204965Y4936465D1*
X6188648Y4955565D1*
X6175525Y4976985D1*
X6165911Y5000195D1*
X6160045Y5024621D1*
X6158075Y5049665D1*
X6160045Y5074708D1*
X6165911Y5099135D1*
X6175525Y5122345D1*
X6188648Y5143765D1*
X6204965Y5162865D1*
X6216548Y5173251D1*
X6214195Y5181931D1*
X6196431Y5199695D1*
X6181665Y5220018D1*
X6170261Y5242401D1*
X6162498Y5266291D1*
X6158568Y5291105D1*
Y5316225D1*
X6162498Y5341038D1*
X6170261Y5364928D1*
X6181665Y5387311D1*
X6196431Y5407635D1*
X6214195Y5425398D1*
X6216548Y5427251D1*
X6214195Y5435931D1*
X6196431Y5453695D1*
X6181665Y5474018D1*
X6170261Y5496401D1*
X6162498Y5520291D1*
X6158568Y5545105D1*
Y5570225D1*
X6162498Y5595038D1*
X6170261Y5618928D1*
X6181665Y5641311D1*
X6196431Y5661635D1*
X6214195Y5679398D1*
X6217781Y5682225D1*
X3773158Y5682245D1*
X3762728Y5673898D1*
X3744548Y5662755D1*
X3724848Y5654595D1*
X3704111Y5649618D1*
X3682855Y5647945D1*
X3661598Y5649618D1*
X3640861Y5654595D1*
X3621161Y5662755D1*
X3602981Y5673898D1*
X3586765Y5687745D1*
X3572918Y5703961D1*
X3561775Y5722141D1*
X3553615Y5741841D1*
X3548638Y5762578D1*
X3546965Y5783835D1*
X3548638Y5805091D1*
X3553615Y5825828D1*
X3561775Y5845528D1*
X3572918Y5863708D1*
X3586765Y5879925D1*
X3602981Y5893771D1*
X3621161Y5904915D1*
X3637928Y5911991D1*
X1920388Y5906421D2*
X1904855Y5905575D1*
X1879811Y5907545D1*
X1855385Y5913411D1*
X1832175Y5923025D1*
X1810755Y5936148D1*
X1791655Y5952465D1*
X1782725Y5962195D1*
X1769395Y5947125D1*
X1749391Y5930041D1*
X1726961Y5916295D1*
X1702658Y5906228D1*
X1677078Y5900088D1*
X1650855Y5898025D1*
X1624631Y5900088D1*
X1599051Y5906228D1*
X1574748Y5916295D1*
X1552318Y5930041D1*
X1532315Y5947125D1*
X1515231Y5967128D1*
X1501485Y5989558D1*
X1491418Y6013861D1*
X1485278Y6039441D1*
X1483215Y6065665D1*
X1485278Y6091888D1*
X1490401Y6113855D1*
X1389685Y6113905D1*
X1339765Y6063935D1*
X1339755Y4761331D1*
X1353941Y4773685D1*
X1367535Y4782011D1*
X1382261Y4788111D1*
X1397761Y4791835D1*
X1413685Y4793085D1*
X2779025Y4792768D1*
X2780898Y4797871D1*
X2771218Y4816871D1*
X2764628Y4837151D1*
X2761295Y4858211D1*
Y4879538D1*
X2764628Y4900598D1*
X2771218Y4920878D1*
X2780898Y4939878D1*
X2793435Y4957128D1*
X2808511Y4972205D1*
X2825761Y4984741D1*
X2844761Y4994421D1*
X2865041Y5001011D1*
X2886101Y5004345D1*
X2907428D1*
X2928488Y5001011D1*
X2948768Y4994421D1*
X2967768Y4984741D1*
X2985018Y4972205D1*
X2986885Y4970481D1*
X3976021Y4970465D1*
X3995351Y4984741D1*
X4014351Y4994421D1*
X4034631Y5001011D1*
X4055691Y5004345D1*
X4077018D1*
X4098078Y5001011D1*
X4118358Y4994421D1*
X4137358Y4984741D1*
X4154608Y4972205D1*
X4169685Y4957128D1*
X4182221Y4939878D1*
X4191901Y4920878D1*
X4198491Y4900598D1*
X4201825Y4879538D1*
Y4858211D1*
X4198491Y4837151D1*
X4197528Y4833741D1*
X4516325Y4833441D1*
X4532071Y4830948D1*
X4547231Y4826021D1*
X4561435Y4818785D1*
X4574331Y4809415D1*
X4646188Y4738005D1*
X4683245Y4700945D1*
X4698855Y4701755D1*
X4723898Y4699785D1*
X4748325Y4693918D1*
X4754638Y4691591D1*
X4806881Y4743415D1*
X4819778Y4752785D1*
X4833981Y4760021D1*
X4849145Y4764948D1*
X4864888Y4767441D1*
X4966191Y4767755D1*
X5273325Y4767441D1*
X5289071Y4764948D1*
X5304231Y4760021D1*
X5318435Y4752785D1*
X5331331Y4743415D1*
X5389975Y4685215D1*
X5411385Y4693918D1*
X5435811Y4699785D1*
X5460855Y4701755D1*
X5485898Y4699785D1*
X5510325Y4693918D1*
X5533535Y4684305D1*
X5554955Y4671181D1*
X5574055Y4654865D1*
X5582985Y4645135D1*
X5596315Y4660205D1*
X5616318Y4677288D1*
X5638748Y4691035D1*
X5663051Y4701101D1*
X5688631Y4707241D1*
X5714855Y4709305D1*
X5741078Y4707241D1*
X5766658Y4701101D1*
X5790961Y4691035D1*
X5813391Y4677288D1*
X5833395Y4660205D1*
X5850478Y4640201D1*
X5864225Y4617771D1*
X5874291Y4593468D1*
X5880431Y4567888D1*
X5882495Y4541665D1*
X5880431Y4515441D1*
X5874291Y4489861D1*
X5864225Y4465558D1*
X5850478Y4443128D1*
X5833395Y4423125D1*
X5813391Y4406041D1*
X5790961Y4392295D1*
X5766658Y4382228D1*
X5741078Y4376088D1*
X5714855Y4374025D1*
X5688631Y4376088D1*
X5676778Y4378445D1*
X5678355Y4357545D1*
X5676681Y4336288D1*
X5671705Y4315551D1*
X5663545Y4295851D1*
X5652401Y4277671D1*
X5644071Y4267425D1*
X5644055Y3849225D1*
X5656611Y3873761D1*
X5673225Y3896625D1*
X5693205Y3916605D1*
X5716068Y3933218D1*
X5741248Y3946045D1*
X5768125Y3954778D1*
X5796035Y3959198D1*
X5824295D1*
X5852205Y3954778D1*
X5879081Y3946045D1*
X5904261Y3933218D1*
X5919098Y3922931D1*
X5919075Y5047588D1*
X5912545Y5054065D1*
X2806935Y5054338D1*
X2791188Y5056831D1*
X2776028Y5061758D1*
X2761825Y5068995D1*
X2748928Y5078365D1*
X2677071Y5149775D1*
X1920498Y5906351D1*
X2031785Y4444288D2*
X2018055Y4428465D1*
X1998955Y4412148D1*
X1977535Y4399025D1*
X1954325Y4389411D1*
X1929898Y4383545D1*
X1904855Y4381575D1*
X1879811Y4383545D1*
X1855385Y4389411D1*
X1832175Y4399025D1*
X1810755Y4412148D1*
X1791655Y4428465D1*
X1782725Y4438195D1*
X1769395Y4423125D1*
X1749391Y4406041D1*
X1726961Y4392295D1*
X1702658Y4382228D1*
X1677078Y4376088D1*
X1650855Y4374025D1*
X1624631Y4376088D1*
X1599051Y4382228D1*
X1574748Y4392295D1*
X1552318Y4406041D1*
X1532315Y4423125D1*
X1515231Y4443128D1*
X1501485Y4465558D1*
X1491418Y4489861D1*
X1485278Y4515441D1*
X1483215Y4541665D1*
X1485278Y4567888D1*
X1490401Y4589855D1*
X1466818Y4589905D1*
X1466755Y4212888D1*
X1492165Y4214731D1*
X1520338Y4212515D1*
X1547815Y4205918D1*
X1573925Y4195101D1*
X1598018Y4180338D1*
X1619305Y4162171D1*
X1640311Y4180011D1*
X1664405Y4194775D1*
X1690515Y4205591D1*
X1717991Y4212188D1*
X1746165Y4214405D1*
X1774338Y4212188D1*
X1801815Y4205591D1*
X1827925Y4194775D1*
X1852018Y4180011D1*
X1873305Y4161845D1*
X1894311Y4179688D1*
X1918405Y4194451D1*
X1944515Y4205268D1*
X1971991Y4211865D1*
X2000165Y4214081D1*
X2028338Y4211865D1*
X2055815Y4205268D1*
X2081925Y4194451D1*
X2106018Y4179688D1*
X2127305Y4161521D1*
X2148311Y4179361D1*
X2152581Y4182215D1*
X2152888Y4313131D1*
X2155381Y4328878D1*
X2160308Y4344038D1*
X2167545Y4358241D1*
X2176915Y4371138D1*
X2182351Y4377018D1*
X2183898Y4383545D1*
X2158855Y4381575D1*
X2133811Y4383545D1*
X2109385Y4389411D1*
X2086175Y4399025D1*
X2064755Y4412148D1*
X2045655Y4428465D1*
X2031925Y4444288D1*
X2905321Y4700908D2*
X2920855Y4701755D1*
X2945898Y4699785D1*
X2949221Y4699121D1*
X2954838Y4712285D1*
X2963168Y4725878D1*
X2973541Y4738021D1*
X3002845Y4767325D1*
X2987098Y4767285D1*
X2967768Y4753008D1*
X2948768Y4743328D1*
X2928488Y4736738D1*
X2907428Y4733405D1*
X2886101D1*
X2870561Y4735641D1*
X2905181Y4701008D1*
X3301785Y4444288D2*
X3288055Y4428465D1*
X3276471Y4418078D1*
X3276131Y4363195D1*
X3273638Y4347448D1*
X3268711Y4332288D1*
X3261475Y4318085D1*
X3252085Y4305165D1*
X3270145Y4288345D1*
X3291315Y4306361D1*
X3315408Y4321125D1*
X3341518Y4331941D1*
X3368995Y4338538D1*
X3397168Y4340755D1*
X3425341Y4338538D1*
X3452818Y4331941D1*
X3462405Y4328405D1*
X3450025Y4341121D1*
X3437488Y4358371D1*
X3427808Y4377371D1*
X3426235Y4381635D1*
X3403811Y4383545D1*
X3379385Y4389411D1*
X3356175Y4399025D1*
X3334755Y4412148D1*
X3315655Y4428465D1*
X3301925Y4444288D1*
X3806988Y4440741D2*
X3796055Y4428465D1*
X3784471Y4418078D1*
X3784445Y4294385D1*
X3803585Y4309215D1*
X3803891Y4422631D1*
X3806395Y4438408D1*
X4063785Y4444288D2*
X4050055Y4428465D1*
X4033075Y4413821D1*
X4027371Y4400228D1*
X4019041Y4386635D1*
X4008668Y4374491D1*
X4006758Y4367995D1*
Y4309388D1*
X4022128Y4297605D1*
X4032145Y4288345D1*
X4053311Y4306361D1*
X4077405Y4321125D1*
X4103515Y4331941D1*
X4130991Y4338538D1*
X4159165Y4340755D1*
X4187338Y4338538D1*
X4214815Y4331941D1*
X4240925Y4321125D1*
X4265018Y4306361D1*
X4286141Y4288345D1*
X4307311Y4306361D1*
X4324321Y4317158D1*
X4248958Y4392551D1*
X4228228Y4385998D1*
X4203415Y4382068D1*
X4178295D1*
X4153481Y4385998D1*
X4129591Y4393761D1*
X4107208Y4405165D1*
X4086885Y4419931D1*
X4069121Y4437695D1*
X4063925Y4444288D1*
X4571785D2*
X4558055Y4428465D1*
X4538955Y4412148D1*
X4525375Y4403415D1*
X4634915Y4293491D1*
X4644285Y4280595D1*
X4651521Y4266391D1*
X4656448Y4251231D1*
X4658941Y4235485D1*
X4659255Y4134181D1*
Y4097268D1*
X4667601Y4086838D1*
X4678745Y4068658D1*
X4686905Y4048958D1*
X4691881Y4028221D1*
X4693505Y4008255D1*
X5073631D1*
X5073575Y4436495D1*
X5056825Y4419931D1*
X5036501Y4405165D1*
X5014118Y4393761D1*
X4990228Y4385998D1*
X4965415Y4382068D1*
X4940295D1*
X4915481Y4385998D1*
X4891591Y4393761D1*
X4869208Y4405165D1*
X4848885Y4419931D1*
X4831121Y4437695D1*
X4825925Y4444288D1*
X4812055Y4428465D1*
X4792955Y4412148D1*
X4771535Y4399025D1*
X4748325Y4389411D1*
X4723898Y4383545D1*
X4698855Y4381575D1*
X4673811Y4383545D1*
X4649385Y4389411D1*
X4626175Y4399025D1*
X4604755Y4412148D1*
X4585655Y4428465D1*
X4571925Y4444288D1*
X2389045Y3914475D2*
X2371125Y3896725D1*
X2348261Y3880111D1*
X2323081Y3867285D1*
X2296205Y3858551D1*
X2268295Y3854131D1*
X2240035D1*
X2212125Y3858551D1*
X2185248Y3867285D1*
X2160068Y3880111D1*
X2137205Y3896725D1*
X2127025Y3906135D1*
X2106018Y3888295D1*
X2081925Y3873531D1*
X2055815Y3862715D1*
X2028338Y3856118D1*
X2000165Y3853901D1*
X1971991Y3856118D1*
X1944515Y3862715D1*
X1918405Y3873531D1*
X1894311Y3888295D1*
X1873025Y3906461D1*
X1852018Y3888618D1*
X1847748Y3885765D1*
X1847755Y3206071D1*
X1854285Y3199548D1*
X2412365Y3199585D1*
X2404035Y3211215D1*
X2396798Y3225418D1*
X2391871Y3240578D1*
X2389378Y3256325D1*
X2389065Y3357628D1*
Y3914438D1*
X2355748Y4182215D2*
X2371125Y4170605D1*
X2389045Y4152855D1*
X2389378Y4247135D1*
X2391881Y4262911D1*
X2372688Y4269575D1*
X2362205D1*
X2355718Y4263045D1*
X2355755Y4182388D1*
X1644581Y3885765D2*
X1629205Y3897375D1*
X1619025Y3906785D1*
X1598018Y3888945D1*
X1573925Y3874181D1*
X1547815Y3863365D1*
X1520338Y3856768D1*
X1492165Y3854551D1*
X1466791Y3856438D1*
X1466755Y3101821D1*
X1665855Y3101885D1*
X1659545Y3110918D1*
X1652308Y3125121D1*
X1647381Y3140281D1*
X1644888Y3156028D1*
X1644575Y3257331D1*
Y3885598D1*
X4311555Y6824708D2*
X4296428Y6837928D1*
X4283208Y6853055D1*
X3792551Y6853075D1*
X3782041Y6837055D1*
X3772315Y6824718D1*
X3761648Y6813181D1*
X3750111Y6802515D1*
X3737775Y6792788D1*
X3724711Y6784061D1*
X3711005Y6776385D1*
X3696735Y6769805D1*
X3681995Y6764368D1*
X3666875Y6760105D1*
X3651465Y6757038D1*
X3635865Y6755191D1*
X3620165Y6754575D1*
X3604465Y6755191D1*
X3588865Y6757038D1*
X3573455Y6760105D1*
X3558335Y6764368D1*
X3543595Y6769805D1*
X3529325Y6776385D1*
X3515618Y6784061D1*
X3502555Y6792788D1*
X3490218Y6802515D1*
X3470221Y6822328D1*
X3470255Y6761095D1*
X3491005Y6751945D1*
X3504711Y6744268D1*
X3517775Y6735541D1*
X3530111Y6725815D1*
X3541648Y6715148D1*
X3552315Y6703611D1*
X3562041Y6691275D1*
X3575058Y6670555D1*
X3588288Y6691275D1*
X3598015Y6703611D1*
X3608681Y6715148D1*
X3620218Y6725815D1*
X3632555Y6735541D1*
X3645618Y6744268D1*
X3659325Y6751945D1*
X3673595Y6758525D1*
X3688335Y6763961D1*
X3703455Y6768225D1*
X3718865Y6771291D1*
X3734465Y6773138D1*
X3750165Y6773755D1*
X3765865Y6773138D1*
X3781465Y6771291D1*
X3796875Y6768225D1*
X3811995Y6763961D1*
X3826735Y6758525D1*
X3841005Y6751945D1*
X3854711Y6744268D1*
X3867775Y6735541D1*
X3880111Y6725815D1*
X3891648Y6715148D1*
X3902315Y6703611D1*
X3912041Y6691275D1*
X3922418Y6675268D1*
X3991645Y6674941D1*
X4007391Y6672448D1*
X4022551Y6667521D1*
X4036755Y6660285D1*
X4049651Y6650915D1*
X4121508Y6579505D1*
X4152765Y6548245D1*
X4248031Y6548255D1*
X4248075Y6611755D1*
X4364105D1*
X4353451Y6618478D1*
X4341328Y6628828D1*
X4330978Y6640951D1*
X4322648Y6654545D1*
X4316548Y6669271D1*
X4312825Y6684771D1*
X4311575Y6700665D1*
Y6824531D1*
X4283208Y7056275D2*
X4296428Y7071401D1*
X4316128Y7088225D1*
X4338215Y7101761D1*
X4349758Y7107081D1*
X3750111Y7106815D1*
X3761648Y7096148D1*
X3772315Y7084611D1*
X3782041Y7072275D1*
X3792418Y7056268D1*
X4283068Y7056255D1*
X6425408Y7505755D2*
X6731751D1*
X6731221Y7557911D1*
X1015828Y7557915D1*
X1015915Y6146371D1*
X1020648Y6157125D1*
X1028975Y6170718D1*
X1039328Y6182841D1*
X1215678Y6358745D1*
X1228575Y6368115D1*
X1242778Y6375351D1*
X1257938Y6380278D1*
X1273685Y6382771D1*
X1374988Y6383085D1*
X1408805D1*
X1403411Y6397195D1*
X1397545Y6421621D1*
X1395575Y6446665D1*
X1397545Y6471708D1*
X1403411Y6496135D1*
X1413025Y6519345D1*
X1426148Y6540765D1*
X1442465Y6559865D1*
X1458288Y6573595D1*
X1442465Y6587465D1*
X1426148Y6606565D1*
X1413025Y6627985D1*
X1403411Y6651195D1*
X1397545Y6675621D1*
X1395575Y6700665D1*
X1397545Y6725708D1*
X1403411Y6750135D1*
X1413025Y6773345D1*
X1426148Y6794765D1*
X1442465Y6813865D1*
X1458288Y6827595D1*
X1442465Y6841465D1*
X1426148Y6860565D1*
X1413025Y6881985D1*
X1403411Y6905195D1*
X1397545Y6929621D1*
X1395575Y6954665D1*
X1397545Y6979708D1*
X1403411Y7004135D1*
X1413025Y7027345D1*
X1426148Y7048765D1*
X1428005Y7051115D1*
X1408255Y7060861D1*
Y7038575D1*
X1068075D1*
Y7378755D1*
X1408255D1*
Y7356605D1*
X1427075Y7365808D1*
X1452458Y7374055D1*
X1478818Y7378231D1*
X1505511D1*
X1531871Y7374055D1*
X1557255Y7365808D1*
X1581038Y7353691D1*
X1602628Y7338001D1*
X1619128Y7321695D1*
X1635701Y7338001D1*
X1657291Y7353691D1*
X1681075Y7365808D1*
X1706458Y7374055D1*
X1732818Y7378231D1*
X1759511D1*
X1785871Y7374055D1*
X1811255Y7365808D1*
X1835038Y7353691D1*
X1856628Y7338001D1*
X1875501Y7319128D1*
X1882511Y7310238D1*
X5120111Y7310255D1*
X5223158Y7412915D1*
X5236055Y7422285D1*
X5250258Y7429521D1*
X5265418Y7434448D1*
X5281165Y7436941D1*
X5382468Y7437255D1*
X5927795D1*
X5943891Y7455938D1*
X5964188Y7473271D1*
X5986945Y7487215D1*
X6011605Y7497431D1*
X6037558Y7503661D1*
X6064165Y7505755D1*
X6090771Y7503661D1*
X6116725Y7497431D1*
X6141385Y7487215D1*
X6164141Y7473271D1*
X6184438Y7455938D1*
X6191128Y7448695D1*
X6207701Y7465001D1*
X6229291Y7480691D1*
X6253075Y7492808D1*
X6278458Y7501055D1*
X6304818Y7505231D1*
X6331511D1*
X6357871Y7501055D1*
X6383255Y7492808D1*
X6402075Y7483468D1*
Y7505755D1*
X6425408D1*
X6735055Y7165575D2*
X6673805D1*
X6673441Y5942161D1*
X6670948Y5926418D1*
X6666021Y5911255D1*
X6658785Y5897051D1*
X6649411Y5884155D1*
X6599721Y5834021D1*
X6649415Y5783811D1*
X6658785Y5770915D1*
X6666021Y5756711D1*
X6670948Y5741551D1*
X6673441Y5725805D1*
X6673755Y5624501D1*
Y1409828D1*
X6742255Y1409755D1*
Y1079975D1*
X6794115Y1080568D1*
X6735028Y7165638D1*
X6276098Y1074941D2*
X6253075Y1082521D1*
X6229291Y1094638D1*
X6207701Y1110328D1*
X6191201Y1126635D1*
X6174628Y1110328D1*
X6153038Y1094638D1*
X6129255Y1082521D1*
X6103871Y1074275D1*
X6097475Y1073001D1*
X6275891Y1074935D1*
X1882511Y7107091D2*
X1866438Y7088391D1*
X1846141Y7071058D1*
X1823385Y7057115D1*
X1798725Y7046898D1*
X1772771Y7040668D1*
X1746165Y7038575D1*
X1719558Y7040668D1*
X1693605Y7046898D1*
X1683961Y7050458D1*
X1692165Y7038311D1*
X1703568Y7015928D1*
X1711331Y6992038D1*
X1715261Y6967225D1*
Y6942105D1*
X1711331Y6917291D1*
X1703568Y6893401D1*
X1692165Y6871018D1*
X1677398Y6850695D1*
X1659635Y6832931D1*
X1653041Y6827735D1*
X1668865Y6813865D1*
X1685181Y6794765D1*
X1698305Y6773345D1*
X1707918Y6750135D1*
X1713785Y6725708D1*
X1715755Y6700665D1*
X1713785Y6675621D1*
X1707918Y6651195D1*
X1698305Y6627985D1*
X1685181Y6606565D1*
X1668865Y6587465D1*
X1653041Y6573735D1*
X1668865Y6559865D1*
X1685181Y6540765D1*
X1698305Y6519345D1*
X1707918Y6496135D1*
X1713785Y6471708D1*
X1715755Y6446665D1*
X1713785Y6421621D1*
X1707918Y6397195D1*
X1702521Y6383128D1*
X1800001Y6383085D1*
X1800075Y6773755D1*
X2200255D1*
Y6706215D1*
X2220218Y6725815D1*
X2232555Y6735541D1*
X2245618Y6744268D1*
X2259325Y6751945D1*
X2273595Y6758525D1*
X2288335Y6763961D1*
X2303455Y6768225D1*
X2318865Y6771291D1*
X2334465Y6773138D1*
X2350165Y6773755D1*
X2365865Y6773138D1*
X2381465Y6771291D1*
X2396875Y6768225D1*
X2411995Y6763961D1*
X2426735Y6758525D1*
X2441005Y6751945D1*
X2454711Y6744268D1*
X2467775Y6735541D1*
X2480111Y6725815D1*
X2491648Y6715148D1*
X2502315Y6703611D1*
X2512041Y6691275D1*
X2525058Y6670555D1*
X2538288Y6691275D1*
X2548015Y6703611D1*
X2558681Y6715148D1*
X2570218Y6725815D1*
X2582555Y6735541D1*
X2595618Y6744268D1*
X2609325Y6751945D1*
X2623595Y6758525D1*
X2638335Y6763961D1*
X2653455Y6768225D1*
X2668865Y6771291D1*
X2684465Y6773138D1*
X2700165Y6773755D1*
X2715865Y6773138D1*
X2731465Y6771291D1*
X2746875Y6768225D1*
X2761995Y6763961D1*
X2776735Y6758525D1*
X2791005Y6751945D1*
X2804711Y6744268D1*
X2817775Y6735541D1*
X2830111Y6725815D1*
X2841648Y6715148D1*
X2852315Y6703611D1*
X2862041Y6691275D1*
X2875058Y6670555D1*
X2888288Y6691275D1*
X2898015Y6703611D1*
X2908681Y6715148D1*
X2920218Y6725815D1*
X2932555Y6735541D1*
X2945618Y6744268D1*
X2959325Y6751945D1*
X2973595Y6758525D1*
X2988335Y6763961D1*
X3003455Y6768225D1*
X3018865Y6771291D1*
X3034465Y6773138D1*
X3050165Y6773755D1*
X3070068Y6772641D1*
X3070075Y7107035D1*
X1882618Y7107075D1*
X5726255Y2320298D2*
Y2191055D1*
X5737165Y2212311D1*
X5751931Y2232635D1*
X5769695Y2250398D1*
X5776288Y2255595D1*
X5760465Y2269465D1*
X5744148Y2288565D1*
X5731025Y2309985D1*
X5726275Y2320285D1*
X5719418Y2085575D2*
X5657805D1*
X5657755Y1998361D1*
X5669365Y1987865D1*
X5685681Y1968765D1*
X5698805Y1947345D1*
X5708418Y1924135D1*
X5714285Y1899708D1*
X5714855Y1894881D1*
X5717998Y1912038D1*
X5725761Y1935928D1*
X5737165Y1958311D1*
X5751931Y1978635D1*
X5769695Y1996398D1*
X5776288Y2001595D1*
X5760465Y2015465D1*
X5744148Y2034565D1*
X5731025Y2055985D1*
X5721411Y2079195D1*
X5719611Y2085575D1*
X5454548D2*
X5403691D1*
X5403755Y1998361D1*
X5415365Y1987865D1*
X5429095Y1972041D1*
X5442965Y1987865D1*
X5454548Y1998251D1*
X5454575Y2085485D1*
X5657781Y1744251D2*
X5669365Y1733865D1*
X5685681Y1714765D1*
X5698805Y1693345D1*
X5708418Y1670135D1*
X5714285Y1645708D1*
X5714855Y1640881D1*
X5717998Y1658038D1*
X5725761Y1681928D1*
X5737165Y1704311D1*
X5751931Y1724635D1*
X5769695Y1742398D1*
X5776288Y1747595D1*
X5760465Y1761465D1*
X5744148Y1780565D1*
X5731025Y1801985D1*
X5721411Y1825195D1*
X5715545Y1849621D1*
X5714975Y1854448D1*
X5711831Y1837291D1*
X5704068Y1813401D1*
X5692665Y1791018D1*
X5677898Y1770695D1*
X5660135Y1752931D1*
X5657781Y1751078D1*
X6093788Y2509735D2*
X6077965Y2523465D1*
X6067578Y2535048D1*
X5997365Y2535075D1*
X5986865Y2523465D1*
X5971041Y2509735D1*
X5986865Y2495865D1*
X5997251Y2484281D1*
X6067348Y2484255D1*
X6077965Y2495865D1*
X6093788Y2509595D1*
Y2255735D2*
X6077965Y2269465D1*
X6067578Y2281048D1*
X5997365Y2281075D1*
X5986865Y2269465D1*
X5971041Y2255735D1*
X5986865Y2241865D1*
X5997251Y2230281D1*
X6067348Y2230255D1*
X6077965Y2241865D1*
X6093788Y2255595D1*
Y2001735D2*
X6077965Y2015465D1*
X6067578Y2027048D1*
X5997365Y2027075D1*
X5986865Y2015465D1*
X5971041Y2001735D1*
X5986865Y1987865D1*
X5997251Y1976281D1*
X6067348Y1976255D1*
X6077965Y1987865D1*
X6093788Y2001595D1*
Y1747735D2*
X6077965Y1761465D1*
X6067578Y1773048D1*
X5997365Y1773075D1*
X5986865Y1761465D1*
X5971041Y1747735D1*
X5986865Y1733865D1*
X5997251Y1722281D1*
X6067348Y1722255D1*
X6077965Y1733865D1*
X6093788Y1747595D1*
X6470565Y6905715D2*
X6460805Y6881985D1*
X6447681Y6860565D1*
X6431365Y6841465D1*
X6415541Y6827735D1*
X6431365Y6813865D1*
X6447681Y6794765D1*
X6460805Y6773345D1*
X6470565Y6749615D1*
X6470575Y6905618D1*
X6220788Y6827735D2*
X6204965Y6841465D1*
X6194578Y6853048D1*
X5870365Y6853075D1*
X5859865Y6841465D1*
X5844041Y6827735D1*
X5859865Y6813865D1*
X5870251Y6802281D1*
X6194465Y6802255D1*
X6204965Y6813865D1*
X6220788Y6827595D1*
X6470565Y4492715D2*
X6460805Y4468985D1*
X6447681Y4447565D1*
X6431365Y4428465D1*
X6419781Y4418078D1*
X6422135Y4409398D1*
X6439898Y4391635D1*
X6454665Y4371311D1*
X6466068Y4348928D1*
X6470565Y4336615D1*
X6470575Y4492751D1*
X6419781Y4665251D2*
X6431365Y4654865D1*
X6447681Y4635765D1*
X6460805Y4614345D1*
X6470565Y4590615D1*
X6470418Y4746195D1*
X6460805Y4722985D1*
X6447681Y4701565D1*
X6431365Y4682465D1*
X6419781Y4672078D1*
X6470565Y6651715D2*
X6460805Y6627985D1*
X6447681Y6606565D1*
X6431365Y6587465D1*
X6415541Y6573735D1*
X6431365Y6559865D1*
X6447681Y6540765D1*
X6460805Y6519345D1*
X6470565Y6495615D1*
X6470575Y6651685D1*
X6220788Y6573735D2*
X6204965Y6587465D1*
X6194578Y6599048D1*
X5870365Y6599075D1*
X5859865Y6587465D1*
X5844041Y6573735D1*
X5859865Y6559865D1*
X5870251Y6548281D1*
X6194465Y6548255D1*
X6204965Y6559865D1*
X6220788Y6573595D1*
X6470565Y4238715D2*
X6460805Y4214985D1*
X6447681Y4193565D1*
X6431365Y4174465D1*
X6419781Y4164078D1*
X6422135Y4155398D1*
X6439898Y4137635D1*
X6454665Y4117311D1*
X6466068Y4094928D1*
X6470565Y4082615D1*
X6470575Y4238635D1*
X6470565Y5508715D2*
X6460805Y5484985D1*
X6447681Y5463565D1*
X6431365Y5444465D1*
X6419781Y5434078D1*
X6422135Y5425398D1*
X6439898Y5407635D1*
X6454665Y5387311D1*
X6466068Y5364928D1*
X6470565Y5352615D1*
X6470575Y5508661D1*
X6470565Y5254715D2*
X6460805Y5230985D1*
X6447681Y5209565D1*
X6431365Y5190465D1*
X6419781Y5180078D1*
X6422135Y5171398D1*
X6439898Y5153635D1*
X6454665Y5133311D1*
X6466068Y5110928D1*
X6470565Y5098615D1*
X6470575Y5254731D1*
X6415541Y4922595D2*
X6431365Y4908865D1*
X6447681Y4889765D1*
X6460805Y4868345D1*
X6470565Y4844615D1*
X6470418Y5000195D1*
X6460805Y4976985D1*
X6447681Y4955565D1*
X6431365Y4936465D1*
X6415541Y4922735D1*
X2200255Y6441165D2*
Y6383011D1*
X2288335Y6383368D1*
X2273595Y6388805D1*
X2259325Y6395385D1*
X2245618Y6403061D1*
X2232555Y6411788D1*
X2220218Y6421515D1*
X2200221Y6441328D1*
X2525058Y6476775D2*
X2512041Y6456055D1*
X2502315Y6443718D1*
X2491648Y6432181D1*
X2480111Y6421515D1*
X2467775Y6411788D1*
X2454711Y6403061D1*
X2441005Y6395385D1*
X2426735Y6388805D1*
X2410991Y6383085D1*
X2638335Y6383368D1*
X2623595Y6388805D1*
X2609325Y6395385D1*
X2595618Y6403061D1*
X2582555Y6411788D1*
X2570218Y6421515D1*
X2558681Y6432181D1*
X2548015Y6443718D1*
X2538288Y6456055D1*
X2525271Y6476775D1*
X2875058D2*
X2862041Y6456055D1*
X2852315Y6443718D1*
X2841648Y6432181D1*
X2830111Y6421515D1*
X2817775Y6411788D1*
X2804711Y6403061D1*
X2791005Y6395385D1*
X2776735Y6388805D1*
X2760991Y6383085D1*
X2988335Y6383368D1*
X2973595Y6388805D1*
X2959325Y6395385D1*
X2945618Y6403061D1*
X2932555Y6411788D1*
X2920218Y6421515D1*
X2908681Y6432181D1*
X2898015Y6443718D1*
X2888288Y6456055D1*
X2875271Y6476775D1*
X3225058D2*
X3212041Y6456055D1*
X3202315Y6443718D1*
X3191648Y6432181D1*
X3180111Y6421515D1*
X3167775Y6411788D1*
X3154711Y6403061D1*
X3141005Y6395385D1*
X3126735Y6388805D1*
X3110991Y6383085D1*
X3338335Y6383368D1*
X3323595Y6388805D1*
X3309325Y6395385D1*
X3295618Y6403061D1*
X3282555Y6411788D1*
X3270218Y6421515D1*
X3258681Y6432181D1*
X3248015Y6443718D1*
X3238288Y6456055D1*
X3225271Y6476775D1*
X3135265Y6754591D2*
X3154711Y6744268D1*
X3167775Y6735541D1*
X3180111Y6725815D1*
X3191648Y6715148D1*
X3202315Y6703611D1*
X3212041Y6691275D1*
X3225058Y6670555D1*
X3238288Y6691275D1*
X3248015Y6703611D1*
X3258681Y6715148D1*
X3270218Y6725815D1*
X3282555Y6735541D1*
X3295618Y6744268D1*
X3315065Y6754591D1*
X3135658Y6754575D1*
X3575058Y6476775D2*
X3562041Y6456055D1*
X3552315Y6443718D1*
X3541648Y6432181D1*
X3530111Y6421515D1*
X3517775Y6411788D1*
X3504711Y6403061D1*
X3491005Y6395385D1*
X3476735Y6388805D1*
X3460991Y6383085D1*
X3688335Y6383368D1*
X3673595Y6388805D1*
X3659325Y6395385D1*
X3645618Y6403061D1*
X3632555Y6411788D1*
X3620218Y6421515D1*
X3608681Y6432181D1*
X3598015Y6443718D1*
X3588288Y6456055D1*
X3575271Y6476775D1*
X3922418Y6472061D2*
X3912041Y6456055D1*
X3902315Y6443718D1*
X3891648Y6432181D1*
X3880111Y6421515D1*
X3867775Y6411788D1*
X3854711Y6403061D1*
X3841005Y6395385D1*
X3826735Y6388805D1*
X3810991Y6383085D1*
X4030521D1*
X3941585Y6472085D1*
X3922515Y6472075D1*
X4057581Y4012115D2*
X4042205Y4023725D1*
X4032188Y4032985D1*
X4011021Y4014968D1*
X3986928Y4000205D1*
X3960818Y3989388D1*
X3933341Y3982791D1*
X3905168Y3980575D1*
X3876995Y3982791D1*
X3849518Y3989388D1*
X3823408Y4000205D1*
X3799315Y4014968D1*
X3778191Y4032985D1*
X3757021Y4014968D1*
X3752751Y4012115D1*
X3752758Y3865261D1*
X3759288Y3858715D1*
X4069628Y3858755D1*
X4062548Y3875271D1*
X4058825Y3890771D1*
X4057575Y3906695D1*
Y4011938D1*
X3549585Y4012115D2*
X3534208Y4023725D1*
X3524191Y4032985D1*
X3503021Y4014968D1*
X3478928Y4000205D1*
X3452818Y3989388D1*
X3425341Y3982791D1*
X3397168Y3980575D1*
X3368995Y3982791D1*
X3341518Y3989388D1*
X3315408Y4000205D1*
X3291315Y4014968D1*
X3270191Y4032985D1*
X3249021Y4014968D1*
X3224928Y4000205D1*
X3198818Y3989388D1*
X3171341Y3982791D1*
X3151171Y3980888D1*
X3149811Y3968218D1*
X3144835Y3947481D1*
X3136675Y3927781D1*
X3125531Y3909601D1*
X3117201Y3899355D1*
X3117185Y3813108D1*
X3125531Y3802748D1*
X3136675Y3784568D1*
X3144835Y3764868D1*
X3149811Y3744131D1*
X3151485Y3722875D1*
X3149811Y3701618D1*
X3144835Y3680881D1*
X3136675Y3661181D1*
X3125531Y3643001D1*
X3111685Y3626785D1*
X3095468Y3612938D1*
X3077288Y3601795D1*
X3057588Y3593635D1*
X3036851Y3588658D1*
X3015595Y3586985D1*
X2994338Y3588658D1*
X2973601Y3593635D1*
X2953901Y3601795D1*
X2935721Y3612938D1*
X2919505Y3626785D1*
X2905658Y3643001D1*
X2894515Y3661181D1*
X2886355Y3680881D1*
X2881378Y3701618D1*
X2879705Y3722875D1*
X2881378Y3744131D1*
X2886355Y3764868D1*
X2894515Y3784568D1*
X2905658Y3802748D1*
X2913988Y3812995D1*
X2914005Y3899241D1*
X2905658Y3909601D1*
X2894515Y3927781D1*
X2886355Y3947481D1*
X2881378Y3968218D1*
X2880048Y3980771D1*
X2860991Y3982791D1*
X2833515Y3989388D1*
X2807405Y4000205D1*
X2783311Y4014968D1*
X2762188Y4032985D1*
X2741018Y4014968D1*
X2716925Y4000205D1*
X2690815Y3989388D1*
X2663338Y3982791D1*
X2635165Y3980575D1*
X2606991Y3982791D1*
X2592221Y3985805D1*
X2592245Y3306288D1*
X2598775Y3299845D1*
X3058048Y3299885D1*
X3059738Y3319861D1*
X3064715Y3340598D1*
X3072875Y3360298D1*
X3084018Y3378478D1*
X3097865Y3394695D1*
X3114081Y3408541D1*
X3132261Y3419685D1*
X3151961Y3427845D1*
X3172698Y3432821D1*
X3185835Y3434175D1*
X3436238Y3684115D1*
X3449135Y3693485D1*
X3463338Y3700721D1*
X3478498Y3705648D1*
X3494245Y3708141D1*
X3595548Y3708455D1*
X3622255D1*
X3573918Y3757188D1*
X3564548Y3770085D1*
X3557311Y3784288D1*
X3552385Y3799448D1*
X3549891Y3815195D1*
X3549578Y3916498D1*
Y4011928D1*
X3510615Y4300375D2*
X3524145Y4288345D1*
X3521631Y4297238D1*
X3510855Y4300325D1*
X5440875Y4074625D2*
X5420908Y4076248D1*
X5400171Y4081225D1*
X5380471Y4089385D1*
X5362291Y4100528D1*
X5346075Y4114375D1*
X5332228Y4130591D1*
X5321085Y4148771D1*
X5312925Y4168471D1*
X5307948Y4189208D1*
X5306595Y4202345D1*
X5276811Y4232148D1*
X5276441Y3898695D1*
X5273938Y3882918D1*
X5278848Y3878245D1*
X5297028Y3867101D1*
X5313245Y3853255D1*
X5327091Y3837038D1*
X5338235Y3818858D1*
X5346395Y3799158D1*
X5351371Y3778421D1*
X5353045Y3757165D1*
X5351371Y3735908D1*
X5346395Y3715171D1*
X5343928Y3708485D1*
X5434415Y3708455D1*
X5440915Y3714985D1*
X5440875Y4074545D1*
X4637795Y5257205D2*
X4624908Y5258548D1*
X4604171Y5263525D1*
X4584471Y5271685D1*
X4566291Y5282828D1*
X4556045Y5291158D1*
X4450838Y5291175D1*
X4440538Y5282828D1*
X4422358Y5271685D1*
X4402658Y5263525D1*
X4381921Y5258548D1*
X4369035Y5257205D1*
X4658238D1*
D16*
X5302165Y6446665D3*
D17*
Y6700665D3*
Y6954665D3*
D18*
X2762165Y2255665D3*
D19*
X2508165D3*
X2254165D3*
X2000165D3*
D20*
X3143165D3*
D21*
X3397165D3*
X3651165D3*
X3905165D3*
X4159165D3*
X4413165D3*
X4667165D3*
X4921165D3*
D20*
X5460855Y6065665D3*
D21*
X5206855D3*
X4952855D3*
X4698855D3*
X4444855D3*
X4190855D3*
X3936855D3*
X3682855D3*
X3428855D3*
X3174855D3*
X2920855D3*
X2666855D3*
X2412855D3*
X2158855D3*
X1904855D3*
Y4541665D3*
X2158855D3*
X2412855D3*
X2666855D3*
X2920855D3*
X3174855D3*
X3428855D3*
X3682855D3*
X3936855D3*
X4190855D3*
X4444855D3*
X4698855D3*
X4952855D3*
X5206855D3*
X5460855D3*
D22*
X2254165Y4033665D3*
X2000165Y4033991D3*
X1746165Y4034315D3*
X1492165Y4034641D3*
D23*
X4413165Y6954665D3*
D24*
Y6446665D3*
D18*
X6572165Y7335665D3*
D19*
X6318165D3*
X6064165D3*
D18*
X6572165Y1239665D3*
D19*
X6318165D3*
X6064165D3*
D18*
X1238165D3*
D19*
X1492165D3*
X1746165D3*
D18*
X1238165Y7208665D3*
D19*
X1492165D3*
X1746165D3*
D18*
X5556165Y2255665D3*
D19*
X5302165D3*
D28*
X2762165Y1620665D3*
X3016165D3*
X2762165Y1874665D3*
X3016165D3*
X3270165Y1620665D3*
Y1874665D3*
X3524165Y1620665D3*
Y1874665D3*
X3778165Y1620665D3*
Y1874665D3*
X4032165Y1620665D3*
Y1874665D3*
X4286165Y1620665D3*
Y1874665D3*
X4540165Y1620665D3*
Y1874665D3*
X4794165Y1620665D3*
Y1874665D3*
X5048165Y1620665D3*
Y1874665D3*
X5302165Y1620665D3*
Y1874665D3*
X5556165Y1620665D3*
Y1874665D3*
X2508165Y1620665D3*
Y1874665D3*
X2254165Y1620665D3*
Y1874665D3*
X6445165Y2636665D3*
X6191165D3*
X6445165Y2382665D3*
X6191165D3*
X6445165Y2128665D3*
X6191165D3*
X6445165Y1874665D3*
X6191165D3*
X6445165Y1620665D3*
X6191165D3*
X5873665Y2636665D3*
Y2382665D3*
Y2128665D3*
Y1874665D3*
Y1620665D3*
X6318165Y6954665D3*
Y4541665D3*
Y6700665D3*
Y4287665D3*
X5746665Y6954665D3*
Y6700665D3*
X6318165Y6446665D3*
Y4033665D3*
X5746665Y6446665D3*
X6318165Y5557665D3*
X1555665Y6954665D3*
X6318165Y5303665D3*
X1555665Y6700665D3*
X6318165Y4795665D3*
Y5049665D3*
X1555665Y6446665D3*
D30*
X2000165Y6573665D3*
D31*
X2350165D3*
X2700165D3*
X3050165D3*
X3400165D3*
X3750165D3*
D22*
X4413165Y4160665D3*
X4159165D3*
X3905168D3*
X3651168D3*
X3397168D3*
X3143168D3*
X2889165D3*
X2635165D3*
X5810165Y3779665D3*
Y3081165D3*
D30*
X3270165Y6954665D3*
D31*
X3620165D3*
M02*
