%TF.GenerationSoftware,Novarm,DipTrace,3.3.1.3*%
%TF.CreationDate,2020-02-21T13:35:15+01:00*%
%FSLAX35Y35*%
%MOMM*%
%TF.FileFunction,Drawing,Top*%
%TF.Part,Single*%
%ADD13C,0.035*%
%ADD77C,0.15686*%
G75*
G01*
%LPD*%
X999998Y7575331D2*
D13*
Y9290665D1*
X6784831Y7575331D2*
Y9290665D1*
X3892415Y9240665D2*
X1099998D1*
G36*
X999998D2*
X1099998Y9260665D1*
Y9220665D1*
X999998Y9240665D1*
G37*
X3892415D2*
D13*
X6684831D1*
G36*
X6784831D2*
X6684831Y9220665D1*
Y9260665D1*
X6784831Y9240665D1*
G37*
Y999998D2*
D13*
X6876165D1*
X7715165Y7589665D2*
X6776165D1*
X6826165Y4294831D2*
Y1099998D1*
G36*
Y999998D2*
X6806165Y1099998D1*
X6846165D1*
X6826165Y999998D1*
G37*
Y4294831D2*
D13*
Y7489665D1*
G36*
Y7589665D2*
X6846165Y7489665D1*
X6806165D1*
X6826165Y7589665D1*
G37*
X3754854Y9373655D2*
D77*
X3706337D1*
X3701508Y9329968D1*
X3706337Y9334797D1*
X3720937Y9339738D1*
X3735425D1*
X3750025Y9334797D1*
X3759796Y9325138D1*
X3764625Y9310538D1*
Y9300880D1*
X3759796Y9286280D1*
X3750025Y9276509D1*
X3735425Y9271680D1*
X3720937D1*
X3706337Y9276509D1*
X3701508Y9281451D1*
X3696567Y9291109D1*
X3815427Y9271680D2*
X3864056Y9373655D1*
X3795998D1*
X3900258Y9281451D2*
X3895429Y9276509D1*
X3900258Y9271680D1*
X3905199Y9276509D1*
X3900258Y9281451D1*
X3960830Y9373655D2*
X3946343Y9368826D1*
X3941401Y9359168D1*
Y9349397D1*
X3946343Y9339738D1*
X3956001Y9334797D1*
X3975430Y9329968D1*
X3990030Y9325138D1*
X3999689Y9315368D1*
X4004518Y9305709D1*
Y9291109D1*
X3999689Y9281451D1*
X3994860Y9276509D1*
X3980260Y9271680D1*
X3960830D1*
X3946343Y9276509D1*
X3941401Y9281451D1*
X3936572Y9291109D1*
Y9305709D1*
X3941401Y9315368D1*
X3951172Y9325138D1*
X3965660Y9329968D1*
X3985089Y9334797D1*
X3994860Y9339738D1*
X3999689Y9349397D1*
Y9359168D1*
X3994860Y9368826D1*
X3980260Y9373655D1*
X3960830D1*
X4094178D2*
X4045661D1*
X4040832Y9329968D1*
X4045661Y9334797D1*
X4060261Y9339738D1*
X4074749D1*
X4089349Y9334797D1*
X4099120Y9325138D1*
X4103949Y9310538D1*
Y9300880D1*
X4099120Y9286280D1*
X4089349Y9276509D1*
X4074749Y9271680D1*
X4060261D1*
X4045661Y9276509D1*
X4040832Y9281451D1*
X4035891Y9291109D1*
X6944668Y4377847D2*
X6954326Y4382676D1*
X6959155Y4397276D1*
Y4406935D1*
X6954326Y4421535D1*
X6939726Y4431305D1*
X6915468Y4436135D1*
X6891209D1*
X6871780Y4431305D1*
X6862009Y4421535D1*
X6857180Y4406935D1*
Y4402105D1*
X6862009Y4387618D1*
X6871780Y4377847D1*
X6886380Y4373018D1*
X6891209D1*
X6905809Y4377847D1*
X6915468Y4387618D1*
X6920297Y4402105D1*
Y4406935D1*
X6915468Y4421535D1*
X6905809Y4431305D1*
X6891209Y4436135D1*
X6959155Y4283358D2*
Y4331874D1*
X6915468Y4336704D1*
X6920297Y4331874D1*
X6925238Y4317274D1*
Y4302787D1*
X6920297Y4288187D1*
X6910638Y4278416D1*
X6896038Y4273587D1*
X6886380D1*
X6871780Y4278416D1*
X6862009Y4288187D1*
X6857180Y4302787D1*
Y4317274D1*
X6862009Y4331874D1*
X6866951Y4336704D1*
X6876609Y4341645D1*
X6866951Y4237385D2*
X6862009Y4242214D1*
X6857180Y4237385D1*
X6862009Y4232443D1*
X6866951Y4237385D1*
X6925238Y4137842D2*
X6910638Y4142783D1*
X6900868Y4152442D1*
X6896038Y4167042D1*
Y4171871D1*
X6900868Y4186471D1*
X6910638Y4196129D1*
X6925238Y4201071D1*
X6930068D1*
X6944668Y4196129D1*
X6954326Y4186471D1*
X6959155Y4171871D1*
Y4167042D1*
X6954326Y4152442D1*
X6944668Y4142783D1*
X6925238Y4137842D1*
X6900868D1*
X6876609Y4142783D1*
X6862009Y4152442D1*
X6857180Y4167042D1*
Y4176700D1*
X6862009Y4191300D1*
X6871780Y4196129D1*
M02*
