%TF.GenerationSoftware,Novarm,DipTrace,3.3.1.3*%
%TF.CreationDate,2020-02-21T13:35:09+01:00*%
%FSLAX35Y35*%
%MOMM*%
%TF.FileFunction,Soldermask,Top*%
%TF.Part,Single*%
%ADD34C,1.651*%
%ADD42C,2.50015*%
%ADD44R,2.50015X2.50015*%
%ADD48C,1.70015*%
%ADD54R,1.80015X1.80015*%
%ADD56C,1.80015*%
%ADD58C,2.10015*%
%ADD60C,1.70015*%
%ADD62R,1.70015X1.70015*%
%ADD64C,1.90015*%
%ADD66R,1.90015X1.90015*%
%ADD68C,2.10015*%
%ADD70R,2.10015X2.10015*%
G75*
G01*
%LPD*%
D70*
X5302165Y6446665D3*
D68*
Y6700665D3*
Y6954665D3*
D66*
X2762165Y2255665D3*
D64*
X2508165D3*
X2254165D3*
X2000165D3*
D62*
X3143165D3*
D60*
X3397165D3*
X3651165D3*
X3905165D3*
X4159165D3*
X4413165D3*
X4667165D3*
X4921165D3*
D62*
X5460855Y6065665D3*
D60*
X5206855D3*
X4952855D3*
X4698855D3*
X4444855D3*
X4190855D3*
X3936855D3*
X3682855D3*
X3428855D3*
X3174855D3*
X2920855D3*
X2666855D3*
X2412855D3*
X2158855D3*
X1904855D3*
Y4541665D3*
X2158855D3*
X2412855D3*
X2666855D3*
X2920855D3*
X3174855D3*
X3428855D3*
X3682855D3*
X3936855D3*
X4190855D3*
X4444855D3*
X4698855D3*
X4952855D3*
X5206855D3*
X5460855D3*
D34*
X5714855Y6065665D3*
Y4541665D3*
X1650855D3*
Y6065665D3*
D58*
X2254165Y4033665D3*
X2000165Y4033991D3*
X1746165Y4034315D3*
X1492165Y4034641D3*
D56*
X4413165Y6954665D3*
D54*
Y6446665D3*
D66*
X6572165Y7335665D3*
D64*
X6318165D3*
X6064165D3*
D66*
X6572165Y1239665D3*
D64*
X6318165D3*
X6064165D3*
D66*
X1238165D3*
D64*
X1492165D3*
X1746165D3*
D66*
X1238165Y7208665D3*
D64*
X1492165D3*
X1746165D3*
D66*
X5556165Y2255665D3*
D64*
X5302165D3*
D48*
X2762165Y1620665D3*
X3016165D3*
X2762165Y1874665D3*
X3016165D3*
X3270165Y1620665D3*
Y1874665D3*
X3524165Y1620665D3*
Y1874665D3*
X3778165Y1620665D3*
Y1874665D3*
X4032165Y1620665D3*
Y1874665D3*
X4286165Y1620665D3*
Y1874665D3*
X4540165Y1620665D3*
Y1874665D3*
X4794165Y1620665D3*
Y1874665D3*
X5048165Y1620665D3*
Y1874665D3*
X5302165Y1620665D3*
Y1874665D3*
X5556165Y1620665D3*
Y1874665D3*
X2508165Y1620665D3*
Y1874665D3*
X2254165Y1620665D3*
Y1874665D3*
X6445165Y2636665D3*
X6191165D3*
X6445165Y2382665D3*
X6191165D3*
X6445165Y2128665D3*
X6191165D3*
X6445165Y1874665D3*
X6191165D3*
X6445165Y1620665D3*
X6191165D3*
X5873665Y2636665D3*
Y2382665D3*
Y2128665D3*
Y1874665D3*
Y1620665D3*
X6318165Y6954665D3*
Y4541665D3*
Y6700665D3*
Y4287665D3*
X5746665Y6954665D3*
Y6700665D3*
X6318165Y6446665D3*
Y4033665D3*
X5746665Y6446665D3*
X6318165Y5557665D3*
X1555665Y6954665D3*
X6318165Y5303665D3*
X1555665Y6700665D3*
X6318165Y4795665D3*
Y5049665D3*
X1555665Y6446665D3*
D44*
X2000165Y6573665D3*
D42*
X2350165D3*
X2700165D3*
X3050165D3*
X3400165D3*
X3750165D3*
D58*
X4413165Y4160665D3*
X4159165D3*
X3905168D3*
X3651168D3*
X3397168D3*
X3143168D3*
X2889165D3*
X2635165D3*
X5810165Y3779665D3*
Y3081165D3*
D44*
X3270165Y6954665D3*
D42*
X3620165D3*
M02*
